<svg id="Layer_1" data-name="Layer 1" xmlns="http://www.w3.org/2000/svg" xmlns:xlink="http://www.w3.org/1999/xlink" viewBox="0 0 512 512"><defs><style>.cls-1{fill:none;}.cls-2{clip-path:url(#clip-path);}.cls-3{fill:#d62828;}.cls-4{fill:#fcd856;}.cls-5{fill:#eee;}.cls-6{fill:#007a3d;}.cls-7{clip-path:url(#clip-path-2);}.cls-8{fill:#00993e;}.cls-9{fill:#c8312a;}</style><clipPath id="clip-path"><circle class="cls-1" cx="-334.3" cy="256" r="256"/></clipPath><clipPath id="clip-path-2"><circle class="cls-1" cx="256" cy="256" r="256"/></clipPath></defs><g class="cls-2"><path class="cls-3" d="M-652.3,512h1024V0h-1024Z"/><path class="cls-4" d="M-652.3,512V0H30.37Z"/><path class="cls-5" d="M-652.3,512h1024V170.67Z"/><path class="cls-6" d="M-652.3,512h1024V341.33Z"/></g><g class="cls-7"><rect class="cls-8" x="-0.8" y="0.75" width="1022.5" height="511.25"/><rect class="cls-5" x="-0.8" y="73.79" width="1022.5" height="73.04"/><rect class="cls-5" x="-0.8" y="219.86" width="1022.5" height="73.04"/><rect class="cls-5" x="-0.8" y="365.93" width="1022.5" height="73.04"/><rect class="cls-9" x="-0.8" y="0.75" width="388.55" height="219.11"/><path class="cls-5" d="M163.4,123.15s-3.35,1.4-1.06,28.13c1.88,22,9.71,29.17,9.71,29.17l3.43,13.62,32.47.13s.59-8.43,1.85-11.1c3.09-6.55,15.33-14,20.58-25.35,5.65-6.89,2.82-21,14.15-34.54,5.62-6.74-6.59-3.89-6.59-3.89a32,32,0,0,0-11.66,13.3c-1.14,7-6.39,12.89-6.89,7.8,0,0-1.91-8.82-7.64-25.95-.56-5.08-3-22.64-3.54-36-.38-8.72-8-9.25-8.65-.39l-.92,35.09-1.83-40.53c-.77-11.47-9.45-9.77-9.83-.26l-.37,42.2L185,73.62c-2.35-7.82-8.53-3.18-8.65,5.28l-1,39.81s-1.33-21.8-1.63-31c-.28-5.53-6.77-5.12-7.38,2.79-.88,11.45-2.27,20.79-2.92,32.66Z"/><path class="cls-5" d="M183.6,48.42,193.47,18l9.88,30.39L177.5,29.64h31.95Z"/><path class="cls-5" d="M260.38,60.54,234.53,41.76h32L240.63,60.54l9.88-30.39Z"/><path class="cls-5" d="M309.18,96.65,283.33,77.87h31.95L289.43,96.65l9.87-30.39Z"/><path class="cls-5" d="M337.45,147.65,311.6,128.87h31.95L317.7,147.65l9.87-30.39Z"/><path class="cls-5" d="M126.56,60.54l25.85-18.78H120.46l25.85,18.78-9.87-30.39Z"/><path class="cls-5" d="M77.77,96.65l25.85-18.78H71.67L97.52,96.65,87.64,66.26Z"/><path class="cls-5" d="M49.5,147.65l25.85-18.78H43.4l25.85,18.78-9.88-30.39Z"/></g></svg>