<?xml version="1.0" encoding="utf-8"?>
<!-- Generator: Adobe Illustrator 25.2.3, SVG Export Plug-In . SVG Version: 6.00 Build 0)  -->
<svg version="1.1" id="Layer_1" xmlns="http://www.w3.org/2000/svg" xmlns:xlink="http://www.w3.org/1999/xlink" x="0px" y="0px"
	 viewBox="0 0 1020 1020" style="enable-background:new 0 0 1020 1020;" xml:space="preserve">
<style type="text/css">
	.st0{fill:none;stroke:#2F598C;stroke-width:0.25;}
	.st1{enable-background:new    ;}
	.st2{fill:#003472;}
	.st3{fill:none;stroke:#003472;stroke-miterlimit:10;}
	.st4{fill:none;stroke:#003472;stroke-width:0.5;stroke-miterlimit:10;}
	.st5{fill:none;}
</style>
<g id="Group_1_1_" transform="translate(-450 -945)">
	<path id="Subtraction_1_1_" class="st0" d="M960,1934.8c-16.4,0-32.8-0.8-49.1-2.5c-16-1.6-31.9-4.1-47.6-7.3
		c-15.5-3.2-30.9-7.1-46-11.8c-14.9-4.6-29.7-10.1-44.1-16.1c-14.2-6-28.3-12.8-41.9-20.2c-13.5-7.3-26.8-15.4-39.6-24
		c-51.1-34.5-95.1-78.5-129.6-129.6c-8.6-12.7-16.7-26.1-24-39.6c-7.4-13.6-14.2-27.7-20.2-41.9c-6.1-14.4-11.5-29.2-16.1-44.1
		c-4.7-15.1-8.7-30.5-11.8-46c-3.2-15.7-5.6-31.6-7.3-47.6c-1.7-16.3-2.5-32.7-2.5-49.1c0-13.8,0.6-27.8,1.8-41.5
		c1.2-13.5,2.9-27.2,5.2-40.5c2.3-13.2,5.1-26.4,8.5-39.4c3.3-12.8,7.3-25.6,11.6-38.1c17.4-49.4,42.8-95.6,75.2-136.8
		c48.4-61.6,111.1-110.5,182.6-142.4c12-5.3,24.3-10.2,36.7-14.6c12.5-4.4,25.3-8.2,38.1-11.5c0.6,2.1,2.8,3.4,4.9,2.8
		c2-0.6,3.3-2.6,2.8-4.7c5.5-1.3,11.2-2.6,16.7-3.7c0.5,2.1,2.7,3.5,4.8,3c1.8-0.4,3.1-2,3.1-3.9c0-0.2,0-0.4,0-0.6
		c14.2-2.6,28.8-4.6,43.2-6c14.7-1.3,29.6-2,44.4-2c100-0.2,197.5,31.1,278.8,89.3c-1.2,1.9-0.7,4.3,1.2,5.5c1.7,1.1,4,0.7,5.3-0.8
		c6.8,5,13.6,10.3,20.1,15.7c-0.5,0.7-0.8,1.5-0.8,2.4c0,2.2,1.8,4,4,4c1.1,0,2.1-0.4,2.9-1.2c25.6,21.9,48.8,46.3,69.3,73
		c-1.7,1.4-1.9,4-0.4,5.6c1.3,1.5,3.6,1.9,5.3,0.7c3.4,4.6,6.8,9.3,10,13.9c-1.8,1.3-2.1,3.8-0.8,5.6c1.2,1.6,3.5,2.1,5.2,1
		c8.8,13.2,16.9,27,24.3,41c7.5,14.1,14.3,28.7,20.3,43.5c12.2,30.1,21.4,61.4,27.2,93.3c-2.2,0.5-3.5,2.6-3.1,4.8
		c0.4,2,2.4,3.4,4.4,3.1c2.2,12.9,3.8,26.1,4.9,39.2c1.1,13.3,1.7,26.8,1.7,40.1c0,17.7-1,35.3-2.9,52.9
		c-1.9,17.2-4.7,34.3-8.4,51.2c-2.2-0.4-4.3,1-4.7,3.2c-0.4,2.1,0.9,4.1,2.9,4.6c-3,12.4-6.5,24.9-10.4,37c-3.9,12-8.4,24-13.3,35.7
		c-29.1,69.6-74.2,131.4-131.5,180.4c-0.8-0.8-1.8-1.2-2.9-1.2c-2.2,0-4,1.8-4,4c0,0.9,0.3,1.7,0.8,2.4c-20.8,17.2-43,32.6-66.4,46
		c-11.7,6.7-23.9,13.1-36.1,18.8c-12.3,5.8-25,11-37.8,15.7c-12.9,4.7-26.1,8.9-39.3,12.5c-13.4,3.6-27.1,6.7-40.7,9.1
		c-13.8,2.5-27.9,4.4-42,5.6C988.8,1934.1,974.3,1934.8,960,1934.8z"/>
	<g id="Group_603_2_">
		<g class="st1">
			<path class="st2" d="M1443.4,1559.2l0.9,0.2l-0.5,2c0.3,0,0.6-0.1,0.9-0.3c0.3-0.2,0.4-0.5,0.5-0.8c0.1-0.5,0-0.9-0.2-1.4
				l0.9-0.4c0.4,0.6,0.5,1.3,0.3,2c-0.2,0.7-0.5,1.3-1.1,1.6c-0.6,0.4-1.2,0.5-1.9,0.3c-0.7-0.2-1.2-0.5-1.6-1.1
				c-0.4-0.6-0.5-1.2-0.3-1.9c0.1-0.4,0.3-0.8,0.5-1.1c0.2-0.3,0.5-0.5,0.8-0.7l0.6,0.8c-0.2,0.2-0.4,0.3-0.6,0.5
				c-0.1,0.2-0.2,0.4-0.3,0.7c-0.1,0.3,0,0.7,0.1,0.9c0.2,0.3,0.4,0.5,0.7,0.7L1443.4,1559.2z"/>
			<path class="st2" d="M1442.2,1562.8l1,0.2l-0.5,2.1l-1-0.2L1442.2,1562.8z"/>
			<path class="st2" d="M1439.8,1565.7l3.7,0.9l0-0.9l0.9,0l0.1,1.5l-0.2,0.7l-4.8-1.1L1439.8,1565.7z"/>
			<path class="st2" d="M1439.2,1571.3c-0.4-0.5-0.5-1.1-0.4-1.7c0.1-0.6,0.5-1.1,1.1-1.4c0.6-0.3,1.2-0.3,1.9-0.2
				c0.7,0.2,1.2,0.5,1.6,1c0.4,0.5,0.5,1.1,0.4,1.7c-0.1,0.6-0.5,1.1-1.1,1.4s-1.2,0.3-1.9,0.2
				C1440.1,1572.2,1439.6,1571.8,1439.2,1571.3z M1440.4,1569.2c-0.3,0.1-0.5,0.3-0.6,0.7s0,0.6,0.3,0.9c0.2,0.3,0.6,0.4,1,0.5
				c0.4,0.1,0.8,0.1,1.2,0c0.3-0.1,0.5-0.3,0.6-0.7c0.1-0.3,0-0.6-0.3-0.8c-0.2-0.3-0.6-0.4-1-0.5
				C1441.1,1569.1,1440.7,1569.1,1440.4,1569.2z"/>
			<path class="st2" d="M1437.8,1574c0.2-0.8,0.6-1.3,1.3-1.7l0.5,0.9c-0.5,0.3-0.7,0.6-0.8,1c0,0.2,0,0.4,0,0.5
				c0.1,0.1,0.2,0.2,0.4,0.3c0.2,0,0.4,0,0.5-0.1c0.1-0.1,0.2-0.4,0.3-0.7l0.1-0.4l0.7,0l0.9,1.4l0.4-1.9l0.9,0.2l-0.7,3.2l-0.8-0.2
				l-0.9-1.5c-0.3,0.8-0.9,1.1-1.6,1c-0.5-0.1-0.8-0.3-1-0.7C1437.8,1575,1437.7,1574.5,1437.8,1574z"/>
		</g>
		<line id="Line_414_2_" class="st3" x1="1415" y1="1560.1" x2="1403.3" y2="1557.4"/>
		<circle id="Ellipse_166_2_" class="st3" cx="1427.7" cy="1563" r="4"/>
	</g>
	<g id="Group_604_2_">
		<g class="st1">
			<path class="st2" d="M1281.7,1828l1.6,5.1l-0.8,0.6l-4.8-2.4l0.9-0.7l1,0.6l1.6-1.3l-0.4-1.1L1281.7,1828z M1281.5,1830.8l-1,0.8
				l1.5,0.8L1281.5,1830.8z"/>
			<path class="st2" d="M1277.2,1831.7l3.2,3.8l-0.9,0.7l-2.3-0.8l0.3,2.4l-0.9,0.7l-3.1-3.8l0.8-0.7l2.1,2.5l-0.3-2.5l0,0l2.4,0.7
				l-2-2.4L1277.2,1831.7z"/>
			<path class="st2" d="M1271.5,1836.4c0.5-0.5,1.2-0.7,1.9-0.6v1c-0.5,0-0.9,0.1-1.2,0.3c-0.2,0.2-0.3,0.3-0.3,0.5
				c0,0.2,0,0.4,0.2,0.5c0.1,0.2,0.3,0.2,0.5,0.2c0.2,0,0.4-0.1,0.6-0.3c0.2-0.2,0.4-0.4,0.5-0.7l0.7-0.1l1.4,1.9l-2.3,1.9l-0.6-0.7
				l1.6-1.3l-0.5-0.7c-0.1,0.2-0.3,0.3-0.4,0.5c-0.4,0.3-0.8,0.5-1.2,0.5c-0.4,0-0.8-0.2-1.1-0.6c-0.3-0.4-0.5-0.8-0.4-1.3
				C1270.8,1837.2,1271.1,1836.8,1271.5,1836.4z"/>
		</g>
		<g class="st1">
			<path class="st2" d="M1287.5,1836.2l1.6,5.1l-0.8,0.6l-4.8-2.4l0.9-0.7l1,0.6l1.6-1.3l-0.4-1.1L1287.5,1836.2z M1287.3,1839
				l-1,0.8l1.5,0.8L1287.3,1839z"/>
			<path class="st2" d="M1282.7,1840.2l2.5,3l1.1-1l0.6,0.8l-3.1,2.6l-0.6-0.8l1.1-1l-2.5-3L1282.7,1840.2z"/>
			<path class="st2" d="M1280.4,1842.1l0.5,0.7l-0.4,2.1c-0.1,0.4-0.1,0.7-0.1,0.9c0,0.2,0.1,0.4,0.2,0.5c0.1,0.2,0.3,0.2,0.4,0.2
				c0.2,0,0.3-0.1,0.5-0.2c0.1-0.1,0.2-0.3,0.3-0.4c0-0.2,0.1-0.4,0.1-0.7l1,0c0,0.4,0,0.8-0.1,1.1c-0.1,0.3-0.3,0.6-0.6,0.9
				c-0.4,0.3-0.8,0.5-1.2,0.5c-0.4,0-0.8-0.2-1.1-0.6c-0.2-0.2-0.3-0.4-0.3-0.6c-0.1-0.2-0.1-0.5-0.1-0.7s0.1-0.5,0.2-0.9l0.2-1
				l-1.6,1.4l-0.6-0.7L1280.4,1842.1z"/>
		</g>
		<line id="Line_415_2_" class="st3" x1="1260.2" y1="1812.7" x2="1252.5" y2="1803.6"/>
		<circle id="Ellipse_167_2_" class="st3" cx="1268.5" cy="1822.7" r="4"/>
	</g>
	<g id="Group_606_2_">
		<g class="st1">
			<path class="st2" d="M1445.7,1362.4l0.9-0.2l0.3,2c0.3-0.1,0.5-0.4,0.7-0.6c0.2-0.3,0.2-0.6,0.1-0.9c-0.1-0.5-0.3-0.9-0.7-1.2
				l0.6-0.7c0.6,0.4,0.9,1,1.1,1.7c0.1,0.7,0,1.4-0.4,1.9c-0.4,0.6-0.9,0.9-1.6,1c-0.7,0.1-1.3,0-1.9-0.4c-0.6-0.4-0.9-0.9-1-1.6
				c-0.1-0.5-0.1-0.8,0-1.2c0.1-0.3,0.2-0.7,0.5-1l0.8,0.5c-0.2,0.2-0.3,0.5-0.3,0.7c-0.1,0.2-0.1,0.5,0,0.7
				c0.1,0.3,0.2,0.6,0.5,0.8s0.6,0.3,0.9,0.3L1445.7,1362.4z"/>
			<path class="st2" d="M1446,1366.1l1-0.2l0.4,2.1l-1,0.2L1446,1366.1z"/>
			<path class="st2" d="M1445.1,1370.9c-0.1-0.5,0-1,0.2-1.4c0.2-0.4,0.5-0.6,0.9-0.7c0.5-0.1,1,0.1,1.3,0.6c0.2-0.5,0.5-0.7,1-0.8
				c0.4-0.1,0.7,0,1,0.3s0.5,0.7,0.6,1.2c0.1,0.5,0,0.9-0.2,1.3c-0.2,0.4-0.5,0.6-0.9,0.6c-0.5,0.1-0.8-0.1-1.2-0.4
				c-0.1,0.3-0.2,0.5-0.4,0.7c-0.2,0.2-0.4,0.3-0.7,0.3c-0.4,0.1-0.8,0-1.1-0.3C1445.4,1371.8,1445.2,1371.4,1445.1,1370.9z
				 M1446,1370.7c0,0.3,0.1,0.5,0.3,0.6c0.1,0.1,0.3,0.2,0.5,0.1c0.2,0,0.3-0.1,0.4-0.3c0.1-0.2,0.1-0.4,0.1-0.6
				c0-0.2-0.1-0.4-0.3-0.6c-0.1-0.1-0.3-0.2-0.5-0.2c-0.2,0-0.3,0.1-0.4,0.3C1446,1370.2,1445.9,1370.4,1446,1370.7z M1448.1,1369.8
				c-0.1,0.1-0.1,0.3-0.1,0.5c0,0.2,0.1,0.4,0.3,0.5c0.1,0.1,0.3,0.1,0.5,0.1c0.2,0,0.3-0.1,0.4-0.3c0.1-0.1,0.1-0.3,0.1-0.5
				c0-0.2-0.1-0.4-0.3-0.5c-0.1-0.1-0.3-0.1-0.4-0.1C1448.3,1369.6,1448.2,1369.7,1448.1,1369.8z"/>
			<path class="st2" d="M1446.9,1376.8c-0.5-0.3-0.9-0.8-1-1.4c-0.1-0.6,0-1.2,0.4-1.7c0.4-0.5,1-0.8,1.7-0.9c0.7-0.1,1.3,0,1.9,0.3
				c0.5,0.3,0.9,0.8,1,1.4c0.1,0.6,0,1.2-0.4,1.7c-0.4,0.5-1,0.8-1.7,0.9C1448,1377.2,1447.4,1377.1,1446.9,1376.8z M1447.1,1374.4
				c-0.3,0.2-0.4,0.5-0.3,0.8s0.2,0.5,0.6,0.7c0.3,0.1,0.7,0.2,1.2,0.1c0.4-0.1,0.8-0.2,1-0.5c0.3-0.2,0.4-0.5,0.3-0.8
				c-0.1-0.3-0.2-0.5-0.6-0.7c-0.3-0.1-0.7-0.2-1.2-0.1C1447.7,1374,1447.4,1374.1,1447.1,1374.4z"/>
		</g>
		<line id="Line_417_2_" class="st3" x1="1419.9" y1="1373.9" x2="1408.1" y2="1376"/>
		<circle id="Ellipse_169_2_" class="st3" cx="1432.7" cy="1371.6" r="4"/>
	</g>
	<g id="Group_607_2_">
		<g class="st1">
			<path class="st2" d="M1241.9,1051.2l4.6-2.8l0.8,0.6l-1.2,5.2l-0.9-0.7l0.3-1.2l-1.7-1.2l-1,0.6L1241.9,1051.2z M1244.6,1050.7
				l1.1,0.8l0.4-1.7L1244.6,1050.7z"/>
			<path class="st2" d="M1246.5,1054.6l2.9-4l0.9,0.7l-0.2,2.4l2.3-0.9l0.9,0.7l-2.9,4l-0.9-0.6l1.9-2.6l-2.3,0.9l0,0l0.1-2.5
				l-1.9,2.6L1246.5,1054.6z"/>
			<path class="st2" d="M1254.3,1057.4l2.5-1.4l0.9,0.7l-3.8,2c-0.4,0.2-0.8,0.3-1.1,0.3c-0.3,0-0.6-0.1-0.9-0.3
				c-0.3-0.2-0.5-0.5-0.7-0.9l0.8-0.4c0.1,0.2,0.2,0.3,0.4,0.5c0.2,0.1,0.4,0.2,0.7,0l0.6-4.1l1,0.7L1254.3,1057.4z"/>
			<path class="st2" d="M1255.9,1061.4l2.3-3.1l-0.8-0.3l0.3-0.8l1.4,0.5l0.6,0.4l-2.9,4L1255.9,1061.4z"/>
		</g>
		<line id="Line_418_2_" class="st3" x1="1234.5" y1="1077.2" x2="1227.4" y2="1086.9"/>
		<circle id="Ellipse_170_2_" class="st3" cx="1242.1" cy="1066.7" r="4"/>
	</g>
	<g id="Group_608_2_">
		<g class="st1">
			<path class="st2" d="M1271.4,1073.5l4.8-2.4l0.8,0.6l-1.6,5.1l-0.9-0.7l0.4-1.1l-1.6-1.3l-1,0.6L1271.4,1073.5z M1274.2,1073.2
				l1,0.8l0.5-1.6L1274.2,1073.2z"/>
			<path class="st2" d="M1275.9,1077.2l3.1-3.8l0.9,0.7l-0.3,2.4l2.3-0.8l0.9,0.7l-3.1,3.8l-0.8-0.7l2.1-2.5l-2.4,0.7l0,0l0.3-2.5
				l-2,2.4L1275.9,1077.2z"/>
			<path class="st2" d="M1280.4,1081l4.2-1.6l-1.8-1.5l0.6-0.7l2.7,2.3l-0.5,0.6l-4.3,1.7L1280.4,1081z"/>
		</g>
		<line id="Line_419_2_" class="st3" x1="1260.2" y1="1097.3" x2="1252.5" y2="1106.4"/>
		<circle id="Ellipse_171_2_" class="st3" cx="1268.5" cy="1087.3" r="4"/>
	</g>
	<g id="Group_609_2_">
		<g class="st1">
			<path class="st2" d="M1349.1,1153.3l5.2-1.3l0.6,0.8l-2.7,4.6l-0.7-0.9l0.6-1l-1.2-1.7l-1.1,0.3L1349.1,1153.3z M1351.9,1153.6
				l0.8,1l0.9-1.5L1351.9,1153.6z"/>
			<path class="st2" d="M1352.6,1157.9l3.9-2.9l0.7,0.9l-0.9,2.3l2.4-0.2l0.7,0.9l-3.9,2.9l-0.6-0.9l2.6-1.9l-2.5,0.2l0,0l0.8-2.3
				l-2.5,1.9L1352.6,1157.9z"/>
			<path class="st2" d="M1357.2,1164.1c-0.4-0.5-0.5-1-0.4-1.4c0.1-0.5,0.5-1.1,1.1-1.6c0.6-0.5,1.3-0.7,1.9-0.7
				c0.6,0,1.1,0.3,1.6,0.8c0.3,0.5,0.5,1,0.5,1.5l-1,0c0-0.2,0-0.4-0.1-0.6s-0.1-0.3-0.2-0.5c-0.2-0.2-0.4-0.4-0.7-0.4
				s-0.5,0.1-0.8,0.3c0.4,0.1,0.6,0.3,0.9,0.6c0.3,0.4,0.4,0.8,0.4,1.2c0,0.4-0.2,0.8-0.6,1.1c-0.4,0.3-0.8,0.4-1.3,0.3
				C1357.9,1164.8,1357.5,1164.5,1357.2,1164.1z M1357.7,1162.9c0,0.2,0.1,0.4,0.2,0.6c0.2,0.2,0.3,0.3,0.5,0.4c0.2,0,0.4,0,0.6-0.1
				c0.2-0.1,0.3-0.3,0.3-0.5s-0.1-0.4-0.2-0.6c-0.2-0.2-0.3-0.3-0.5-0.4c-0.2,0-0.4,0-0.6,0.1
				C1357.8,1162.5,1357.7,1162.6,1357.7,1162.9z"/>
		</g>
		<line id="Line_420_2_" class="st3" x1="1333" y1="1174" x2="1323.4" y2="1181.2"/>
		<circle id="Ellipse_172_2_" class="st3" cx="1343.3" cy="1166.1" r="4"/>
	</g>
	<g id="Group_610_2_">
		<g class="st1">
			<path class="st2" d="M1365.4,1175.4l5.3-1l0.6,0.8l-2.9,4.5l-0.6-0.9l0.7-1l-1.2-1.7l-1.2,0.2L1365.4,1175.4z M1368.1,1175.9
				l0.7,1.1l1-1.4L1368.1,1175.9z"/>
			<path class="st2" d="M1368.9,1180.6l3.2-2.2l-0.8-1.2l0.8-0.6l2.3,3.4l-0.8,0.6l-0.8-1.2l-3.2,2.2L1368.9,1180.6z"/>
			<path class="st2" d="M1371,1183.8l3.2-2.1l-0.7-0.6l0.6-0.7l1.1,0.9l0.4,0.6l-4.1,2.8L1371,1183.8z"/>
		</g>
		<line id="Line_421_2_" class="st3" x1="1347.2" y1="1193.9" x2="1337.2" y2="1200.6"/>
		<circle id="Ellipse_173_2_" class="st3" cx="1357.9" cy="1186.6" r="4"/>
	</g>
	<g id="Group_611_2_">
		<g class="st1">
			<path class="st2" d="M854,962.8l1.1-5.2l1-0.2l3,4.4L858,962l-0.6-1l-2,0.4l-0.2,1.2L854,962.8z M855.5,960.4l1.3-0.2l-0.9-1.4
				L855.5,960.4z"/>
			<path class="st2" d="M859.7,961.7l-0.9-4.8l1.1-0.2l1.7,1.8l0.9-2.3l1.1-0.2l0.9,4.8l-1.1,0.2l-0.6-3.1l-1,2.3l0,0l-1.7-1.8
				l0.6,3.1L859.7,961.7z"/>
			<path class="st2" d="M867.6,960.1l-0.2-1l-2.4,0.5l-0.3-0.7l2-3.6l0.9-0.2l0.6,2.9l0.6-0.1l0.2,0.9l-0.6,0.1l0.2,1L867.6,960.1z
				 M866,958.5l1.3-0.2l-0.3-1.5L866,958.5z"/>
			<path class="st2" d="M872.2,959.2l-0.2-1l-2.4,0.5l-0.3-0.7l2-3.6l0.9-0.2l0.6,2.9l0.6-0.1l0.2,0.9L873,958l0.2,1L872.2,959.2z
				 M870.5,957.6l1.3-0.2l-0.3-1.5L870.5,957.6z"/>
		</g>
		<g class="st1">
			<path class="st2" d="M856.5,973.3l1.1-5.2l1-0.2l3,4.4l-1.1,0.2l-0.6-1l-2,0.4l-0.2,1.2L856.5,973.3z M858,970.9l1.3-0.2
				l-0.9-1.4L858,970.9z"/>
			<path class="st2" d="M862.2,972.2l-0.9-4.8l1.1-0.2l1.7,1.8l0.9-2.3l1.1-0.2l0.9,4.8l-1.1,0.2l-0.6-3.1l-1,2.3l0,0l-1.7-1.8
				l0.6,3.1L862.2,972.2z"/>
			<path class="st2" d="M869.5,970.8c-0.8,0.2-1.5,0-2-0.5l0.6-0.8c0.4,0.3,0.8,0.4,1.3,0.4c0.2,0,0.4-0.1,0.5-0.3
				c0.1-0.1,0.1-0.3,0.1-0.5c0-0.2-0.2-0.3-0.3-0.4s-0.4-0.1-0.7,0l-0.4,0.1l-0.3-0.6l0.9-1.4l-1.9,0.4l-0.2-0.9l3.2-0.6l0.2,0.8
				l-1,1.4c0.9,0,1.4,0.3,1.6,1.1c0.1,0.5,0,0.9-0.2,1.2C870.4,970.5,870.1,970.7,869.5,970.8z"/>
			<path class="st2" d="M873.6,970.1c-0.8,0.2-1.5,0-2-0.5l0.6-0.8c0.4,0.3,0.8,0.4,1.3,0.4c0.2,0,0.4-0.1,0.5-0.3
				c0.1-0.1,0.1-0.3,0.1-0.5c0-0.2-0.1-0.3-0.3-0.4s-0.4-0.1-0.7,0l-0.4,0.1l-0.3-0.6l0.9-1.4l-1.9,0.4l-0.2-0.9l3.2-0.6l0.2,0.8
				l-1,1.4c0.9,0,1.4,0.3,1.6,1.1c0.1,0.5,0,0.9-0.3,1.2C874.5,969.7,874.2,970,873.6,970.1z"/>
		</g>
		<line id="Line_422_2_" class="st3" x1="870.9" y1="996.6" x2="873.2" y2="1008.4"/>
		<circle id="Ellipse_174_2_" class="st3" cx="868.4" cy="983.8" r="4"/>
	</g>
	<g id="Group_612_2_">
		<g class="st1">
			<path class="st2" d="M833.4,979.1l0.8-5.3l1-0.2l3.2,4.3l-1.1,0.3l-0.7-1l-2,0.5l-0.2,1.2L833.4,979.1z M834.8,976.7l1.3-0.3
				l-1-1.4L834.8,976.7z"/>
			<path class="st2" d="M839,977.7l-1.2-4.8l1.1-0.3l1.8,1.7l0.7-2.3l1.1-0.3l1.2,4.8l-1,0.3l-0.8-3.1l-0.8,2.4l0,0l-1.8-1.7
				l0.8,3.1L839,977.7z"/>
			<path class="st2" d="M846.4,976c-0.5,0.1-1,0.1-1.4-0.1c-0.4-0.2-0.7-0.5-0.8-0.9c-0.1-0.5,0-1,0.5-1.3c-0.5-0.1-0.8-0.4-0.9-0.9
				c-0.1-0.4,0-0.7,0.2-1c0.2-0.3,0.6-0.6,1.1-0.7c0.5-0.1,0.9-0.1,1.3,0.1c0.4,0.2,0.6,0.4,0.7,0.8c0.1,0.4,0,0.8-0.3,1.2
				c0.3,0.1,0.5,0.2,0.7,0.3c0.2,0.1,0.3,0.3,0.4,0.6c0.1,0.4,0,0.8-0.3,1.2C847.3,975.6,846.9,975.8,846.4,976z M845.1,973
				c0.2,0.1,0.3,0.1,0.5,0c0.2-0.1,0.4-0.1,0.5-0.3c0.1-0.1,0.1-0.3,0.1-0.5c0-0.2-0.1-0.3-0.3-0.3c-0.2-0.1-0.3-0.1-0.5,0
				c-0.2,0.1-0.4,0.1-0.5,0.3c-0.1,0.1-0.1,0.3-0.1,0.4C844.9,972.8,845,973,845.1,973z M846.1,975.1c0.3-0.1,0.4-0.2,0.6-0.3
				c0.1-0.1,0.2-0.3,0.1-0.5c0-0.2-0.2-0.3-0.3-0.4c-0.2-0.1-0.4-0.1-0.6,0c-0.2,0.1-0.4,0.2-0.6,0.3c-0.1,0.1-0.2,0.3-0.1,0.5
				c0,0.2,0.2,0.3,0.3,0.4C845.7,975.2,845.9,975.2,846.1,975.1z"/>
		</g>
		<line id="Line_423_2_" class="st3" x1="847" y1="1001.9" x2="849.9" y2="1013.5"/>
		<circle id="Ellipse_175_2_" class="st3" cx="843.9" cy="989.3" r="4"/>
	</g>
	<g id="Group_613_2_">
		<line id="Line_425_2_" class="st4" x1="960" y1="988" x2="960" y2="994"/>
		<line id="Line_426_2_" class="st4" x1="951.8" y1="988.1" x2="952" y2="994.1"/>
		<line id="Line_427_2_" class="st4" x1="943.7" y1="988.3" x2="943.9" y2="994.3"/>
		<line id="Line_428_2_" class="st4" x1="935.6" y1="988.6" x2="935.9" y2="994.6"/>
		<line id="Line_429_2_" class="st4" x1="927.4" y1="989.1" x2="927.8" y2="995.1"/>
		<line id="Line_430_2_" class="st4" x1="919.3" y1="989.8" x2="919.8" y2="995.8"/>
		<line id="Line_431_2_" class="st4" x1="911.2" y1="990.6" x2="911.8" y2="996.5"/>
		<line id="Line_432_2_" class="st4" x1="903.1" y1="991.5" x2="903.8" y2="997.4"/>
		<line id="Line_433_2_" class="st4" x1="895" y1="992.5" x2="895.8" y2="998.5"/>
		<line id="Line_434_2_" class="st4" x1="886.9" y1="993.8" x2="887.9" y2="999.7"/>
		<line id="Line_435_2_" class="st4" x1="878.9" y1="995.1" x2="879.9" y2="1001"/>
		<line id="Line_436_2_" class="st4" x1="870.9" y1="996.6" x2="872" y2="1002.5"/>
		<line id="Line_437_2_" class="st4" x1="862.9" y1="998.2" x2="864.2" y2="1004.1"/>
		<line id="Line_438_2_" class="st4" x1="854.9" y1="1000" x2="856.3" y2="1005.8"/>
		<line id="Line_439_2_" class="st4" x1="847" y1="1001.9" x2="848.5" y2="1007.7"/>
		<line id="Line_440_2_" class="st4" x1="839.1" y1="1003.9" x2="840.7" y2="1009.7"/>
		<line id="Line_441_2_" class="st4" x1="831.3" y1="1006.1" x2="832.9" y2="1011.9"/>
		<line id="Line_442_2_" class="st4" x1="823.5" y1="1008.4" x2="825.2" y2="1014.1"/>
		<line id="Line_443_2_" class="st4" x1="815.7" y1="1010.9" x2="817.5" y2="1016.6"/>
		<line id="Line_444_2_" class="st4" x1="808" y1="1013.4" x2="809.9" y2="1019.1"/>
		<line id="Line_445_2_" class="st4" x1="800.3" y1="1016.2" x2="802.3" y2="1021.8"/>
		<line id="Line_446_2_" class="st4" x1="792.6" y1="1019" x2="794.8" y2="1024.6"/>
		<line id="Line_447_2_" class="st4" x1="785.1" y1="1022" x2="787.3" y2="1027.6"/>
		<line id="Line_448_2_" class="st4" x1="777.5" y1="1025.1" x2="779.9" y2="1030.6"/>
		<line id="Line_449_2_" class="st4" x1="770.1" y1="1028.4" x2="772.5" y2="1033.9"/>
		<line id="Line_450_2_" class="st4" x1="762.6" y1="1031.8" x2="765.2" y2="1037.2"/>
		<line id="Line_451_2_" class="st4" x1="755.3" y1="1035.3" x2="757.9" y2="1040.7"/>
		<line id="Line_452_2_" class="st4" x1="748" y1="1038.9" x2="750.7" y2="1044.2"/>
		<line id="Line_453_2_" class="st4" x1="740.8" y1="1042.7" x2="743.6" y2="1048"/>
		<line id="Line_454_2_" class="st4" x1="733.6" y1="1046.6" x2="736.5" y2="1051.8"/>
		<line id="Line_455_2_" class="st4" x1="726.5" y1="1050.6" x2="729.5" y2="1055.8"/>
		<line id="Line_456_2_" class="st4" x1="719.5" y1="1054.7" x2="722.6" y2="1059.8"/>
		<line id="Line_457_2_" class="st4" x1="712.5" y1="1059" x2="715.7" y2="1064.1"/>
		<line id="Line_458_2_" class="st4" x1="705.7" y1="1063.3" x2="708.9" y2="1068.4"/>
		<line id="Line_459_2_" class="st4" x1="698.9" y1="1067.8" x2="702.2" y2="1072.8"/>
		<line id="Line_460_2_" class="st4" x1="692.1" y1="1072.5" x2="695.6" y2="1077.4"/>
		<line id="Line_461_2_" class="st4" x1="685.5" y1="1077.2" x2="689" y2="1082"/>
		<line id="Line_462_2_" class="st4" x1="679" y1="1082" x2="682.6" y2="1086.8"/>
		<line id="Line_463_2_" class="st4" x1="672.5" y1="1087" x2="676.2" y2="1091.7"/>
		<line id="Line_464_2_" class="st4" x1="666.1" y1="1092.1" x2="669.9" y2="1096.7"/>
		<line id="Line_465_2_" class="st4" x1="659.8" y1="1097.3" x2="663.7" y2="1101.9"/>
		<line id="Line_466_2_" class="st4" x1="653.6" y1="1102.6" x2="657.6" y2="1107.1"/>
		<line id="Line_467_2_" class="st4" x1="647.5" y1="1108" x2="651.5" y2="1112.4"/>
		<line id="Line_468_2_" class="st4" x1="641.5" y1="1113.5" x2="645.6" y2="1117.8"/>
		<line id="Line_469_2_" class="st4" x1="635.6" y1="1119.1" x2="639.8" y2="1123.4"/>
		<line id="Line_470_2_" class="st4" x1="629.8" y1="1124.8" x2="634" y2="1129"/>
		<line id="Line_471_2_" class="st4" x1="624.1" y1="1130.6" x2="628.4" y2="1134.8"/>
		<line id="Line_472_2_" class="st4" x1="618.5" y1="1136.5" x2="622.8" y2="1140.6"/>
		<line id="Line_473_2_" class="st4" x1="613" y1="1142.5" x2="617.4" y2="1146.5"/>
		<line id="Line_474_2_" class="st4" x1="607.6" y1="1148.6" x2="612.1" y2="1152.6"/>
		<line id="Line_475_2_" class="st4" x1="602.3" y1="1154.8" x2="606.9" y2="1158.7"/>
		<line id="Line_476_2_" class="st4" x1="597.1" y1="1161.1" x2="601.7" y2="1164.9"/>
		<line id="Line_477_2_" class="st4" x1="592" y1="1167.5" x2="596.7" y2="1171.2"/>
		<line id="Line_478_2_" class="st4" x1="587" y1="1174" x2="591.8" y2="1177.6"/>
		<line id="Line_479_2_" class="st4" x1="582.2" y1="1180.5" x2="587" y2="1184"/>
		<line id="Line_480_2_" class="st4" x1="577.5" y1="1187.1" x2="582.4" y2="1190.6"/>
		<line id="Line_481_2_" class="st4" x1="572.8" y1="1193.9" x2="577.8" y2="1197.2"/>
		<line id="Line_482_2_" class="st4" x1="568.3" y1="1200.7" x2="573.4" y2="1203.9"/>
		<line id="Line_483_2_" class="st4" x1="564" y1="1207.5" x2="569" y2="1210.7"/>
		<line id="Line_484_2_" class="st4" x1="559.7" y1="1214.5" x2="564.8" y2="1217.6"/>
		<line id="Line_485_2_" class="st4" x1="555.6" y1="1221.5" x2="560.8" y2="1224.5"/>
		<line id="Line_486_2_" class="st4" x1="551.6" y1="1228.6" x2="556.8" y2="1231.5"/>
		<line id="Line_487_2_" class="st4" x1="547.7" y1="1235.8" x2="553" y2="1238.6"/>
		<line id="Line_488_2_" class="st4" x1="543.9" y1="1243" x2="549.2" y2="1245.7"/>
		<line id="Line_489_2_" class="st4" x1="540.3" y1="1250.3" x2="545.7" y2="1252.9"/>
		<line id="Line_490_2_" class="st4" x1="536.8" y1="1257.6" x2="542.2" y2="1260.2"/>
		<line id="Line_491_2_" class="st4" x1="533.4" y1="1265.1" x2="538.9" y2="1267.5"/>
		<line id="Line_492_2_" class="st4" x1="530.1" y1="1272.5" x2="535.6" y2="1274.9"/>
		<line id="Line_493_2_" class="st4" x1="527" y1="1280.1" x2="532.6" y2="1282.3"/>
		<line id="Line_494_2_" class="st4" x1="524" y1="1287.6" x2="529.6" y2="1289.8"/>
		<line id="Line_495_2_" class="st4" x1="521.2" y1="1295.3" x2="526.8" y2="1297.3"/>
		<line id="Line_496_2_" class="st4" x1="518.4" y1="1303" x2="524.1" y2="1304.9"/>
		<line id="Line_497_2_" class="st4" x1="515.9" y1="1310.7" x2="521.6" y2="1312.5"/>
		<line id="Line_498_2_" class="st4" x1="513.4" y1="1318.5" x2="519.1" y2="1320.2"/>
		<line id="Line_499_2_" class="st4" x1="511.1" y1="1326.3" x2="516.9" y2="1327.9"/>
		<line id="Line_500_2_" class="st4" x1="508.9" y1="1334.1" x2="514.7" y2="1335.7"/>
		<line id="Line_501_2_" class="st4" x1="506.9" y1="1342" x2="512.7" y2="1343.5"/>
		<line id="Line_502_2_" class="st4" x1="505" y1="1349.9" x2="510.8" y2="1351.3"/>
		<line id="Line_503_2_" class="st4" x1="503.2" y1="1357.9" x2="509.1" y2="1359.2"/>
		<line id="Line_504_2_" class="st4" x1="501.6" y1="1365.9" x2="507.5" y2="1367"/>
		<line id="Line_505_2_" class="st4" x1="500.1" y1="1373.9" x2="506" y2="1374.9"/>
		<line id="Line_506_2_" class="st4" x1="498.8" y1="1381.9" x2="504.7" y2="1382.9"/>
		<line id="Line_507_2_" class="st4" x1="497.5" y1="1390" x2="503.5" y2="1390.8"/>
		<line id="Line_508_2_" class="st4" x1="496.5" y1="1398.1" x2="502.4" y2="1398.8"/>
		<line id="Line_509_2_" class="st4" x1="495.6" y1="1406.2" x2="501.5" y2="1406.8"/>
		<line id="Line_510_2_" class="st4" x1="494.8" y1="1414.3" x2="500.8" y2="1414.8"/>
		<line id="Line_511_2_" class="st4" x1="494.1" y1="1422.4" x2="500.1" y2="1422.8"/>
		<line id="Line_512_2_" class="st4" x1="493.6" y1="1430.6" x2="499.6" y2="1430.9"/>
		<line id="Line_513_2_" class="st4" x1="493.3" y1="1438.7" x2="499.3" y2="1438.9"/>
		<line id="Line_514_2_" class="st4" x1="493.1" y1="1446.8" x2="499.1" y2="1447"/>
		<line id="Line_515_2_" class="st4" x1="493" y1="1455" x2="499" y2="1455"/>
		<line id="Line_516_2_" class="st4" x1="493.1" y1="1463.2" x2="499.1" y2="1463"/>
		<line id="Line_517_2_" class="st4" x1="493.3" y1="1471.3" x2="499.3" y2="1471.1"/>
		<line id="Line_518_2_" class="st4" x1="493.6" y1="1479.4" x2="499.6" y2="1479.1"/>
		<line id="Line_519_2_" class="st4" x1="494.1" y1="1487.6" x2="500.1" y2="1487.2"/>
		<line id="Line_520_2_" class="st4" x1="494.8" y1="1495.7" x2="500.8" y2="1495.2"/>
		<line id="Line_521_2_" class="st4" x1="495.6" y1="1503.8" x2="501.5" y2="1503.2"/>
		<line id="Line_522_2_" class="st4" x1="496.5" y1="1511.9" x2="502.4" y2="1511.2"/>
		<line id="Line_523_2_" class="st4" x1="497.5" y1="1520" x2="503.5" y2="1519.2"/>
		<line id="Line_524_2_" class="st4" x1="498.8" y1="1528.1" x2="504.7" y2="1527.1"/>
		<line id="Line_525_2_" class="st4" x1="500.1" y1="1536.1" x2="506" y2="1535.1"/>
		<line id="Line_526_2_" class="st4" x1="501.6" y1="1544.1" x2="507.5" y2="1543"/>
		<line id="Line_527_2_" class="st4" x1="503.2" y1="1552.1" x2="509.1" y2="1550.8"/>
		<line id="Line_528_2_" class="st4" x1="505" y1="1560.1" x2="510.8" y2="1558.7"/>
		<line id="Line_529_2_" class="st4" x1="506.9" y1="1568" x2="512.7" y2="1566.5"/>
		<line id="Line_530_2_" class="st4" x1="508.9" y1="1575.9" x2="514.7" y2="1574.3"/>
		<line id="Line_531_2_" class="st4" x1="511.1" y1="1583.7" x2="516.9" y2="1582.1"/>
		<line id="Line_532_2_" class="st4" x1="513.4" y1="1591.5" x2="519.1" y2="1589.8"/>
		<line id="Line_533_2_" class="st4" x1="515.9" y1="1599.3" x2="521.6" y2="1597.5"/>
		<line id="Line_534_2_" class="st4" x1="518.4" y1="1607" x2="524.1" y2="1605.1"/>
		<line id="Line_535_2_" class="st4" x1="521.2" y1="1614.7" x2="526.8" y2="1612.7"/>
		<line id="Line_536_2_" class="st4" x1="524" y1="1622.4" x2="529.6" y2="1620.2"/>
		<line id="Line_537_2_" class="st4" x1="527" y1="1629.9" x2="532.6" y2="1627.7"/>
		<line id="Line_538_2_" class="st4" x1="530.1" y1="1637.5" x2="535.6" y2="1635.1"/>
		<line id="Line_539_2_" class="st4" x1="533.4" y1="1644.9" x2="538.9" y2="1642.5"/>
		<line id="Line_540_2_" class="st4" x1="536.8" y1="1652.4" x2="542.2" y2="1649.8"/>
		<line id="Line_541_2_" class="st4" x1="540.3" y1="1659.7" x2="545.7" y2="1657.1"/>
		<line id="Line_542_2_" class="st4" x1="543.9" y1="1667" x2="549.2" y2="1664.3"/>
		<line id="Line_543_2_" class="st4" x1="547.7" y1="1674.2" x2="553" y2="1671.4"/>
		<line id="Line_544_2_" class="st4" x1="551.6" y1="1681.4" x2="556.8" y2="1678.5"/>
		<line id="Line_545_2_" class="st4" x1="555.6" y1="1688.5" x2="560.8" y2="1685.5"/>
		<line id="Line_546_2_" class="st4" x1="559.7" y1="1695.5" x2="564.8" y2="1692.4"/>
		<line id="Line_547_2_" class="st4" x1="564" y1="1702.5" x2="569" y2="1699.3"/>
		<line id="Line_548_2_" class="st4" x1="568.3" y1="1709.3" x2="573.4" y2="1706.1"/>
		<line id="Line_549_2_" class="st4" x1="572.8" y1="1716.1" x2="577.8" y2="1712.8"/>
		<line id="Line_550_2_" class="st4" x1="577.5" y1="1722.9" x2="582.4" y2="1719.4"/>
		<line id="Line_551_2_" class="st4" x1="582.2" y1="1729.5" x2="587" y2="1726"/>
		<line id="Line_552_2_" class="st4" x1="587" y1="1736" x2="591.8" y2="1732.4"/>
		<line id="Line_553_2_" class="st4" x1="592" y1="1742.5" x2="596.7" y2="1738.8"/>
		<line id="Line_554_2_" class="st4" x1="597.1" y1="1748.9" x2="601.7" y2="1745.1"/>
		<line id="Line_555_2_" class="st4" x1="602.3" y1="1755.2" x2="606.9" y2="1751.3"/>
		<line id="Line_556_2_" class="st4" x1="607.6" y1="1761.4" x2="612.1" y2="1757.4"/>
		<line id="Line_557_2_" class="st4" x1="613" y1="1767.5" x2="617.4" y2="1763.5"/>
		<line id="Line_558_2_" class="st4" x1="618.5" y1="1773.5" x2="622.8" y2="1769.4"/>
		<line id="Line_559_2_" class="st4" x1="624.1" y1="1779.4" x2="628.4" y2="1775.2"/>
		<line id="Line_560_2_" class="st4" x1="629.8" y1="1785.2" x2="634" y2="1781"/>
		<line id="Line_561_2_" class="st4" x1="635.6" y1="1790.9" x2="639.8" y2="1786.6"/>
		<line id="Line_562_2_" class="st4" x1="641.5" y1="1796.5" x2="645.6" y2="1792.2"/>
		<line id="Line_563_2_" class="st4" x1="647.5" y1="1802" x2="651.5" y2="1797.6"/>
		<line id="Line_564_2_" class="st4" x1="653.6" y1="1807.4" x2="657.6" y2="1802.9"/>
		<line id="Line_565_2_" class="st4" x1="659.8" y1="1812.7" x2="663.7" y2="1808.1"/>
		<line id="Line_566_2_" class="st4" x1="666.1" y1="1817.9" x2="669.9" y2="1813.3"/>
		<line id="Line_567_2_" class="st4" x1="672.5" y1="1823" x2="676.2" y2="1818.3"/>
		<line id="Line_568_2_" class="st4" x1="679" y1="1828" x2="682.6" y2="1823.2"/>
		<line id="Line_569_2_" class="st4" x1="685.5" y1="1832.8" x2="689" y2="1828"/>
		<line id="Line_570_2_" class="st4" x1="692.1" y1="1837.5" x2="695.6" y2="1832.6"/>
		<line id="Line_571_2_" class="st4" x1="698.9" y1="1842.2" x2="702.2" y2="1837.2"/>
		<line id="Line_572_2_" class="st4" x1="705.7" y1="1846.7" x2="708.9" y2="1841.6"/>
		<line id="Line_573_2_" class="st4" x1="712.5" y1="1851" x2="715.7" y2="1845.9"/>
		<line id="Line_574_2_" class="st4" x1="719.5" y1="1855.3" x2="722.6" y2="1850.2"/>
		<line id="Line_575_2_" class="st4" x1="726.5" y1="1859.4" x2="729.5" y2="1854.2"/>
		<line id="Line_576_2_" class="st4" x1="733.6" y1="1863.4" x2="736.5" y2="1858.2"/>
		<line id="Line_577_2_" class="st4" x1="740.8" y1="1867.3" x2="743.6" y2="1862"/>
		<line id="Line_578_2_" class="st4" x1="748" y1="1871.1" x2="750.7" y2="1865.8"/>
		<line id="Line_579_2_" class="st4" x1="755.3" y1="1874.7" x2="757.9" y2="1869.3"/>
		<line id="Line_580_2_" class="st4" x1="762.6" y1="1878.2" x2="765.2" y2="1872.8"/>
		<line id="Line_581_2_" class="st4" x1="770.1" y1="1881.6" x2="772.5" y2="1876.1"/>
		<line id="Line_582_2_" class="st4" x1="777.5" y1="1884.9" x2="779.9" y2="1879.4"/>
		<line id="Line_583_2_" class="st4" x1="785.1" y1="1888" x2="787.3" y2="1882.4"/>
		<line id="Line_584_2_" class="st4" x1="792.6" y1="1891" x2="794.8" y2="1885.4"/>
		<line id="Line_585_2_" class="st4" x1="800.3" y1="1893.8" x2="802.3" y2="1888.2"/>
		<line id="Line_586_2_" class="st4" x1="808" y1="1896.6" x2="809.9" y2="1890.9"/>
		<line id="Line_587_2_" class="st4" x1="815.7" y1="1899.1" x2="817.5" y2="1893.4"/>
		<line id="Line_588_2_" class="st4" x1="823.5" y1="1901.6" x2="825.2" y2="1895.9"/>
		<line id="Line_589_2_" class="st4" x1="831.3" y1="1903.9" x2="832.9" y2="1898.1"/>
		<line id="Line_590_2_" class="st4" x1="839.1" y1="1906.1" x2="840.7" y2="1900.3"/>
		<line id="Line_591_2_" class="st4" x1="847" y1="1908.1" x2="848.5" y2="1902.3"/>
		<line id="Line_592_2_" class="st4" x1="854.9" y1="1910" x2="856.3" y2="1904.2"/>
		<line id="Line_593_2_" class="st4" x1="862.9" y1="1911.8" x2="864.2" y2="1905.9"/>
		<line id="Line_594_2_" class="st4" x1="870.9" y1="1913.4" x2="872" y2="1907.5"/>
		<line id="Line_595_2_" class="st4" x1="878.9" y1="1914.9" x2="879.9" y2="1909"/>
		<line id="Line_596_2_" class="st4" x1="886.9" y1="1916.2" x2="887.9" y2="1910.3"/>
		<line id="Line_597_2_" class="st4" x1="895" y1="1917.5" x2="895.8" y2="1911.5"/>
		<line id="Line_598_2_" class="st4" x1="903.1" y1="1918.5" x2="903.8" y2="1912.6"/>
		<line id="Line_599_2_" class="st4" x1="911.2" y1="1919.4" x2="911.8" y2="1913.5"/>
		<line id="Line_600_2_" class="st4" x1="919.3" y1="1920.2" x2="919.8" y2="1914.2"/>
		<line id="Line_601_2_" class="st4" x1="927.4" y1="1920.9" x2="927.8" y2="1914.9"/>
		<line id="Line_602_2_" class="st4" x1="935.6" y1="1921.4" x2="935.9" y2="1915.4"/>
		<line id="Line_603_2_" class="st4" x1="943.7" y1="1921.7" x2="943.9" y2="1915.7"/>
		<line id="Line_604_2_" class="st4" x1="951.8" y1="1921.9" x2="952" y2="1915.9"/>
		<line id="Line_605_2_" class="st4" x1="960" y1="1922" x2="960" y2="1916"/>
		<line id="Line_606_2_" class="st4" x1="968.2" y1="1921.9" x2="968" y2="1915.9"/>
		<line id="Line_607_2_" class="st4" x1="976.3" y1="1921.7" x2="976.1" y2="1915.7"/>
		<line id="Line_608_2_" class="st4" x1="984.4" y1="1921.4" x2="984.1" y2="1915.4"/>
		<line id="Line_609_2_" class="st4" x1="992.6" y1="1920.9" x2="992.2" y2="1914.9"/>
		<line id="Line_610_2_" class="st4" x1="1000.7" y1="1920.2" x2="1000.2" y2="1914.2"/>
		<line id="Line_611_2_" class="st4" x1="1008.8" y1="1919.4" x2="1008.2" y2="1913.5"/>
		<line id="Line_612_2_" class="st4" x1="1016.9" y1="1918.5" x2="1016.2" y2="1912.6"/>
		<line id="Line_613_2_" class="st4" x1="1025" y1="1917.5" x2="1024.2" y2="1911.5"/>
		<line id="Line_614_2_" class="st4" x1="1033.1" y1="1916.2" x2="1032.1" y2="1910.3"/>
		<line id="Line_615_2_" class="st4" x1="1041.1" y1="1914.9" x2="1040.1" y2="1909"/>
		<line id="Line_616_2_" class="st4" x1="1049.1" y1="1913.4" x2="1048" y2="1907.5"/>
		<line id="Line_617_2_" class="st4" x1="1057.1" y1="1911.8" x2="1055.8" y2="1905.9"/>
		<line id="Line_618_2_" class="st4" x1="1065.1" y1="1910" x2="1063.7" y2="1904.2"/>
		<line id="Line_619_2_" class="st4" x1="1073" y1="1908.1" x2="1071.5" y2="1902.3"/>
		<line id="Line_620_2_" class="st4" x1="1080.9" y1="1906.1" x2="1079.3" y2="1900.3"/>
		<line id="Line_621_2_" class="st4" x1="1088.7" y1="1903.9" x2="1087.1" y2="1898.1"/>
		<line id="Line_622_2_" class="st4" x1="1096.5" y1="1901.6" x2="1094.8" y2="1895.9"/>
		<line id="Line_623_2_" class="st4" x1="1104.3" y1="1899.1" x2="1102.5" y2="1893.4"/>
		<line id="Line_624_2_" class="st4" x1="1112" y1="1896.6" x2="1110.1" y2="1890.9"/>
		<line id="Line_625_2_" class="st4" x1="1119.7" y1="1893.8" x2="1117.7" y2="1888.2"/>
		<line id="Line_626_2_" class="st4" x1="1127.4" y1="1891" x2="1125.2" y2="1885.4"/>
		<line id="Line_627_2_" class="st4" x1="1134.9" y1="1888" x2="1132.7" y2="1882.4"/>
		<line id="Line_628_2_" class="st4" x1="1142.5" y1="1884.9" x2="1140.1" y2="1879.4"/>
		<line id="Line_629_2_" class="st4" x1="1149.9" y1="1881.6" x2="1147.5" y2="1876.1"/>
		<line id="Line_630_2_" class="st4" x1="1157.4" y1="1878.2" x2="1154.8" y2="1872.8"/>
		<line id="Line_631_2_" class="st4" x1="1164.7" y1="1874.7" x2="1162.1" y2="1869.3"/>
		<line id="Line_632_2_" class="st4" x1="1172" y1="1871.1" x2="1169.3" y2="1865.8"/>
		<line id="Line_633_2_" class="st4" x1="1179.2" y1="1867.3" x2="1176.4" y2="1862"/>
		<line id="Line_634_2_" class="st4" x1="1186.4" y1="1863.4" x2="1183.5" y2="1858.2"/>
		<line id="Line_635_2_" class="st4" x1="1193.5" y1="1859.4" x2="1190.5" y2="1854.2"/>
		<line id="Line_636_2_" class="st4" x1="1200.5" y1="1855.3" x2="1197.4" y2="1850.2"/>
		<line id="Line_637_2_" class="st4" x1="1207.5" y1="1851" x2="1204.3" y2="1845.9"/>
		<line id="Line_638_2_" class="st4" x1="1214.3" y1="1846.7" x2="1211.1" y2="1841.6"/>
		<line id="Line_639_2_" class="st4" x1="1221.1" y1="1842.2" x2="1217.8" y2="1837.2"/>
		<line id="Line_640_2_" class="st4" x1="1227.9" y1="1837.5" x2="1224.4" y2="1832.6"/>
		<line id="Line_641_2_" class="st4" x1="1234.5" y1="1832.8" x2="1231" y2="1828"/>
		<line id="Line_642_2_" class="st4" x1="1241" y1="1828" x2="1237.4" y2="1823.2"/>
		<line id="Line_643_2_" class="st4" x1="1247.5" y1="1823" x2="1243.8" y2="1818.3"/>
		<line id="Line_644_2_" class="st4" x1="1253.9" y1="1817.9" x2="1250.1" y2="1813.3"/>
		<line id="Line_645_2_" class="st4" x1="1260.2" y1="1812.7" x2="1256.3" y2="1808.1"/>
		<line id="Line_646_2_" class="st4" x1="1266.4" y1="1807.4" x2="1262.4" y2="1802.9"/>
		<line id="Line_647_2_" class="st4" x1="1272.5" y1="1802" x2="1268.5" y2="1797.6"/>
		<line id="Line_648_2_" class="st4" x1="1278.5" y1="1796.5" x2="1274.4" y2="1792.2"/>
		<line id="Line_649_2_" class="st4" x1="1284.4" y1="1790.9" x2="1280.2" y2="1786.6"/>
		<line id="Line_650_2_" class="st4" x1="1290.2" y1="1785.2" x2="1286" y2="1781"/>
		<line id="Line_651_2_" class="st4" x1="1295.9" y1="1779.4" x2="1291.6" y2="1775.2"/>
		<line id="Line_652_2_" class="st4" x1="1301.5" y1="1773.5" x2="1297.2" y2="1769.4"/>
		<line id="Line_653_2_" class="st4" x1="1307" y1="1767.5" x2="1302.6" y2="1763.5"/>
		<line id="Line_654_2_" class="st4" x1="1312.4" y1="1761.4" x2="1307.9" y2="1757.4"/>
		<line id="Line_655_2_" class="st4" x1="1317.7" y1="1755.2" x2="1313.1" y2="1751.3"/>
		<line id="Line_656_2_" class="st4" x1="1322.9" y1="1748.9" x2="1318.3" y2="1745.1"/>
		<line id="Line_657_2_" class="st4" x1="1328" y1="1742.5" x2="1323.3" y2="1738.8"/>
		<line id="Line_658_2_" class="st4" x1="1333" y1="1736" x2="1328.2" y2="1732.4"/>
		<line id="Line_659_2_" class="st4" x1="1337.8" y1="1729.5" x2="1333" y2="1726"/>
		<line id="Line_660_2_" class="st4" x1="1342.5" y1="1722.9" x2="1337.6" y2="1719.4"/>
		<line id="Line_661_2_" class="st4" x1="1347.2" y1="1716.1" x2="1342.2" y2="1712.8"/>
		<line id="Line_662_2_" class="st4" x1="1351.7" y1="1709.3" x2="1346.6" y2="1706.1"/>
		<line id="Line_663_2_" class="st4" x1="1356" y1="1702.5" x2="1350.9" y2="1699.3"/>
		<line id="Line_664_2_" class="st4" x1="1360.3" y1="1695.5" x2="1355.2" y2="1692.4"/>
		<line id="Line_665_2_" class="st4" x1="1364.4" y1="1688.5" x2="1359.2" y2="1685.5"/>
		<line id="Line_666_2_" class="st4" x1="1368.4" y1="1681.4" x2="1363.2" y2="1678.5"/>
		<line id="Line_667_2_" class="st4" x1="1372.3" y1="1674.2" x2="1367" y2="1671.4"/>
		<line id="Line_668_2_" class="st4" x1="1376.1" y1="1667" x2="1370.8" y2="1664.3"/>
		<line id="Line_669_2_" class="st4" x1="1379.7" y1="1659.7" x2="1374.3" y2="1657.1"/>
		<line id="Line_670_2_" class="st4" x1="1383.2" y1="1652.4" x2="1377.8" y2="1649.8"/>
		<line id="Line_671_2_" class="st4" x1="1386.6" y1="1644.9" x2="1381.1" y2="1642.5"/>
		<line id="Line_672_2_" class="st4" x1="1389.9" y1="1637.5" x2="1384.4" y2="1635.1"/>
		<line id="Line_673_2_" class="st4" x1="1393" y1="1629.9" x2="1387.4" y2="1627.7"/>
		<line id="Line_674_2_" class="st4" x1="1396" y1="1622.4" x2="1390.4" y2="1620.2"/>
		<line id="Line_675_2_" class="st4" x1="1398.8" y1="1614.7" x2="1393.2" y2="1612.7"/>
		<line id="Line_676_2_" class="st4" x1="1401.6" y1="1607" x2="1395.9" y2="1605.1"/>
		<line id="Line_677_2_" class="st4" x1="1404.1" y1="1599.3" x2="1398.4" y2="1597.5"/>
		<line id="Line_678_2_" class="st4" x1="1406.6" y1="1591.5" x2="1400.9" y2="1589.8"/>
		<line id="Line_679_2_" class="st4" x1="1408.9" y1="1583.7" x2="1403.1" y2="1582.1"/>
		<line id="Line_680_2_" class="st4" x1="1411.1" y1="1575.9" x2="1405.3" y2="1574.3"/>
		<line id="Line_681_2_" class="st4" x1="1413.1" y1="1568" x2="1407.3" y2="1566.5"/>
		<line id="Line_682_2_" class="st4" x1="1415" y1="1560.1" x2="1409.2" y2="1558.7"/>
		<line id="Line_683_2_" class="st4" x1="1416.8" y1="1552.1" x2="1410.9" y2="1550.8"/>
		<line id="Line_684_2_" class="st4" x1="1418.4" y1="1544.1" x2="1412.5" y2="1543"/>
		<line id="Line_685_2_" class="st4" x1="1419.9" y1="1536.1" x2="1414" y2="1535.1"/>
		<line id="Line_686_2_" class="st4" x1="1421.2" y1="1528.1" x2="1415.3" y2="1527.1"/>
		<line id="Line_687_2_" class="st4" x1="1422.5" y1="1520" x2="1416.5" y2="1519.2"/>
		<line id="Line_688_2_" class="st4" x1="1423.5" y1="1511.9" x2="1417.6" y2="1511.2"/>
		<line id="Line_689_2_" class="st4" x1="1424.4" y1="1503.8" x2="1418.5" y2="1503.2"/>
		<line id="Line_690_2_" class="st4" x1="1425.2" y1="1495.7" x2="1419.2" y2="1495.2"/>
		<line id="Line_691_2_" class="st4" x1="1425.9" y1="1487.6" x2="1419.9" y2="1487.2"/>
		<line id="Line_692_2_" class="st4" x1="1426.4" y1="1479.4" x2="1420.4" y2="1479.1"/>
		<line id="Line_693_2_" class="st4" x1="1426.7" y1="1471.3" x2="1420.7" y2="1471.1"/>
		<line id="Line_694_2_" class="st4" x1="1426.9" y1="1463.2" x2="1420.9" y2="1463"/>
		<line id="Line_695_2_" class="st4" x1="1427" y1="1455" x2="1421" y2="1455"/>
		<line id="Line_696_2_" class="st4" x1="1426.9" y1="1446.8" x2="1420.9" y2="1447"/>
		<line id="Line_697_2_" class="st4" x1="1426.7" y1="1438.7" x2="1420.7" y2="1438.9"/>
		<line id="Line_698_2_" class="st4" x1="1426.4" y1="1430.6" x2="1420.4" y2="1430.9"/>
		<line id="Line_699_2_" class="st4" x1="1425.9" y1="1422.4" x2="1419.9" y2="1422.8"/>
		<line id="Line_700_2_" class="st4" x1="1425.2" y1="1414.3" x2="1419.2" y2="1414.8"/>
		<line id="Line_701_2_" class="st4" x1="1424.4" y1="1406.2" x2="1418.5" y2="1406.8"/>
		<line id="Line_702_2_" class="st4" x1="1423.5" y1="1398.1" x2="1417.6" y2="1398.8"/>
		<line id="Line_703_2_" class="st4" x1="1422.5" y1="1390" x2="1416.5" y2="1390.8"/>
		<line id="Line_704_2_" class="st4" x1="1421.2" y1="1381.9" x2="1415.3" y2="1382.9"/>
		<line id="Line_705_2_" class="st4" x1="1419.9" y1="1373.9" x2="1414" y2="1374.9"/>
		<line id="Line_706_2_" class="st4" x1="1418.4" y1="1365.9" x2="1412.5" y2="1367"/>
		<line id="Line_707_2_" class="st4" x1="1416.8" y1="1357.9" x2="1410.9" y2="1359.2"/>
		<line id="Line_708_2_" class="st4" x1="1415" y1="1349.9" x2="1409.2" y2="1351.3"/>
		<line id="Line_709_2_" class="st4" x1="1413.1" y1="1342" x2="1407.3" y2="1343.5"/>
		<line id="Line_710_2_" class="st4" x1="1411.1" y1="1334.1" x2="1405.3" y2="1335.7"/>
		<line id="Line_711_2_" class="st4" x1="1408.9" y1="1326.3" x2="1403.1" y2="1327.9"/>
		<line id="Line_712_2_" class="st4" x1="1406.6" y1="1318.5" x2="1400.9" y2="1320.2"/>
		<line id="Line_713_2_" class="st4" x1="1404.1" y1="1310.7" x2="1398.4" y2="1312.5"/>
		<line id="Line_714_2_" class="st4" x1="1401.6" y1="1303" x2="1395.9" y2="1304.9"/>
		<line id="Line_715_2_" class="st4" x1="1398.8" y1="1295.3" x2="1393.2" y2="1297.3"/>
		<line id="Line_716_2_" class="st4" x1="1396" y1="1287.6" x2="1390.4" y2="1289.8"/>
		<line id="Line_717_2_" class="st4" x1="1393" y1="1280.1" x2="1387.4" y2="1282.3"/>
		<line id="Line_718_2_" class="st4" x1="1389.9" y1="1272.5" x2="1384.4" y2="1274.9"/>
		<line id="Line_719_2_" class="st4" x1="1386.6" y1="1265.1" x2="1381.1" y2="1267.5"/>
		<line id="Line_720_2_" class="st4" x1="1383.2" y1="1257.6" x2="1377.8" y2="1260.2"/>
		<line id="Line_721_2_" class="st4" x1="1379.7" y1="1250.3" x2="1374.3" y2="1252.9"/>
		<line id="Line_722_2_" class="st4" x1="1376.1" y1="1243" x2="1370.8" y2="1245.7"/>
		<line id="Line_723_2_" class="st4" x1="1372.3" y1="1235.8" x2="1367" y2="1238.6"/>
		<line id="Line_724_2_" class="st4" x1="1368.4" y1="1228.6" x2="1363.2" y2="1231.5"/>
		<line id="Line_725_2_" class="st4" x1="1364.4" y1="1221.5" x2="1359.2" y2="1224.5"/>
		<line id="Line_726_2_" class="st4" x1="1360.3" y1="1214.5" x2="1355.2" y2="1217.6"/>
		<line id="Line_727_2_" class="st4" x1="1356" y1="1207.5" x2="1350.9" y2="1210.7"/>
		<line id="Line_728_2_" class="st4" x1="1351.7" y1="1200.7" x2="1346.6" y2="1203.9"/>
		<line id="Line_729_2_" class="st4" x1="1347.2" y1="1193.9" x2="1342.2" y2="1197.2"/>
		<line id="Line_730_2_" class="st4" x1="1342.5" y1="1187.1" x2="1337.6" y2="1190.6"/>
		<line id="Line_731_2_" class="st4" x1="1337.8" y1="1180.5" x2="1333" y2="1184"/>
		<line id="Line_732_2_" class="st4" x1="1333" y1="1174" x2="1328.2" y2="1177.6"/>
		<line id="Line_733_2_" class="st4" x1="1328" y1="1167.5" x2="1323.3" y2="1171.2"/>
		<line id="Line_734_2_" class="st4" x1="1322.9" y1="1161.1" x2="1318.3" y2="1164.9"/>
		<line id="Line_735_2_" class="st4" x1="1317.7" y1="1154.8" x2="1313.1" y2="1158.7"/>
		<line id="Line_736_2_" class="st4" x1="1312.4" y1="1148.6" x2="1307.9" y2="1152.6"/>
		<line id="Line_737_2_" class="st4" x1="1307" y1="1142.5" x2="1302.6" y2="1146.5"/>
		<line id="Line_738_2_" class="st4" x1="1301.5" y1="1136.5" x2="1297.2" y2="1140.6"/>
		<line id="Line_739_2_" class="st4" x1="1295.9" y1="1130.6" x2="1291.6" y2="1134.8"/>
		<line id="Line_740_2_" class="st4" x1="1290.2" y1="1124.8" x2="1286" y2="1129"/>
		<line id="Line_741_2_" class="st4" x1="1284.4" y1="1119.1" x2="1280.2" y2="1123.4"/>
		<line id="Line_742_2_" class="st4" x1="1278.5" y1="1113.5" x2="1274.4" y2="1117.8"/>
		<line id="Line_743_2_" class="st4" x1="1272.5" y1="1108" x2="1268.5" y2="1112.4"/>
		<line id="Line_744_2_" class="st4" x1="1266.4" y1="1102.6" x2="1262.4" y2="1107.1"/>
		<line id="Line_745_2_" class="st4" x1="1260.2" y1="1097.3" x2="1256.3" y2="1101.9"/>
		<line id="Line_746_2_" class="st4" x1="1253.9" y1="1092.1" x2="1250.1" y2="1096.7"/>
		<line id="Line_747_2_" class="st4" x1="1247.5" y1="1087" x2="1243.8" y2="1091.7"/>
		<line id="Line_748_2_" class="st4" x1="1241" y1="1082" x2="1237.4" y2="1086.8"/>
		<line id="Line_749_2_" class="st4" x1="1234.5" y1="1077.2" x2="1231" y2="1082"/>
		<line id="Line_750_2_" class="st4" x1="1227.9" y1="1072.5" x2="1224.4" y2="1077.4"/>
		<line id="Line_751_2_" class="st4" x1="1221.1" y1="1067.8" x2="1217.8" y2="1072.8"/>
		<line id="Line_752_2_" class="st4" x1="1214.3" y1="1063.3" x2="1211.1" y2="1068.4"/>
		<line id="Line_753_2_" class="st4" x1="1207.5" y1="1059" x2="1204.3" y2="1064.1"/>
		<line id="Line_754_2_" class="st4" x1="1200.5" y1="1054.7" x2="1197.4" y2="1059.8"/>
		<line id="Line_755_2_" class="st4" x1="1193.5" y1="1050.6" x2="1190.5" y2="1055.8"/>
		<line id="Line_756_2_" class="st4" x1="1186.4" y1="1046.6" x2="1183.5" y2="1051.8"/>
		<line id="Line_757_2_" class="st4" x1="1179.2" y1="1042.7" x2="1176.4" y2="1048"/>
		<line id="Line_758_2_" class="st4" x1="1172" y1="1038.9" x2="1169.3" y2="1044.2"/>
		<line id="Line_759_2_" class="st4" x1="1164.7" y1="1035.3" x2="1162.1" y2="1040.7"/>
		<line id="Line_760_2_" class="st4" x1="1157.4" y1="1031.8" x2="1154.8" y2="1037.2"/>
		<line id="Line_761_2_" class="st4" x1="1149.9" y1="1028.4" x2="1147.5" y2="1033.9"/>
		<line id="Line_762_2_" class="st4" x1="1142.5" y1="1025.1" x2="1140.1" y2="1030.6"/>
		<line id="Line_763_2_" class="st4" x1="1134.9" y1="1022" x2="1132.7" y2="1027.6"/>
		<line id="Line_764_2_" class="st4" x1="1127.4" y1="1019" x2="1125.2" y2="1024.6"/>
		<line id="Line_765_2_" class="st4" x1="1119.7" y1="1016.2" x2="1117.7" y2="1021.8"/>
		<line id="Line_766_2_" class="st4" x1="1112" y1="1013.4" x2="1110.1" y2="1019.1"/>
		<line id="Line_767_2_" class="st4" x1="1104.3" y1="1010.9" x2="1102.5" y2="1016.6"/>
		<line id="Line_768_2_" class="st4" x1="1096.5" y1="1008.4" x2="1094.8" y2="1014.1"/>
		<line id="Line_769_2_" class="st4" x1="1088.7" y1="1006.1" x2="1087.1" y2="1011.9"/>
		<line id="Line_770_2_" class="st4" x1="1080.9" y1="1003.9" x2="1079.3" y2="1009.7"/>
		<line id="Line_771_2_" class="st4" x1="1073" y1="1001.9" x2="1071.5" y2="1007.7"/>
		<line id="Line_772_2_" class="st4" x1="1065.1" y1="1000" x2="1063.7" y2="1005.8"/>
		<line id="Line_773_2_" class="st4" x1="1057.1" y1="998.2" x2="1055.8" y2="1004.1"/>
		<line id="Line_774_2_" class="st4" x1="1049.1" y1="996.6" x2="1048" y2="1002.5"/>
		<line id="Line_775_2_" class="st4" x1="1041.1" y1="995.1" x2="1040.1" y2="1001"/>
		<line id="Line_776_2_" class="st4" x1="1033.1" y1="993.8" x2="1032.1" y2="999.7"/>
		<line id="Line_777_2_" class="st4" x1="1025" y1="992.5" x2="1024.2" y2="998.5"/>
		<line id="Line_778_2_" class="st4" x1="1016.9" y1="991.5" x2="1016.2" y2="997.4"/>
		<line id="Line_779_2_" class="st4" x1="1008.8" y1="990.6" x2="1008.2" y2="996.5"/>
		<line id="Line_780_2_" class="st4" x1="1000.7" y1="989.8" x2="1000.2" y2="995.8"/>
		<line id="Line_781_2_" class="st4" x1="992.6" y1="989.1" x2="992.2" y2="995.1"/>
		<line id="Line_782_2_" class="st4" x1="984.4" y1="988.6" x2="984.1" y2="994.6"/>
		<line id="Line_783_2_" class="st4" x1="976.3" y1="988.3" x2="976.1" y2="994.3"/>
		<line id="Line_784_2_" class="st4" x1="968.2" y1="988.1" x2="968" y2="994.1"/>
	</g>
	<circle id="Ellipse_176_2_" class="st5" cx="960" cy="1455" r="510"/>
</g>
</svg>
