<svg id="Layer_1" data-name="Layer 1" xmlns="http://www.w3.org/2000/svg" width="1067.82" height="1067.82" viewBox="0 0 1067.82 1067.82"><defs><style>.cls-1,.cls-12,.cls-13,.cls-6{fill:none;}.cls-1{stroke:#2f598c;}.cls-1,.cls-12{stroke-width:0.5px;}.cls-10,.cls-11,.cls-2,.cls-7{isolation:isolate;fill:#003472;font-family:GothamPro-Bold, Gotham Pro;font-weight:700;}.cls-2{font-size:7px;}.cls-3{letter-spacing:-0.03em;}.cls-4{letter-spacing:0em;}.cls-5{letter-spacing:-0.01em;}.cls-12,.cls-6{stroke:#003472;stroke-miterlimit:10;}.cls-7{font-size:7px;}.cls-8{letter-spacing:-0.09em;}.cls-9{letter-spacing:0em;}.cls-10{font-size:7px;}.cls-11{font-size:7px;}</style></defs><g id="Group_1" data-name="Group 1"><g id="Group_614" data-name="Group 614"><path id="Subtraction_1" data-name="Subtraction 1" class="cls-1" d="M550,1029.8a480.55,480.55,0,0,1-96.7-9.8c-15.5-3.2-30.9-7.1-46-11.8-14.9-4.6-29.7-10.1-44.1-16.1-14.2-6-28.3-12.8-41.9-20.2s-26.8-15.4-39.6-24A481.38,481.38,0,0,1,152.1,818.3c-8.6-12.7-16.7-26.1-24-39.6s-14.2-27.7-20.2-41.9a465.13,465.13,0,0,1-16.1-44.1,456.13,456.13,0,0,1-11.8-46c-3.2-15.7-5.6-31.6-7.3-47.6A473.45,473.45,0,0,1,70.2,550c0-13.8.6-27.8,1.8-41.5,1.2-13.5,2.9-27.2,5.2-40.5s5.1-26.4,8.5-39.4C89,415.8,93,403,97.3,390.5A481.28,481.28,0,0,1,355.1,111.3c12-5.3,24.3-10.2,36.7-14.6s25.3-8.2,38.1-11.5a3.88,3.88,0,0,0,4.9,2.7,4.06,4.06,0,0,0,2.8-4.7c5.5-1.3,11.2-2.6,16.7-3.7a4.07,4.07,0,0,0,4.8,3,4,4,0,0,0,3.1-3.9V78c14.2-2.6,28.8-4.6,43.2-6,14.6-1.3,29.6-2,44.4-2a477.37,477.37,0,0,1,278.8,89.3,3.92,3.92,0,0,0,1.2,5.5,4.13,4.13,0,0,0,5.3-.8c6.8,5,13.6,10.3,20.1,15.7a4.08,4.08,0,0,0,.8,5.6,4,4,0,0,0,5.3-.5,483.52,483.52,0,0,1,69.3,73,3.88,3.88,0,0,0-.4,5.6,4,4,0,0,0,5.3.7c3.4,4.6,6.8,9.3,10,13.9a4,4,0,0,0-.8,5.6,3.92,3.92,0,0,0,5.2,1,469.93,469.93,0,0,1,24.3,41,464.34,464.34,0,0,1,20.3,43.5,474.81,474.81,0,0,1,27.2,93.3,4.09,4.09,0,0,0-3.1,4.8,4,4,0,0,0,4.4,3.1c2.2,12.9,3.8,26.1,4.9,39.2,1.1,13.3,1.7,26.8,1.7,40.1a496.9,496.9,0,0,1-2.6,50.3h-.2a4,4,0,0,0-4,4,3.89,3.89,0,0,0,3.3,3.9c-1.8,15.1-4.4,30.3-7.7,45.2-3.2,14.7-7.2,29.4-11.8,43.6s-9.8,28.2-15.7,41.9c-5.8,13.5-12.3,27-19.4,39.9s-14.7,25.6-22.9,37.8-16.9,24-26.1,35.4a478.74,478.74,0,0,1-61.3,62.8,4,4,0,0,0-6.9,2.8,4.07,4.07,0,0,0,.8,2.4,473.25,473.25,0,0,1-66.4,46c-11.7,6.7-23.9,13.1-36.1,18.8s-25,11-37.8,15.7-26.1,8.9-39.3,12.5c-13.4,3.6-27.1,6.7-40.7,9.1-13.8,2.5-27.9,4.4-42,5.6A338,338,0,0,1,550,1029.8Z" transform="translate(-16.09 -15.62)"/><g id="Group_605" data-name="Group 605"><text class="cls-2" transform="translate(1024.32 580.47) rotate(96.49)">Э<tspan class="cls-3" x="5.13" y="0">-</tspan><tspan class="cls-4" x="7.78" y="0">1</tspan><tspan class="cls-5" x="10.74" y="0">0</tspan><tspan x="15.78" y="0">3</tspan></text><line id="Line_416" data-name="Line 416" class="cls-6" x1="997.91" y1="587.28" x2="986.01" y2="585.88"/></g><circle id="Ellipse_168" data-name="Ellipse 168" class="cls-6" cx="1010.81" cy="588.68" r="4"/><g id="Group_604" data-name="Group 604"><text class="cls-7" transform="translate(857.19 906.02) rotate(140)"><tspan xml:space="preserve"> АМ5</tspan></text><text class="cls-7" transform="translate(863.01 914.19) rotate(140)"> <tspan class="cls-8" x="2.1" y="0">А</tspan><tspan class="cls-9" x="7" y="0">Т2</tspan></text><line id="Line_415" data-name="Line 415" class="cls-6" x1="834.11" y1="892.08" x2="826.41" y2="882.98"/><circle id="Ellipse_167" data-name="Ellipse 167" class="cls-6" cx="842.41" cy="902.08" r="4"/></g><g id="Group_606" data-name="Group 606"><text class="cls-7" transform="translate(1017.37 440.53) rotate(80)">Э-80</text><line id="Line_417" data-name="Line 417" class="cls-6" x1="993.81" y1="453.28" x2="982.01" y2="455.38"/><circle id="Ellipse_169" data-name="Ellipse 169" class="cls-6" cx="1006.61" cy="450.98" r="4"/></g><g id="Group_607" data-name="Group 607"><text class="cls-7" transform="matrix(0.81, 0.59, -0.59, 0.81, 815.64, 130.48)">АМУ1</text><line id="Line_418" data-name="Line 418" class="cls-6" x1="808.41" y1="156.58" x2="801.31" y2="166.28"/><circle id="Ellipse_170" data-name="Ellipse 170" class="cls-6" cx="816.01" cy="146.08" r="4"/></g><g id="Group_608" data-name="Group 608"><text class="cls-7" transform="translate(843.75 151.57) rotate(40)"><tspan xml:space="preserve"> АМ7</tspan></text><line id="Line_419" data-name="Line 419" class="cls-6" x1="834.11" y1="176.68" x2="826.41" y2="185.78"/><circle id="Ellipse_171" data-name="Ellipse 171" class="cls-6" cx="842.41" cy="166.68" r="4"/></g><g id="Group_609" data-name="Group 609"><text class="cls-10" transform="translate(921.79 230.97) rotate(53)"><tspan xml:space="preserve"> АМ6</tspan></text><line id="Line_420" data-name="Line 420" class="cls-6" x1="906.91" y1="253.38" x2="897.31" y2="260.58"/><circle id="Ellipse_172" data-name="Ellipse 172" class="cls-6" cx="917.21" cy="245.48" r="4"/></g><g id="Group_610" data-name="Group 610"><text class="cls-7" transform="translate(938.1 253.07) rotate(56)"> <tspan class="cls-8" x="2.1" y="0">А</tspan><tspan class="cls-9" x="7" y="0">Т1</tspan></text><line id="Line_421" data-name="Line 421" class="cls-6" x1="921.11" y1="273.28" x2="911.11" y2="279.98"/><circle id="Ellipse_173" data-name="Ellipse 173" class="cls-6" cx="931.81" cy="265.98" r="4"/></g><g id="Group_611" data-name="Group 611"><text class="cls-7" transform="matrix(0.98, -0.19, 0.19, 0.98, 427.75, 42.19)">АМ44</text><text class="cls-7" transform="matrix(0.98, -0.19, 0.19, 0.98, 430.24, 52.71)">АМ33</text><line id="Line_422" data-name="Line 422" class="cls-6" x1="444.81" y1="75.98" x2="447.11" y2="87.78"/><circle id="Ellipse_174" data-name="Ellipse 174" class="cls-6" cx="442.31" cy="63.18" r="4"/></g><g id="Group_612" data-name="Group 612"><text class="cls-11" transform="translate(407.2 58.53) rotate(-14.01)">АМ8</text><line id="Line_423" data-name="Line 423" class="cls-6" x1="420.91" y1="81.28" x2="423.81" y2="92.88"/><circle id="Ellipse_175" data-name="Ellipse 175" class="cls-6" cx="417.81" cy="68.68" r="4"/></g><g id="Group_613" data-name="Group 613"><line id="Line_425" data-name="Line 425" class="cls-12" x1="533.91" y1="67.38" x2="533.91" y2="73.38"/><line id="Line_426" data-name="Line 426" class="cls-12" x1="525.71" y1="67.48" x2="525.91" y2="73.48"/><line id="Line_427" data-name="Line 427" class="cls-12" x1="517.61" y1="67.68" x2="517.81" y2="73.68"/><line id="Line_428" data-name="Line 428" class="cls-12" x1="509.51" y1="67.98" x2="509.81" y2="73.98"/><line id="Line_429" data-name="Line 429" class="cls-12" x1="501.31" y1="68.48" x2="501.71" y2="74.48"/><line id="Line_430" data-name="Line 430" class="cls-12" x1="493.21" y1="69.18" x2="493.71" y2="75.18"/><line id="Line_431" data-name="Line 431" class="cls-12" x1="485.11" y1="69.98" x2="485.71" y2="75.88"/><line id="Line_432" data-name="Line 432" class="cls-12" x1="477.01" y1="70.88" x2="477.71" y2="76.78"/><line id="Line_433" data-name="Line 433" class="cls-12" x1="468.91" y1="71.88" x2="469.71" y2="77.88"/><line id="Line_434" data-name="Line 434" class="cls-12" x1="460.81" y1="73.18" x2="461.81" y2="79.08"/><line id="Line_435" data-name="Line 435" class="cls-12" x1="452.81" y1="74.48" x2="453.81" y2="80.38"/><line id="Line_436" data-name="Line 436" class="cls-12" x1="444.81" y1="75.98" x2="445.91" y2="81.88"/><line id="Line_437" data-name="Line 437" class="cls-12" x1="436.81" y1="77.58" x2="438.11" y2="83.48"/><line id="Line_438" data-name="Line 438" class="cls-12" x1="428.81" y1="79.38" x2="430.21" y2="85.18"/><line id="Line_439" data-name="Line 439" class="cls-12" x1="420.91" y1="81.28" x2="422.41" y2="87.08"/><line id="Line_440" data-name="Line 440" class="cls-12" x1="413.01" y1="83.28" x2="414.61" y2="89.08"/><line id="Line_441" data-name="Line 441" class="cls-12" x1="405.21" y1="85.48" x2="406.81" y2="91.28"/><line id="Line_442" data-name="Line 442" class="cls-12" x1="397.41" y1="87.78" x2="399.11" y2="93.48"/><line id="Line_443" data-name="Line 443" class="cls-12" x1="389.61" y1="90.28" x2="391.41" y2="95.98"/><line id="Line_444" data-name="Line 444" class="cls-12" x1="381.91" y1="92.78" x2="383.81" y2="98.48"/><line id="Line_445" data-name="Line 445" class="cls-12" x1="374.21" y1="95.58" x2="376.21" y2="101.18"/><line id="Line_446" data-name="Line 446" class="cls-12" x1="366.51" y1="98.38" x2="368.71" y2="103.98"/><line id="Line_447" data-name="Line 447" class="cls-12" x1="359.01" y1="101.38" x2="361.21" y2="106.98"/><line id="Line_448" data-name="Line 448" class="cls-12" x1="351.41" y1="104.48" x2="353.81" y2="109.98"/><line id="Line_449" data-name="Line 449" class="cls-12" x1="344.01" y1="107.78" x2="346.41" y2="113.28"/><line id="Line_450" data-name="Line 450" class="cls-12" x1="336.51" y1="111.18" x2="339.11" y2="116.58"/><line id="Line_451" data-name="Line 451" class="cls-12" x1="329.21" y1="114.68" x2="331.81" y2="120.08"/><line id="Line_452" data-name="Line 452" class="cls-12" x1="321.91" y1="118.28" x2="324.61" y2="123.58"/><line id="Line_453" data-name="Line 453" class="cls-12" x1="314.71" y1="122.08" x2="317.51" y2="127.38"/><line id="Line_454" data-name="Line 454" class="cls-12" x1="307.51" y1="125.98" x2="310.41" y2="131.18"/><line id="Line_455" data-name="Line 455" class="cls-12" x1="300.41" y1="129.98" x2="303.41" y2="135.18"/><line id="Line_456" data-name="Line 456" class="cls-12" x1="293.41" y1="134.08" x2="296.51" y2="139.18"/><line id="Line_457" data-name="Line 457" class="cls-12" x1="286.41" y1="138.38" x2="289.61" y2="143.48"/><line id="Line_458" data-name="Line 458" class="cls-12" x1="279.61" y1="142.68" x2="282.81" y2="147.78"/><line id="Line_459" data-name="Line 459" class="cls-12" x1="272.81" y1="147.18" x2="276.11" y2="152.18"/><line id="Line_460" data-name="Line 460" class="cls-12" x1="266.01" y1="151.88" x2="269.51" y2="156.78"/><line id="Line_461" data-name="Line 461" class="cls-12" x1="259.41" y1="156.58" x2="262.91" y2="161.38"/><line id="Line_462" data-name="Line 462" class="cls-12" x1="252.91" y1="161.38" x2="256.51" y2="166.18"/><line id="Line_463" data-name="Line 463" class="cls-12" x1="246.41" y1="166.38" x2="250.11" y2="171.08"/><line id="Line_464" data-name="Line 464" class="cls-12" x1="240.01" y1="171.48" x2="243.81" y2="176.08"/><line id="Line_465" data-name="Line 465" class="cls-12" x1="233.71" y1="176.68" x2="237.61" y2="181.28"/><line id="Line_466" data-name="Line 466" class="cls-12" x1="227.51" y1="181.98" x2="231.51" y2="186.48"/><line id="Line_467" data-name="Line 467" class="cls-12" x1="221.41" y1="187.38" x2="225.41" y2="191.78"/><line id="Line_468" data-name="Line 468" class="cls-12" x1="215.41" y1="192.88" x2="219.51" y2="197.18"/><line id="Line_469" data-name="Line 469" class="cls-12" x1="209.51" y1="198.48" x2="213.71" y2="202.78"/><line id="Line_470" data-name="Line 470" class="cls-12" x1="203.71" y1="204.18" x2="207.91" y2="208.38"/><line id="Line_471" data-name="Line 471" class="cls-12" x1="198.01" y1="209.98" x2="202.31" y2="214.18"/><line id="Line_472" data-name="Line 472" class="cls-12" x1="192.41" y1="215.88" x2="196.71" y2="219.98"/><line id="Line_473" data-name="Line 473" class="cls-12" x1="186.91" y1="221.88" x2="191.31" y2="225.88"/><line id="Line_474" data-name="Line 474" class="cls-12" x1="181.51" y1="227.98" x2="186.01" y2="231.98"/><line id="Line_475" data-name="Line 475" class="cls-12" x1="176.21" y1="234.18" x2="180.81" y2="238.08"/><line id="Line_476" data-name="Line 476" class="cls-12" x1="171.01" y1="240.48" x2="175.61" y2="244.28"/><line id="Line_477" data-name="Line 477" class="cls-12" x1="165.91" y1="246.88" x2="170.61" y2="250.58"/><line id="Line_478" data-name="Line 478" class="cls-12" x1="160.91" y1="253.38" x2="165.71" y2="256.98"/><line id="Line_479" data-name="Line 479" class="cls-12" x1="156.11" y1="259.88" x2="160.91" y2="263.38"/><line id="Line_480" data-name="Line 480" class="cls-12" x1="151.41" y1="266.48" x2="156.31" y2="269.98"/><line id="Line_481" data-name="Line 481" class="cls-12" x1="146.71" y1="273.28" x2="151.71" y2="276.58"/><line id="Line_482" data-name="Line 482" class="cls-12" x1="142.21" y1="280.08" x2="147.31" y2="283.28"/><line id="Line_483" data-name="Line 483" class="cls-12" x1="137.91" y1="286.88" x2="142.91" y2="290.08"/><line id="Line_484" data-name="Line 484" class="cls-12" x1="133.61" y1="293.88" x2="138.71" y2="296.98"/><line id="Line_485" data-name="Line 485" class="cls-12" x1="129.51" y1="300.88" x2="134.71" y2="303.88"/><line id="Line_486" data-name="Line 486" class="cls-12" x1="125.51" y1="307.98" x2="130.71" y2="310.88"/><line id="Line_487" data-name="Line 487" class="cls-12" x1="121.61" y1="315.18" x2="126.91" y2="317.98"/><line id="Line_488" data-name="Line 488" class="cls-12" x1="117.81" y1="322.38" x2="123.11" y2="325.08"/><line id="Line_489" data-name="Line 489" class="cls-12" x1="114.21" y1="329.68" x2="119.61" y2="332.28"/><line id="Line_490" data-name="Line 490" class="cls-12" x1="110.71" y1="336.98" x2="116.11" y2="339.58"/><line id="Line_491" data-name="Line 491" class="cls-12" x1="107.31" y1="344.48" x2="112.81" y2="346.88"/><line id="Line_492" data-name="Line 492" class="cls-12" x1="104.01" y1="351.88" x2="109.51" y2="354.28"/><line id="Line_493" data-name="Line 493" class="cls-12" x1="100.91" y1="359.48" x2="106.51" y2="361.68"/><line id="Line_494" data-name="Line 494" class="cls-12" x1="97.91" y1="366.98" x2="103.51" y2="369.18"/><line id="Line_495" data-name="Line 495" class="cls-12" x1="95.11" y1="374.68" x2="100.71" y2="376.68"/><line id="Line_496" data-name="Line 496" class="cls-12" x1="92.31" y1="382.38" x2="98.01" y2="384.28"/><line id="Line_497" data-name="Line 497" class="cls-12" x1="89.81" y1="390.08" x2="95.51" y2="391.88"/><line id="Line_498" data-name="Line 498" class="cls-12" x1="87.31" y1="397.88" x2="93.01" y2="399.58"/><line id="Line_499" data-name="Line 499" class="cls-12" x1="85.01" y1="405.68" x2="90.81" y2="407.28"/><line id="Line_500" data-name="Line 500" class="cls-12" x1="82.81" y1="413.48" x2="88.61" y2="415.08"/><line id="Line_501" data-name="Line 501" class="cls-12" x1="80.81" y1="421.38" x2="86.61" y2="422.88"/><line id="Line_502" data-name="Line 502" class="cls-12" x1="78.91" y1="429.28" x2="84.71" y2="430.68"/><line id="Line_503" data-name="Line 503" class="cls-12" x1="77.11" y1="437.28" x2="83.01" y2="438.58"/><line id="Line_504" data-name="Line 504" class="cls-12" x1="75.51" y1="445.28" x2="81.41" y2="446.38"/><line id="Line_505" data-name="Line 505" class="cls-12" x1="74.01" y1="453.28" x2="79.91" y2="454.28"/><line id="Line_506" data-name="Line 506" class="cls-12" x1="72.71" y1="461.28" x2="78.61" y2="462.28"/><line id="Line_507" data-name="Line 507" class="cls-12" x1="71.41" y1="469.38" x2="77.41" y2="470.18"/><line id="Line_508" data-name="Line 508" class="cls-12" x1="70.41" y1="477.48" x2="76.31" y2="478.18"/><line id="Line_509" data-name="Line 509" class="cls-12" x1="69.51" y1="485.58" x2="75.41" y2="486.18"/><line id="Line_510" data-name="Line 510" class="cls-12" x1="68.71" y1="493.68" x2="74.71" y2="494.18"/><line id="Line_511" data-name="Line 511" class="cls-12" x1="68.01" y1="501.78" x2="74.01" y2="502.18"/><line id="Line_512" data-name="Line 512" class="cls-12" x1="67.51" y1="509.98" x2="73.51" y2="510.28"/><line id="Line_513" data-name="Line 513" class="cls-12" x1="67.21" y1="518.08" x2="73.21" y2="518.28"/><line id="Line_514" data-name="Line 514" class="cls-12" x1="67.01" y1="526.18" x2="73.01" y2="526.38"/><line id="Line_515" data-name="Line 515" class="cls-12" x1="66.91" y1="534.38" x2="72.91" y2="534.38"/><line id="Line_516" data-name="Line 516" class="cls-12" x1="67.01" y1="542.58" x2="73.01" y2="542.38"/><line id="Line_517" data-name="Line 517" class="cls-12" x1="67.21" y1="550.68" x2="73.21" y2="550.48"/><line id="Line_518" data-name="Line 518" class="cls-12" x1="67.51" y1="558.78" x2="73.51" y2="558.48"/><line id="Line_519" data-name="Line 519" class="cls-12" x1="68.01" y1="566.98" x2="74.01" y2="566.58"/><line id="Line_520" data-name="Line 520" class="cls-12" x1="68.71" y1="575.08" x2="74.71" y2="574.58"/><line id="Line_521" data-name="Line 521" class="cls-12" x1="69.51" y1="583.18" x2="75.41" y2="582.58"/><line id="Line_522" data-name="Line 522" class="cls-12" x1="70.41" y1="591.28" x2="76.31" y2="590.58"/><line id="Line_523" data-name="Line 523" class="cls-12" x1="71.41" y1="599.38" x2="77.41" y2="598.58"/><line id="Line_524" data-name="Line 524" class="cls-12" x1="72.71" y1="607.48" x2="78.61" y2="606.48"/><line id="Line_525" data-name="Line 525" class="cls-12" x1="74.01" y1="615.48" x2="79.91" y2="614.48"/><line id="Line_526" data-name="Line 526" class="cls-12" x1="75.51" y1="623.48" x2="81.41" y2="622.38"/><line id="Line_527" data-name="Line 527" class="cls-12" x1="77.11" y1="631.48" x2="83.01" y2="630.18"/><line id="Line_528" data-name="Line 528" class="cls-12" x1="78.91" y1="639.48" x2="84.71" y2="638.08"/><line id="Line_529" data-name="Line 529" class="cls-12" x1="80.81" y1="647.38" x2="86.61" y2="645.88"/><line id="Line_530" data-name="Line 530" class="cls-12" x1="82.81" y1="655.28" x2="88.61" y2="653.68"/><line id="Line_531" data-name="Line 531" class="cls-12" x1="85.01" y1="663.08" x2="90.81" y2="661.48"/><line id="Line_532" data-name="Line 532" class="cls-12" x1="87.31" y1="670.88" x2="93.01" y2="669.18"/><line id="Line_533" data-name="Line 533" class="cls-12" x1="89.81" y1="678.68" x2="95.51" y2="676.88"/><line id="Line_534" data-name="Line 534" class="cls-12" x1="92.31" y1="686.38" x2="98.01" y2="684.48"/><line id="Line_535" data-name="Line 535" class="cls-12" x1="95.11" y1="694.08" x2="100.71" y2="692.08"/><line id="Line_536" data-name="Line 536" class="cls-12" x1="97.91" y1="701.78" x2="103.51" y2="699.58"/><line id="Line_537" data-name="Line 537" class="cls-12" x1="100.91" y1="709.28" x2="106.51" y2="707.08"/><line id="Line_538" data-name="Line 538" class="cls-12" x1="104.01" y1="716.88" x2="109.51" y2="714.48"/><line id="Line_539" data-name="Line 539" class="cls-12" x1="107.31" y1="724.28" x2="112.81" y2="721.88"/><line id="Line_540" data-name="Line 540" class="cls-12" x1="110.71" y1="731.78" x2="116.11" y2="729.18"/><line id="Line_541" data-name="Line 541" class="cls-12" x1="114.21" y1="739.08" x2="119.61" y2="736.48"/><line id="Line_542" data-name="Line 542" class="cls-12" x1="117.81" y1="746.38" x2="123.11" y2="743.68"/><line id="Line_543" data-name="Line 543" class="cls-12" x1="121.61" y1="753.58" x2="126.91" y2="750.78"/><line id="Line_544" data-name="Line 544" class="cls-12" x1="125.51" y1="760.78" x2="130.71" y2="757.88"/><line id="Line_545" data-name="Line 545" class="cls-12" x1="129.51" y1="767.88" x2="134.71" y2="764.88"/><line id="Line_546" data-name="Line 546" class="cls-12" x1="133.61" y1="774.88" x2="138.71" y2="771.78"/><line id="Line_547" data-name="Line 547" class="cls-12" x1="137.91" y1="781.88" x2="142.91" y2="778.68"/><line id="Line_548" data-name="Line 548" class="cls-12" x1="142.21" y1="788.68" x2="147.31" y2="785.48"/><line id="Line_549" data-name="Line 549" class="cls-12" x1="146.71" y1="795.48" x2="151.71" y2="792.18"/><line id="Line_550" data-name="Line 550" class="cls-12" x1="151.41" y1="802.28" x2="156.31" y2="798.78"/><line id="Line_551" data-name="Line 551" class="cls-12" x1="156.11" y1="808.88" x2="160.91" y2="805.38"/><line id="Line_552" data-name="Line 552" class="cls-12" x1="160.91" y1="815.38" x2="165.71" y2="811.78"/><line id="Line_553" data-name="Line 553" class="cls-12" x1="165.91" y1="821.88" x2="170.61" y2="818.18"/><line id="Line_554" data-name="Line 554" class="cls-12" x1="171.01" y1="828.28" x2="175.61" y2="824.48"/><line id="Line_555" data-name="Line 555" class="cls-12" x1="176.21" y1="834.58" x2="180.81" y2="830.68"/><line id="Line_556" data-name="Line 556" class="cls-12" x1="181.51" y1="840.78" x2="186.01" y2="836.78"/><line id="Line_557" data-name="Line 557" class="cls-12" x1="186.91" y1="846.88" x2="191.31" y2="842.88"/><line id="Line_558" data-name="Line 558" class="cls-12" x1="192.41" y1="852.88" x2="196.71" y2="848.78"/><line id="Line_559" data-name="Line 559" class="cls-12" x1="198.01" y1="858.78" x2="202.31" y2="854.58"/><line id="Line_560" data-name="Line 560" class="cls-12" x1="203.71" y1="864.58" x2="207.91" y2="860.38"/><line id="Line_561" data-name="Line 561" class="cls-12" x1="209.51" y1="870.28" x2="213.71" y2="865.98"/><line id="Line_562" data-name="Line 562" class="cls-12" x1="215.41" y1="875.88" x2="219.51" y2="871.58"/><line id="Line_563" data-name="Line 563" class="cls-12" x1="221.41" y1="881.38" x2="225.41" y2="876.98"/><line id="Line_564" data-name="Line 564" class="cls-12" x1="227.51" y1="886.78" x2="231.51" y2="882.28"/><line id="Line_565" data-name="Line 565" class="cls-12" x1="233.71" y1="892.08" x2="237.61" y2="887.48"/><line id="Line_566" data-name="Line 566" class="cls-12" x1="240.01" y1="897.28" x2="243.81" y2="892.68"/><line id="Line_567" data-name="Line 567" class="cls-12" x1="246.41" y1="902.38" x2="250.11" y2="897.68"/><line id="Line_568" data-name="Line 568" class="cls-12" x1="252.91" y1="907.38" x2="256.51" y2="902.58"/><line id="Line_569" data-name="Line 569" class="cls-12" x1="259.41" y1="912.18" x2="262.91" y2="907.38"/><line id="Line_570" data-name="Line 570" class="cls-12" x1="266.01" y1="916.88" x2="269.51" y2="911.98"/><line id="Line_571" data-name="Line 571" class="cls-12" x1="272.81" y1="921.58" x2="276.11" y2="916.58"/><line id="Line_572" data-name="Line 572" class="cls-12" x1="279.61" y1="926.08" x2="282.81" y2="920.98"/><line id="Line_573" data-name="Line 573" class="cls-12" x1="286.41" y1="930.38" x2="289.61" y2="925.28"/><line id="Line_574" data-name="Line 574" class="cls-12" x1="293.41" y1="934.68" x2="296.51" y2="929.58"/><line id="Line_575" data-name="Line 575" class="cls-12" x1="300.41" y1="938.78" x2="303.41" y2="933.58"/><line id="Line_576" data-name="Line 576" class="cls-12" x1="307.51" y1="942.78" x2="310.41" y2="937.58"/><line id="Line_577" data-name="Line 577" class="cls-12" x1="314.71" y1="946.68" x2="317.51" y2="941.38"/><line id="Line_578" data-name="Line 578" class="cls-12" x1="321.91" y1="950.48" x2="324.61" y2="945.18"/><line id="Line_579" data-name="Line 579" class="cls-12" x1="329.21" y1="954.08" x2="331.81" y2="948.68"/><line id="Line_580" data-name="Line 580" class="cls-12" x1="336.51" y1="957.58" x2="339.11" y2="952.18"/><line id="Line_581" data-name="Line 581" class="cls-12" x1="344.01" y1="960.98" x2="346.41" y2="955.48"/><line id="Line_582" data-name="Line 582" class="cls-12" x1="351.41" y1="964.28" x2="353.81" y2="958.78"/><line id="Line_583" data-name="Line 583" class="cls-12" x1="359.01" y1="967.38" x2="361.21" y2="961.78"/><line id="Line_584" data-name="Line 584" class="cls-12" x1="366.51" y1="970.38" x2="368.71" y2="964.78"/><line id="Line_585" data-name="Line 585" class="cls-12" x1="374.21" y1="973.18" x2="376.21" y2="967.58"/><line id="Line_586" data-name="Line 586" class="cls-12" x1="381.91" y1="975.98" x2="383.81" y2="970.28"/><line id="Line_587" data-name="Line 587" class="cls-12" x1="389.61" y1="978.48" x2="391.41" y2="972.78"/><line id="Line_588" data-name="Line 588" class="cls-12" x1="397.41" y1="980.98" x2="399.11" y2="975.28"/><line id="Line_589" data-name="Line 589" class="cls-12" x1="405.21" y1="983.28" x2="406.81" y2="977.48"/><line id="Line_590" data-name="Line 590" class="cls-12" x1="413.01" y1="985.48" x2="414.61" y2="979.68"/><line id="Line_591" data-name="Line 591" class="cls-12" x1="420.91" y1="987.48" x2="422.41" y2="981.68"/><line id="Line_592" data-name="Line 592" class="cls-12" x1="428.81" y1="989.38" x2="430.21" y2="983.58"/><line id="Line_593" data-name="Line 593" class="cls-12" x1="436.81" y1="991.18" x2="438.11" y2="985.28"/><line id="Line_594" data-name="Line 594" class="cls-12" x1="444.81" y1="992.78" x2="445.91" y2="986.88"/><line id="Line_595" data-name="Line 595" class="cls-12" x1="452.81" y1="994.28" x2="453.81" y2="988.38"/><line id="Line_596" data-name="Line 596" class="cls-12" x1="460.81" y1="995.58" x2="461.81" y2="989.68"/><line id="Line_597" data-name="Line 597" class="cls-12" x1="468.91" y1="996.88" x2="469.71" y2="990.88"/><line id="Line_598" data-name="Line 598" class="cls-12" x1="477.01" y1="997.88" x2="477.71" y2="991.98"/><line id="Line_599" data-name="Line 599" class="cls-12" x1="485.11" y1="998.78" x2="485.71" y2="992.88"/><line id="Line_600" data-name="Line 600" class="cls-12" x1="493.21" y1="999.58" x2="493.71" y2="993.58"/><line id="Line_601" data-name="Line 601" class="cls-12" x1="501.31" y1="1000.28" x2="501.71" y2="994.28"/><line id="Line_602" data-name="Line 602" class="cls-12" x1="509.51" y1="1000.78" x2="509.81" y2="994.78"/><line id="Line_603" data-name="Line 603" class="cls-12" x1="517.61" y1="1001.08" x2="517.81" y2="995.08"/><line id="Line_604" data-name="Line 604" class="cls-12" x1="525.71" y1="1001.28" x2="525.91" y2="995.28"/><line id="Line_605" data-name="Line 605" class="cls-12" x1="533.91" y1="1001.38" x2="533.91" y2="995.38"/><line id="Line_606" data-name="Line 606" class="cls-12" x1="542.11" y1="1001.28" x2="541.91" y2="995.28"/><line id="Line_607" data-name="Line 607" class="cls-12" x1="550.21" y1="1001.08" x2="550.01" y2="995.08"/><line id="Line_608" data-name="Line 608" class="cls-12" x1="558.31" y1="1000.78" x2="558.01" y2="994.78"/><line id="Line_609" data-name="Line 609" class="cls-12" x1="566.51" y1="1000.28" x2="566.11" y2="994.28"/><line id="Line_610" data-name="Line 610" class="cls-12" x1="574.61" y1="999.58" x2="574.11" y2="993.58"/><line id="Line_611" data-name="Line 611" class="cls-12" x1="582.71" y1="998.78" x2="582.11" y2="992.88"/><line id="Line_612" data-name="Line 612" class="cls-12" x1="590.81" y1="997.88" x2="590.11" y2="991.98"/><line id="Line_613" data-name="Line 613" class="cls-12" x1="598.91" y1="996.88" x2="598.11" y2="990.88"/><line id="Line_614" data-name="Line 614" class="cls-12" x1="607.01" y1="995.58" x2="606.01" y2="989.68"/><line id="Line_615" data-name="Line 615" class="cls-12" x1="615.01" y1="994.28" x2="614.01" y2="988.38"/><line id="Line_616" data-name="Line 616" class="cls-12" x1="623.01" y1="992.78" x2="621.91" y2="986.88"/><line id="Line_617" data-name="Line 617" class="cls-12" x1="631.01" y1="991.18" x2="629.71" y2="985.28"/><line id="Line_618" data-name="Line 618" class="cls-12" x1="639.01" y1="989.38" x2="637.61" y2="983.58"/><line id="Line_619" data-name="Line 619" class="cls-12" x1="646.91" y1="987.48" x2="645.41" y2="981.68"/><line id="Line_620" data-name="Line 620" class="cls-12" x1="654.81" y1="985.48" x2="653.21" y2="979.68"/><line id="Line_621" data-name="Line 621" class="cls-12" x1="662.61" y1="983.28" x2="661.01" y2="977.48"/><line id="Line_622" data-name="Line 622" class="cls-12" x1="670.41" y1="980.98" x2="668.71" y2="975.28"/><line id="Line_623" data-name="Line 623" class="cls-12" x1="678.21" y1="978.48" x2="676.41" y2="972.78"/><line id="Line_624" data-name="Line 624" class="cls-12" x1="685.91" y1="975.98" x2="684.01" y2="970.28"/><line id="Line_625" data-name="Line 625" class="cls-12" x1="693.61" y1="973.18" x2="691.61" y2="967.58"/><line id="Line_626" data-name="Line 626" class="cls-12" x1="701.31" y1="970.38" x2="699.11" y2="964.78"/><line id="Line_627" data-name="Line 627" class="cls-12" x1="708.81" y1="967.38" x2="706.61" y2="961.78"/><line id="Line_628" data-name="Line 628" class="cls-12" x1="716.41" y1="964.28" x2="714.01" y2="958.78"/><line id="Line_629" data-name="Line 629" class="cls-12" x1="723.81" y1="960.98" x2="721.41" y2="955.48"/><line id="Line_630" data-name="Line 630" class="cls-12" x1="731.31" y1="957.58" x2="728.71" y2="952.18"/><line id="Line_631" data-name="Line 631" class="cls-12" x1="738.61" y1="954.08" x2="736.01" y2="948.68"/><line id="Line_632" data-name="Line 632" class="cls-12" x1="745.91" y1="950.48" x2="743.21" y2="945.18"/><line id="Line_633" data-name="Line 633" class="cls-12" x1="753.11" y1="946.68" x2="750.31" y2="941.38"/><line id="Line_634" data-name="Line 634" class="cls-12" x1="760.31" y1="942.78" x2="757.41" y2="937.58"/><line id="Line_635" data-name="Line 635" class="cls-12" x1="767.41" y1="938.78" x2="764.41" y2="933.58"/><line id="Line_636" data-name="Line 636" class="cls-12" x1="774.41" y1="934.68" x2="771.31" y2="929.58"/><line id="Line_637" data-name="Line 637" class="cls-12" x1="781.41" y1="930.38" x2="778.21" y2="925.28"/><line id="Line_638" data-name="Line 638" class="cls-12" x1="788.21" y1="926.08" x2="785.01" y2="920.98"/><line id="Line_639" data-name="Line 639" class="cls-12" x1="795.01" y1="921.58" x2="791.71" y2="916.58"/><line id="Line_640" data-name="Line 640" class="cls-12" x1="801.81" y1="916.88" x2="798.31" y2="911.98"/><line id="Line_641" data-name="Line 641" class="cls-12" x1="808.41" y1="912.18" x2="804.91" y2="907.38"/><line id="Line_642" data-name="Line 642" class="cls-12" x1="814.91" y1="907.38" x2="811.31" y2="902.58"/><line id="Line_643" data-name="Line 643" class="cls-12" x1="821.41" y1="902.38" x2="817.71" y2="897.68"/><line id="Line_644" data-name="Line 644" class="cls-12" x1="827.81" y1="897.28" x2="824.01" y2="892.68"/><line id="Line_645" data-name="Line 645" class="cls-12" x1="834.11" y1="892.08" x2="830.21" y2="887.48"/><line id="Line_646" data-name="Line 646" class="cls-12" x1="840.31" y1="886.78" x2="836.31" y2="882.28"/><line id="Line_647" data-name="Line 647" class="cls-12" x1="846.41" y1="881.38" x2="842.41" y2="876.98"/><line id="Line_648" data-name="Line 648" class="cls-12" x1="852.41" y1="875.88" x2="848.31" y2="871.58"/><line id="Line_649" data-name="Line 649" class="cls-12" x1="858.31" y1="870.28" x2="854.11" y2="865.98"/><line id="Line_650" data-name="Line 650" class="cls-12" x1="864.11" y1="864.58" x2="859.91" y2="860.38"/><line id="Line_651" data-name="Line 651" class="cls-12" x1="869.81" y1="858.78" x2="865.51" y2="854.58"/><line id="Line_652" data-name="Line 652" class="cls-12" x1="875.41" y1="852.88" x2="871.11" y2="848.78"/><line id="Line_653" data-name="Line 653" class="cls-12" x1="880.91" y1="846.88" x2="876.51" y2="842.88"/><line id="Line_654" data-name="Line 654" class="cls-12" x1="886.31" y1="840.78" x2="881.81" y2="836.78"/><line id="Line_655" data-name="Line 655" class="cls-12" x1="891.61" y1="834.58" x2="887.01" y2="830.68"/><line id="Line_656" data-name="Line 656" class="cls-12" x1="896.81" y1="828.28" x2="892.21" y2="824.48"/><line id="Line_657" data-name="Line 657" class="cls-12" x1="901.91" y1="821.88" x2="897.21" y2="818.18"/><line id="Line_658" data-name="Line 658" class="cls-12" x1="906.91" y1="815.38" x2="902.11" y2="811.78"/><line id="Line_659" data-name="Line 659" class="cls-12" x1="911.71" y1="808.88" x2="906.91" y2="805.38"/><line id="Line_660" data-name="Line 660" class="cls-12" x1="916.41" y1="802.28" x2="911.51" y2="798.78"/><line id="Line_661" data-name="Line 661" class="cls-12" x1="921.11" y1="795.48" x2="916.11" y2="792.18"/><line id="Line_662" data-name="Line 662" class="cls-12" x1="925.61" y1="788.68" x2="920.51" y2="785.48"/><line id="Line_663" data-name="Line 663" class="cls-12" x1="929.91" y1="781.88" x2="924.81" y2="778.68"/><line id="Line_664" data-name="Line 664" class="cls-12" x1="934.21" y1="774.88" x2="929.11" y2="771.78"/><line id="Line_665" data-name="Line 665" class="cls-12" x1="938.31" y1="767.88" x2="933.11" y2="764.88"/><line id="Line_666" data-name="Line 666" class="cls-12" x1="942.31" y1="760.78" x2="937.11" y2="757.88"/><line id="Line_667" data-name="Line 667" class="cls-12" x1="946.21" y1="753.58" x2="940.91" y2="750.78"/><line id="Line_668" data-name="Line 668" class="cls-12" x1="950.01" y1="746.38" x2="944.71" y2="743.68"/><line id="Line_669" data-name="Line 669" class="cls-12" x1="953.61" y1="739.08" x2="948.21" y2="736.48"/><line id="Line_670" data-name="Line 670" class="cls-12" x1="957.11" y1="731.78" x2="951.71" y2="729.18"/><line id="Line_671" data-name="Line 671" class="cls-12" x1="960.51" y1="724.28" x2="955.01" y2="721.88"/><line id="Line_672" data-name="Line 672" class="cls-12" x1="963.81" y1="716.88" x2="958.31" y2="714.48"/><line id="Line_673" data-name="Line 673" class="cls-12" x1="966.91" y1="709.28" x2="961.31" y2="707.08"/><line id="Line_674" data-name="Line 674" class="cls-12" x1="969.91" y1="701.78" x2="964.31" y2="699.58"/><line id="Line_675" data-name="Line 675" class="cls-12" x1="972.71" y1="694.08" x2="967.11" y2="692.08"/><line id="Line_676" data-name="Line 676" class="cls-12" x1="975.51" y1="686.38" x2="969.81" y2="684.48"/><line id="Line_677" data-name="Line 677" class="cls-12" x1="978.01" y1="678.68" x2="972.31" y2="676.88"/><line id="Line_678" data-name="Line 678" class="cls-12" x1="980.51" y1="670.88" x2="974.81" y2="669.18"/><line id="Line_679" data-name="Line 679" class="cls-12" x1="982.81" y1="663.08" x2="977.01" y2="661.48"/><line id="Line_680" data-name="Line 680" class="cls-12" x1="985.01" y1="655.28" x2="979.21" y2="653.68"/><line id="Line_681" data-name="Line 681" class="cls-12" x1="987.01" y1="647.38" x2="981.21" y2="645.88"/><line id="Line_682" data-name="Line 682" class="cls-12" x1="988.91" y1="639.48" x2="983.11" y2="638.08"/><line id="Line_683" data-name="Line 683" class="cls-12" x1="990.71" y1="631.48" x2="984.81" y2="630.18"/><line id="Line_684" data-name="Line 684" class="cls-12" x1="992.31" y1="623.48" x2="986.41" y2="622.38"/><line id="Line_685" data-name="Line 685" class="cls-12" x1="993.81" y1="615.48" x2="987.91" y2="614.48"/><line id="Line_686" data-name="Line 686" class="cls-12" x1="995.11" y1="607.48" x2="989.21" y2="606.48"/><line id="Line_687" data-name="Line 687" class="cls-12" x1="996.41" y1="599.38" x2="990.41" y2="598.58"/><line id="Line_688" data-name="Line 688" class="cls-12" x1="997.41" y1="591.28" x2="991.51" y2="590.58"/><line id="Line_689" data-name="Line 689" class="cls-12" x1="998.31" y1="583.18" x2="992.41" y2="582.58"/><line id="Line_690" data-name="Line 690" class="cls-12" x1="999.11" y1="575.08" x2="993.11" y2="574.58"/><line id="Line_691" data-name="Line 691" class="cls-12" x1="999.81" y1="566.98" x2="993.81" y2="566.58"/><line id="Line_692" data-name="Line 692" class="cls-12" x1="1000.31" y1="558.78" x2="994.31" y2="558.48"/><line id="Line_693" data-name="Line 693" class="cls-12" x1="1000.61" y1="550.68" x2="994.61" y2="550.48"/><line id="Line_694" data-name="Line 694" class="cls-12" x1="1000.81" y1="542.58" x2="994.81" y2="542.38"/><line id="Line_695" data-name="Line 695" class="cls-12" x1="1000.91" y1="534.38" x2="994.91" y2="534.38"/><line id="Line_696" data-name="Line 696" class="cls-12" x1="1000.81" y1="526.18" x2="994.81" y2="526.38"/><line id="Line_697" data-name="Line 697" class="cls-12" x1="1000.61" y1="518.08" x2="994.61" y2="518.28"/><line id="Line_698" data-name="Line 698" class="cls-12" x1="1000.31" y1="509.98" x2="994.31" y2="510.28"/><line id="Line_699" data-name="Line 699" class="cls-12" x1="999.81" y1="501.78" x2="993.81" y2="502.18"/><line id="Line_700" data-name="Line 700" class="cls-12" x1="999.11" y1="493.68" x2="993.11" y2="494.18"/><line id="Line_701" data-name="Line 701" class="cls-12" x1="998.31" y1="485.58" x2="992.41" y2="486.18"/><line id="Line_702" data-name="Line 702" class="cls-12" x1="997.41" y1="477.48" x2="991.51" y2="478.18"/><line id="Line_703" data-name="Line 703" class="cls-12" x1="996.41" y1="469.38" x2="990.41" y2="470.18"/><line id="Line_704" data-name="Line 704" class="cls-12" x1="995.11" y1="461.28" x2="989.21" y2="462.28"/><line id="Line_705" data-name="Line 705" class="cls-12" x1="993.81" y1="453.28" x2="987.91" y2="454.28"/><line id="Line_706" data-name="Line 706" class="cls-12" x1="992.31" y1="445.28" x2="986.41" y2="446.38"/><line id="Line_707" data-name="Line 707" class="cls-12" x1="990.71" y1="437.28" x2="984.81" y2="438.58"/><line id="Line_708" data-name="Line 708" class="cls-12" x1="988.91" y1="429.28" x2="983.11" y2="430.68"/><line id="Line_709" data-name="Line 709" class="cls-12" x1="987.01" y1="421.38" x2="981.21" y2="422.88"/><line id="Line_710" data-name="Line 710" class="cls-12" x1="985.01" y1="413.48" x2="979.21" y2="415.08"/><line id="Line_711" data-name="Line 711" class="cls-12" x1="982.81" y1="405.68" x2="977.01" y2="407.28"/><line id="Line_712" data-name="Line 712" class="cls-12" x1="980.51" y1="397.88" x2="974.81" y2="399.58"/><line id="Line_713" data-name="Line 713" class="cls-12" x1="978.01" y1="390.08" x2="972.31" y2="391.88"/><line id="Line_714" data-name="Line 714" class="cls-12" x1="975.51" y1="382.38" x2="969.81" y2="384.28"/><line id="Line_715" data-name="Line 715" class="cls-12" x1="972.71" y1="374.68" x2="967.11" y2="376.68"/><line id="Line_716" data-name="Line 716" class="cls-12" x1="969.91" y1="366.98" x2="964.31" y2="369.18"/><line id="Line_717" data-name="Line 717" class="cls-12" x1="966.91" y1="359.48" x2="961.31" y2="361.68"/><line id="Line_718" data-name="Line 718" class="cls-12" x1="963.81" y1="351.88" x2="958.31" y2="354.28"/><line id="Line_719" data-name="Line 719" class="cls-12" x1="960.51" y1="344.48" x2="955.01" y2="346.88"/><line id="Line_720" data-name="Line 720" class="cls-12" x1="957.11" y1="336.98" x2="951.71" y2="339.58"/><line id="Line_721" data-name="Line 721" class="cls-12" x1="953.61" y1="329.68" x2="948.21" y2="332.28"/><line id="Line_722" data-name="Line 722" class="cls-12" x1="950.01" y1="322.38" x2="944.71" y2="325.08"/><line id="Line_723" data-name="Line 723" class="cls-12" x1="946.21" y1="315.18" x2="940.91" y2="317.98"/><line id="Line_724" data-name="Line 724" class="cls-12" x1="942.31" y1="307.98" x2="937.11" y2="310.88"/><line id="Line_725" data-name="Line 725" class="cls-12" x1="938.31" y1="300.88" x2="933.11" y2="303.88"/><line id="Line_726" data-name="Line 726" class="cls-12" x1="934.21" y1="293.88" x2="929.11" y2="296.98"/><line id="Line_727" data-name="Line 727" class="cls-12" x1="929.91" y1="286.88" x2="924.81" y2="290.08"/><line id="Line_728" data-name="Line 728" class="cls-12" x1="925.61" y1="280.08" x2="920.51" y2="283.28"/><line id="Line_729" data-name="Line 729" class="cls-12" x1="921.11" y1="273.28" x2="916.11" y2="276.58"/><line id="Line_730" data-name="Line 730" class="cls-12" x1="916.41" y1="266.48" x2="911.51" y2="269.98"/><line id="Line_731" data-name="Line 731" class="cls-12" x1="911.71" y1="259.88" x2="906.91" y2="263.38"/><line id="Line_732" data-name="Line 732" class="cls-12" x1="906.91" y1="253.38" x2="902.11" y2="256.98"/><line id="Line_733" data-name="Line 733" class="cls-12" x1="901.91" y1="246.88" x2="897.21" y2="250.58"/><line id="Line_734" data-name="Line 734" class="cls-12" x1="896.81" y1="240.48" x2="892.21" y2="244.28"/><line id="Line_735" data-name="Line 735" class="cls-12" x1="891.61" y1="234.18" x2="887.01" y2="238.08"/><line id="Line_736" data-name="Line 736" class="cls-12" x1="886.31" y1="227.98" x2="881.81" y2="231.98"/><line id="Line_737" data-name="Line 737" class="cls-12" x1="880.91" y1="221.88" x2="876.51" y2="225.88"/><line id="Line_738" data-name="Line 738" class="cls-12" x1="875.41" y1="215.88" x2="871.11" y2="219.98"/><line id="Line_739" data-name="Line 739" class="cls-12" x1="869.81" y1="209.98" x2="865.51" y2="214.18"/><line id="Line_740" data-name="Line 740" class="cls-12" x1="864.11" y1="204.18" x2="859.91" y2="208.38"/><line id="Line_741" data-name="Line 741" class="cls-12" x1="858.31" y1="198.48" x2="854.11" y2="202.78"/><line id="Line_742" data-name="Line 742" class="cls-12" x1="852.41" y1="192.88" x2="848.31" y2="197.18"/><line id="Line_743" data-name="Line 743" class="cls-12" x1="846.41" y1="187.38" x2="842.41" y2="191.78"/><line id="Line_744" data-name="Line 744" class="cls-12" x1="840.31" y1="181.98" x2="836.31" y2="186.48"/><line id="Line_745" data-name="Line 745" class="cls-12" x1="834.11" y1="176.68" x2="830.21" y2="181.28"/><line id="Line_746" data-name="Line 746" class="cls-12" x1="827.81" y1="171.48" x2="824.01" y2="176.08"/><line id="Line_747" data-name="Line 747" class="cls-12" x1="821.41" y1="166.38" x2="817.71" y2="171.08"/><line id="Line_748" data-name="Line 748" class="cls-12" x1="814.91" y1="161.38" x2="811.31" y2="166.18"/><line id="Line_749" data-name="Line 749" class="cls-12" x1="808.41" y1="156.58" x2="804.91" y2="161.38"/><line id="Line_750" data-name="Line 750" class="cls-12" x1="801.81" y1="151.88" x2="798.31" y2="156.78"/><line id="Line_751" data-name="Line 751" class="cls-12" x1="795.01" y1="147.18" x2="791.71" y2="152.18"/><line id="Line_752" data-name="Line 752" class="cls-12" x1="788.21" y1="142.68" x2="785.01" y2="147.78"/><line id="Line_753" data-name="Line 753" class="cls-12" x1="781.41" y1="138.38" x2="778.21" y2="143.48"/><line id="Line_754" data-name="Line 754" class="cls-12" x1="774.41" y1="134.08" x2="771.31" y2="139.18"/><line id="Line_755" data-name="Line 755" class="cls-12" x1="767.41" y1="129.98" x2="764.41" y2="135.18"/><line id="Line_756" data-name="Line 756" class="cls-12" x1="760.31" y1="125.98" x2="757.41" y2="131.18"/><line id="Line_757" data-name="Line 757" class="cls-12" x1="753.11" y1="122.08" x2="750.31" y2="127.38"/><line id="Line_758" data-name="Line 758" class="cls-12" x1="745.91" y1="118.28" x2="743.21" y2="123.58"/><line id="Line_759" data-name="Line 759" class="cls-12" x1="738.61" y1="114.68" x2="736.01" y2="120.08"/><line id="Line_760" data-name="Line 760" class="cls-12" x1="731.31" y1="111.18" x2="728.71" y2="116.58"/><line id="Line_761" data-name="Line 761" class="cls-12" x1="723.81" y1="107.78" x2="721.41" y2="113.28"/><line id="Line_762" data-name="Line 762" class="cls-12" x1="716.41" y1="104.48" x2="714.01" y2="109.98"/><line id="Line_763" data-name="Line 763" class="cls-12" x1="708.81" y1="101.38" x2="706.61" y2="106.98"/><line id="Line_764" data-name="Line 764" class="cls-12" x1="701.31" y1="98.38" x2="699.11" y2="103.98"/><line id="Line_765" data-name="Line 765" class="cls-12" x1="693.61" y1="95.58" x2="691.61" y2="101.18"/><line id="Line_766" data-name="Line 766" class="cls-12" x1="685.91" y1="92.78" x2="684.01" y2="98.48"/><line id="Line_767" data-name="Line 767" class="cls-12" x1="678.21" y1="90.28" x2="676.41" y2="95.98"/><line id="Line_768" data-name="Line 768" class="cls-12" x1="670.41" y1="87.78" x2="668.71" y2="93.48"/><line id="Line_769" data-name="Line 769" class="cls-12" x1="662.61" y1="85.48" x2="661.01" y2="91.28"/><line id="Line_770" data-name="Line 770" class="cls-12" x1="654.81" y1="83.28" x2="653.21" y2="89.08"/><line id="Line_771" data-name="Line 771" class="cls-12" x1="646.91" y1="81.28" x2="645.41" y2="87.08"/><line id="Line_772" data-name="Line 772" class="cls-12" x1="639.01" y1="79.38" x2="637.61" y2="85.18"/><line id="Line_773" data-name="Line 773" class="cls-12" x1="631.01" y1="77.58" x2="629.71" y2="83.48"/><line id="Line_774" data-name="Line 774" class="cls-12" x1="623.01" y1="75.98" x2="621.91" y2="81.88"/><line id="Line_775" data-name="Line 775" class="cls-12" x1="615.01" y1="74.48" x2="614.01" y2="80.38"/><line id="Line_776" data-name="Line 776" class="cls-12" x1="607.01" y1="73.18" x2="606.01" y2="79.08"/><line id="Line_777" data-name="Line 777" class="cls-12" x1="598.91" y1="71.88" x2="598.11" y2="77.88"/><line id="Line_778" data-name="Line 778" class="cls-12" x1="590.81" y1="70.88" x2="590.11" y2="76.78"/><line id="Line_779" data-name="Line 779" class="cls-12" x1="582.71" y1="69.98" x2="582.11" y2="75.88"/><line id="Line_780" data-name="Line 780" class="cls-12" x1="574.61" y1="69.18" x2="574.11" y2="75.18"/><line id="Line_781" data-name="Line 781" class="cls-12" x1="566.51" y1="68.48" x2="566.11" y2="74.48"/><line id="Line_782" data-name="Line 782" class="cls-12" x1="558.31" y1="67.98" x2="558.01" y2="73.98"/><line id="Line_783" data-name="Line 783" class="cls-12" x1="550.21" y1="67.68" x2="550.01" y2="73.68"/><line id="Line_784" data-name="Line 784" class="cls-12" x1="542.11" y1="67.48" x2="541.91" y2="73.48"/></g><circle id="Ellipse_176" data-name="Ellipse 176" class="cls-13" cx="533.91" cy="534.38" r="510"/></g><circle id="Ellipse_176-2" data-name="Ellipse 176-2" class="cls-13" cx="533.91" cy="533.91" r="533.91"/></g></svg>