<svg id="Layer_1" data-name="Layer 1" xmlns="http://www.w3.org/2000/svg" width="1067.82" height="1067.82" viewBox="0 0 1067.82 1067.82"><defs><style>.cls-1,.cls-4,.cls-6,.cls-7,.cls-8{fill:none;}.cls-1{stroke:#2f598c;}.cls-1,.cls-7{stroke-width:0.5px;}.cls-2{isolation:isolate;}.cls-3{fill:#003472;}.cls-4,.cls-6,.cls-7{stroke:#003472;}.cls-4,.cls-7{stroke-miterlimit:10;}.cls-5{fill:#70a8eb;}.cls-6{stroke-miterlimit:10;}</style></defs><g id="Group_1" data-name="Group 1"><g id="Group_614" data-name="Group 614"><path id="Subtraction_1" data-name="Subtraction 1" class="cls-1" d="M550,1030.08A487,487,0,0,1,501,1027.6a481.73,481.73,0,0,1-47.64-7.27c-15.45-3.16-30.92-7.14-46-11.82-14.89-4.63-29.72-10.06-44.08-16.13s-28.34-12.82-41.94-20.2-26.81-15.42-39.55-24A482.26,482.26,0,0,1,152.18,818.56c-8.61-12.75-16.7-26-24-39.55S114,751.3,108,737.07,96.45,707.88,91.82,693c-4.68-15-8.66-30.52-11.82-46a481.73,481.73,0,0,1-7.27-47.64,487,487,0,0,1-2.48-49c0-13.82.59-27.78,1.77-41.47,1.15-13.53,2.91-27.15,5.2-40.49s5.13-26.43,8.5-39.36S93,403.39,97.37,390.92a481.22,481.22,0,0,1,257.8-279.13c12-5.33,24.35-10.23,36.73-14.55S417.22,89,430,85.7a4,4,0,0,0,7.75-1.93c5.54-1.33,11.17-2.57,16.73-3.69a4,4,0,0,0,7.89-.93,3.9,3.9,0,0,0,0-.59c14.24-2.63,28.79-4.63,43.25-6,14.64-1.34,29.58-2,44.38-2a477.64,477.64,0,0,1,278.77,89.26,4,4,0,0,0,6.46,4.7c6.8,5,13.56,10.33,20.09,15.71a4,4,0,0,0,6.11,5.14,483.85,483.85,0,0,1,69.32,73,4,4,0,0,0,4.81,6.38c3.4,4.58,6.75,9.27,10,13.94a4,4,0,0,0,4.47,6.62c8.76,13.2,17,27,24.35,40.95S988.61,355,994.6,369.75a476.13,476.13,0,0,1,27.23,93.32,4,4,0,0,0,1.38,7.88c2.16,12.93,3.8,26.13,4.88,39.23,1.1,13.27,1.66,26.77,1.66,40.15a486.44,486.44,0,0,1-2.61,50.34h-.23a4,4,0,0,0-.67,7.94c-1.85,15.33-4.48,30.73-7.8,45.76a4,4,0,0,0-1.8,7.79c-3,12.43-6.47,24.88-10.43,37s-8.38,24.05-13.25,35.73A481.39,481.39,0,0,1,861.43,915.26a4,4,0,0,0-2.89-1.23,4,4,0,0,0-4,4,4,4,0,0,0,.77,2.37c-8.64,7.14-17.65,14.06-26.76,20.57a4,4,0,0,0-3-1.74h-.35a4,4,0,0,0-3.23,6.35,477.65,477.65,0,0,1-272,84.51Z" transform="translate(-16.09 -16.41)"/><g id="Group_605" data-name="Group 605"><g id="Э-103" class="cls-2"><g class="cls-2"><path class="cls-3" d="M1042.24,598.23l.89.11-.22,2a1.6,1.6,0,0,0,.84-.42,1.4,1.4,0,0,0,.41-.84,1.94,1.94,0,0,0-.37-1.33l.8-.51a2.66,2.66,0,0,1,.53,1.94,2.48,2.48,0,0,1-.94,1.74,2.6,2.6,0,0,1-3.58-.4,2.38,2.38,0,0,1-.52-1.87,3.06,3.06,0,0,1,.33-1.14,2.59,2.59,0,0,1,.72-.8l.64.75a2.62,2.62,0,0,0-.51.57,1.7,1.7,0,0,0-.22.7,1.33,1.33,0,0,0,.21.92,1.57,1.57,0,0,0,.77.59Z" transform="translate(-16.09 -16.41)"/><path class="cls-3" d="M1041.46,601.88l1,.12-.25,2.14-1-.12Z" transform="translate(-16.09 -16.41)"/><path class="cls-3" d="M1039.43,605l3.82.43-.11-.87.9-.12.26,1.44-.08.74-4.91-.56Z" transform="translate(-16.09 -16.41)"/><path class="cls-3" d="M1039.43,610.73a2.07,2.07,0,0,1,.35-3.12,2.72,2.72,0,0,1,1.87-.39,2.69,2.69,0,0,1,1.73.81,1.9,1.9,0,0,1,.54,1.64,2,2,0,0,1-.89,1.48,2.72,2.72,0,0,1-1.87.39A2.69,2.69,0,0,1,1039.43,610.73Zm1-2.24a.89.89,0,0,0-.53.72.91.91,0,0,0,.35.82,2.12,2.12,0,0,0,1.09.42,1.92,1.92,0,0,0,1.14-.18.89.89,0,0,0,.18-1.53,2,2,0,0,0-1.08-.42A1.85,1.85,0,0,0,1040.38,608.49Z" transform="translate(-16.09 -16.41)"/><path class="cls-3" d="M1038.38,613.55a2.36,2.36,0,0,1,1.06-1.8l.62.82a1.55,1.55,0,0,0-.72,1.11.72.72,0,0,0,.11.51.53.53,0,0,0,.41.24.5.5,0,0,0,.49-.19,1.28,1.28,0,0,0,.24-.69l.05-.44.7-.09,1,1.29.22-1.91.92.1-.38,3.29-.8-.09-1-1.36a1.34,1.34,0,0,1-1.53,1.15,1.5,1.5,0,0,1-1.09-.61A1.81,1.81,0,0,1,1038.38,613.55Z" transform="translate(-16.09 -16.41)"/></g></g><line id="Line_416" data-name="Line 416" class="cls-4" x1="997.91" y1="586.78" x2="985.99" y2="585.42"/></g><g id="Group_603" data-name="Group 603"><g id="АМУ3" class="cls-2"><g class="cls-2"><path class="cls-3" d="M1032.09,651.27l4.34,3.15-.23,1-5.28.94.26-1.1,1.17-.19.46-2-1-.68Zm1.56,2.34-.29,1.27,1.7-.28Z" transform="translate(-16.09 -16.41)"/><path class="cls-3" d="M1030.79,656.89l4.78,1.11-.27,1.13-2.3.79,1.73,1.72-.27,1.13-4.77-1.1.24-1,3.12.73-1.73-1.82v0l2.32-.86-3.1-.72Z" transform="translate(-16.09 -16.41)"/><path class="cls-3" d="M1031.25,665.18l2.26,1.74-.27,1.14-3.26-2.69a2.45,2.45,0,0,1-.73-.88,1.46,1.46,0,0,1-.07-1,2,2,0,0,1,.52-1l.67.58a1.2,1.2,0,0,0-.29.53.73.73,0,0,0,.25.69l4-1.08-.27,1.17Z" transform="translate(-16.09 -16.41)"/><path class="cls-3" d="M1027.91,669a2.37,2.37,0,0,1,1.25-1.67l.53.88a1.55,1.55,0,0,0-.84,1,.75.75,0,0,0,0,.52.56.56,0,0,0,.39.29.51.51,0,0,0,.51-.14,1.36,1.36,0,0,0,.32-.65l.1-.44h.7l.89,1.4.43-1.87.9.21-.74,3.22-.8-.18-.87-1.47a1.34,1.34,0,0,1-1.65,1,1.48,1.48,0,0,1-1-.73A1.8,1.8,0,0,1,1027.91,669Z" transform="translate(-16.09 -16.41)"/></g></g><line id="Line_414" data-name="Line 414" class="cls-4" x1="988.94" y1="638.96" x2="977.25" y2="636.27"/><circle id="Ellipse_189" data-name="Ellipse 189" class="cls-4" cx="1001.61" cy="641.89" r="4"/></g><circle id="Ellipse_168" data-name="Ellipse 168" class="cls-4" cx="1010.83" cy="588.25" r="4"/><g id="Group_604" data-name="Group 604"><g id="_АТ2_АМ5" data-name=" АТ2 АМ5" class="cls-2"><g class="cls-2"><path class="cls-5" d="M892.27,949.1l1.57,5.13-.77.64-4.78-2.43.87-.73,1.05.56,1.58-1.33-.36-1.13Zm-.16,2.81-1,.84,1.52.8Z" transform="translate(-16.09 -16.41)"/><path class="cls-5" d="M887.46,953.14l2.51,3,1.14-1,.64.77-3.11,2.6-.64-.76,1.14-.95-2.51-3Z" transform="translate(-16.09 -16.41)"/><path class="cls-5" d="M885.18,955.05l.55.65-.39,2.08a4.15,4.15,0,0,0-.1.92.88.88,0,0,0,.2.52.61.61,0,0,0,.44.25.76.76,0,0,0,.48-.18.87.87,0,0,0,.28-.43,2.4,2.4,0,0,0,.06-.72l1,0a2.87,2.87,0,0,1-.11,1.1,2,2,0,0,1-.64.85,1.7,1.7,0,0,1-1.2.47,1.42,1.42,0,0,1-1.07-.55,1.7,1.7,0,0,1-.34-.65,2,2,0,0,1-.06-.68c0-.23.08-.55.17-.95l.21-1L883,958.1l-.6-.72Z" transform="translate(-16.09 -16.41)"/></g><g class="cls-2"><path class="cls-5" d="M886.68,939.69l1.56,5.13-.76.64L882.7,943l.86-.72,1.05.55,1.59-1.33-.36-1.13Zm-.16,2.82-1,.83,1.52.8Z" transform="translate(-16.09 -16.41)"/><path class="cls-5" d="M882.26,943.4l3.15,3.76-.89.75-2.32-.76.34,2.41-.89.75-3.15-3.76.82-.68,2.06,2.45-.29-2.49,0,0,2.38.71-2-2.44Z" transform="translate(-16.09 -16.41)"/><path class="cls-5" d="M876.5,948.13a2.57,2.57,0,0,1,1.88-.62v1a1.75,1.75,0,0,0-1.24.34.92.92,0,0,0-.35.53.62.62,0,0,0,.17.53.58.58,0,0,0,.49.22,1,1,0,0,0,.6-.27,2.08,2.08,0,0,0,.51-.67l.74-.08,1.45,1.94L878.44,953l-.61-.72,1.6-1.34-.5-.69a2.56,2.56,0,0,1-.44.48,1.91,1.91,0,0,1-1.2.5,1.46,1.46,0,0,1-1.13-.61,1.6,1.6,0,0,1-.41-1.27A2,2,0,0,1,876.5,948.13Z" transform="translate(-16.09 -16.41)"/></g></g><g id="АМУ4_АТ4" data-name="АМУ4 АТ4" class="cls-2"><g class="cls-2"><path class="cls-3" d="M881.54,929.39l1.56,5.13-.76.64-4.78-2.43.86-.72,1.05.55,1.59-1.33-.36-1.13Zm-.16,2.81-1,.84,1.52.8Z" transform="translate(-16.09 -16.41)"/><path class="cls-3" d="M877.11,933.1l3.15,3.76-.89.74-2.32-.76.35,2.42-.89.75-3.15-3.76.82-.69,2.06,2.46-.29-2.49,0,0,2.38.71-2.05-2.44Z" transform="translate(-16.09 -16.41)"/><path class="cls-3" d="M872.49,940l.76,2.74-.9.75-1-4.11a2.51,2.51,0,0,1-.05-1.14,1.49,1.49,0,0,1,.52-.8,2.06,2.06,0,0,1,1-.46l.19.88a1,1,0,0,0-.55.25.7.7,0,0,0-.22.69l3.86,1.55-.93.78Z" transform="translate(-16.09 -16.41)"/><path class="cls-3" d="M867.11,941.5l.68.81,1.83-1.54.63.47-.06,4.12-.7.58-1.93-2.3-.5.42-.57-.67L867,943l-.68-.81Zm2.24.64-1,.84,1,1.17Z" transform="translate(-16.09 -16.41)"/></g><g class="cls-2"><path class="cls-3" d="M872.11,923.2l1.56,5.13-.76.64-4.78-2.43.86-.72,1,.55,1.59-1.33-.36-1.13ZM872,926l-1,.83,1.52.8Z" transform="translate(-16.09 -16.41)"/><path class="cls-3" d="M867.29,927.24l2.52,3,1.14-1,.64.76-3.11,2.61-.64-.76,1.14-1-2.51-3Z" transform="translate(-16.09 -16.41)"/><path class="cls-3" d="M863.14,930.73l.68.8,1.84-1.53.62.47-.06,4.11-.69.59-1.93-2.3-.51.42-.56-.67.51-.42-.68-.81Zm2.24.64-1,.84,1,1.16Z" transform="translate(-16.09 -16.41)"/></g></g><line id="Line_415" data-name="Line 415" class="cls-4" x1="834.09" y1="891.66" x2="826.38" y2="882.46"/><circle id="Ellipse_167" data-name="Ellipse 167" class="cls-4" cx="842.45" cy="901.61" r="4"/></g><g id="Group_615" data-name="Group 615"><g id="АМУ7" class="cls-2"><g class="cls-2"><path class="cls-3" d="M840.68,947.12l1.11,5.24-.81.57-4.55-2.83.92-.65,1,.64,1.7-1.19-.27-1.15Zm-.4,2.78-1.07.75,1.45.93Z" transform="translate(-16.09 -16.41)"/><path class="cls-3" d="M836,950.43l2.81,4-1,.67-2.24-1,.13,2.44-1,.66-2.81-4,.88-.62,1.83,2.62-.07-2.5,0,0,2.31.92L835.09,951Z" transform="translate(-16.09 -16.41)"/><path class="cls-3" d="M830.75,956.89l.52,2.8-1,.67-.63-4.18a2.46,2.46,0,0,1,.05-1.14,1.46,1.46,0,0,1,.58-.75,2,2,0,0,1,1-.37l.11.89a1.06,1.06,0,0,0-.57.2.72.72,0,0,0-.28.67l3.71,1.88-1,.69Z" transform="translate(-16.09 -16.41)"/><path class="cls-3" d="M827.06,956.66l.48,4.51,1.88-1.32.54.76-2.89,2-.47-.66-.54-4.61Z" transform="translate(-16.09 -16.41)"/></g></g><line id="Line_415-2" data-name="Line 415-2" class="cls-6" x1="801.74" y1="915.6" x2="794.85" y2="905.77"/><circle id="Ellipse_167-2" data-name="Ellipse 167-2" class="cls-6" cx="809.19" cy="926.25" r="4"/></g><g id="Group_606" data-name="Group 606"><g id="Э-80" class="cls-2"><g class="cls-2"><path class="cls-3" d="M1035.73,457.7l.88-.16.35,2a1.45,1.45,0,0,0,.7-.64,1.35,1.35,0,0,0,.14-.91,1.86,1.86,0,0,0-.73-1.17l.63-.72a2.64,2.64,0,0,1,1,1.71,2.48,2.48,0,0,1-2,3,2.52,2.52,0,0,1-1.9-.39,2.43,2.43,0,0,1-1-1.64,3,3,0,0,1,0-1.19,2.47,2.47,0,0,1,.46-1l.82.53a2.69,2.69,0,0,0-.32.7,1.72,1.72,0,0,0,0,.72,1.36,1.36,0,0,0,.47.83,1.59,1.59,0,0,0,.9.35Z" transform="translate(-16.09 -16.41)"/><path class="cls-3" d="M1036,461.42l1-.18.38,2.12-1,.18Z" transform="translate(-16.09 -16.41)"/><path class="cls-3" d="M1035.1,466.18a2.29,2.29,0,0,1,.15-1.4,1.25,1.25,0,0,1,.93-.71,1.23,1.23,0,0,1,1.3.58,1.19,1.19,0,0,1,1-.8,1.17,1.17,0,0,1,1,.3,1.88,1.88,0,0,1,.59,1.16,1.9,1.9,0,0,1-.16,1.29,1.23,1.23,0,0,1-2,.21,1.7,1.7,0,0,1-.36.67,1.14,1.14,0,0,1-.65.31,1.23,1.23,0,0,1-1.13-.33A2.34,2.34,0,0,1,1035.1,466.18Zm.88-.15a1,1,0,0,0,.28.58.51.51,0,0,0,.48.14.5.5,0,0,0,.39-.3,1,1,0,0,0,0-.63,1.08,1.08,0,0,0-.26-.58.55.55,0,0,0-.49-.15.53.53,0,0,0-.39.3A1,1,0,0,0,1036,466Zm2.13-.89a.71.71,0,0,0-.08.53.75.75,0,0,0,.25.47.59.59,0,0,0,.47.11.5.5,0,0,0,.36-.26.71.71,0,0,0,.08-.53.74.74,0,0,0-.25-.47.55.55,0,0,0-.44-.12A.55.55,0,0,0,1038.11,465.14Z" transform="translate(-16.09 -16.41)"/><path class="cls-3" d="M1036.87,472.12a2.07,2.07,0,0,1-.55-3.1,3,3,0,0,1,3.57-.62,2.06,2.06,0,0,1,.55,3.09,2.7,2.7,0,0,1-1.68.91A2.74,2.74,0,0,1,1036.87,472.12Zm.27-2.43a.94.94,0,0,0-.3.85.89.89,0,0,0,.57.68,2,2,0,0,0,1.16.09,1.85,1.85,0,0,0,1-.49.9.9,0,0,0,.31-.84.91.91,0,0,0-.57-.68,2,2,0,0,0-1.16-.09A2,2,0,0,0,1037.14,469.69Z" transform="translate(-16.09 -16.41)"/></g></g><line id="Line_417" data-name="Line 417" class="cls-4" x1="993.82" y1="452.82" x2="982" y2="454.9"/><circle id="Ellipse_169" data-name="Ellipse 169" class="cls-4" cx="1006.62" cy="450.56" r="4"/></g><g id="Group_607" data-name="Group 607"><g id="АМУ1" class="cls-2"><g class="cls-2"><path class="cls-5" d="M838.33,137.62l4.6-2.75.8.58-1.2,5.23-.91-.67.28-1.15-1.68-1.22-1,.63Zm2.77-.52,1,.77.41-1.67Z" transform="translate(-16.09 -16.41)"/><path class="cls-5" d="M843,141l2.88-4,.94.68-.18,2.43,2.26-.92.94.68-2.88,4-.86-.63,1.88-2.59-2.35.88h0l.11-2.48-1.86,2.57Z" transform="translate(-16.09 -16.41)"/><path class="cls-5" d="M850.81,143.84l2.48-1.4.94.68-3.75,2a2.39,2.39,0,0,1-1.09.33,1.47,1.47,0,0,1-.9-.31,2.07,2.07,0,0,1-.69-.85l.81-.4a1.1,1.1,0,0,0,.37.48.74.74,0,0,0,.73,0l.57-4.12,1,.71Z" transform="translate(-16.09 -16.41)"/><path class="cls-5" d="M852.32,147.79l2.26-3.11-.81-.33.33-.84,1.39.48.59.43-2.9,4Z" transform="translate(-16.09 -16.41)"/></g></g><g id="Э-36" class="cls-2"><g class="cls-2"><path class="cls-3" d="M835.26,146.49l.52-.73,1.62,1.18a1.52,1.52,0,0,0,.06-.94,1.38,1.38,0,0,0-.53-.76,1.88,1.88,0,0,0-1.34-.34l-.05-1a2.65,2.65,0,0,1,2,.5,2.46,2.46,0,0,1,1,1.67,2.5,2.5,0,0,1-.47,1.88,2.47,2.47,0,0,1-1.64,1,2.44,2.44,0,0,1-1.89-.46,3,3,0,0,1-.82-.86,2.42,2.42,0,0,1-.34-1l1-.2a2.32,2.32,0,0,0,.25.73,1.63,1.63,0,0,0,.49.53,1.29,1.29,0,0,0,.91.27,1.57,1.57,0,0,0,.89-.37Z" transform="translate(-16.09 -16.41)"/><path class="cls-3" d="M838,149l.6-.82,1.75,1.26-.6.83Z" transform="translate(-16.09 -16.41)"/><path class="cls-3" d="M840.61,153a2.35,2.35,0,0,1-1.05-1.81l1-.13a1.54,1.54,0,0,0,.61,1.17.75.75,0,0,0,.5.16.56.56,0,0,0,.42-.25.51.51,0,0,0,.06-.52,1.22,1.22,0,0,0-.47-.54l-.37-.27.27-.65,1.64-.27-1.56-1.13.54-.75,2.68,1.95-.48.66-1.69.23a1.34,1.34,0,0,1,.25,1.89,1.52,1.52,0,0,1-1.07.65A1.75,1.75,0,0,1,840.61,153Z" transform="translate(-16.09 -16.41)"/><path class="cls-3" d="M844.14,155.55a1.88,1.88,0,0,1-.83-1.26,2.51,2.51,0,0,1,.63-1.85,3.13,3.13,0,0,1,1.57-1.24,1.88,1.88,0,0,1,1.74.34,2.4,2.4,0,0,1,.92,1.34l-.95.34a2.23,2.23,0,0,0-.22-.53,1.28,1.28,0,0,0-.36-.38.82.82,0,0,0-.73-.15,1.58,1.58,0,0,0-.73.49,1.82,1.82,0,0,1,1,.34,1.85,1.85,0,0,1,.76,1.06,1.46,1.46,0,0,1-.29,1.23,1.56,1.56,0,0,1-1.15.67A2,2,0,0,1,844.14,155.55Zm.13-1.31a.89.89,0,0,0,.38.54.86.86,0,0,0,.62.19.69.69,0,0,0,.49-.29.67.67,0,0,0,.12-.56,1,1,0,0,0-.39-.52.86.86,0,0,0-.61-.21.67.67,0,0,0-.49.3A.68.68,0,0,0,844.27,154.24Z" transform="translate(-16.09 -16.41)"/></g></g><line id="Line_418" data-name="Line 418" class="cls-4" x1="808.41" y1="156.1" x2="801.35" y2="165.81"/><circle id="Ellipse_170" data-name="Ellipse 170" class="cls-4" cx="816.05" cy="145.58" r="4"/></g><g id="Group_608" data-name="Group 608"><g id="_АМ7" data-name=" АМ7" class="cls-2"><g class="cls-2"><path class="cls-5" d="M868.51,160.43l4.78-2.43.76.64-1.56,5.13-.86-.72.36-1.13-1.59-1.34-1,.56Zm2.8-.33,1,.84.52-1.64Z" transform="translate(-16.09 -16.41)"/><path class="cls-5" d="M872.94,164.14l3.15-3.75.89.75-.35,2.41,2.32-.76.89.75-3.15,3.75-.82-.68,2.06-2.45-2.41.71,0,0,.29-2.46-2,2.43Z" transform="translate(-16.09 -16.41)"/><path class="cls-5" d="M877.46,167.94l4.23-1.63-1.77-1.48.6-.72,2.7,2.27-.52.62-4.31,1.72Z" transform="translate(-16.09 -16.41)"/></g></g><g id="_Э-40" data-name=" Э-40" class="cls-2"><g class="cls-2"><path class="cls-3" d="M863.15,167.65l.58-.68,1.53,1.28a1.51,1.51,0,0,0,.12-.93,1.38,1.38,0,0,0-.47-.8,1.93,1.93,0,0,0-1.32-.43l0-1a2.66,2.66,0,0,1,1.91.64,2.56,2.56,0,0,1-1.38,4.5,2.39,2.39,0,0,1-1.84-.59,3.14,3.14,0,0,1-.77-.91,2.54,2.54,0,0,1-.27-1l1-.12a2.42,2.42,0,0,0,.21.73,1.5,1.5,0,0,0,.45.57,1.31,1.31,0,0,0,.89.33,1.47,1.47,0,0,0,.91-.31Z" transform="translate(-16.09 -16.41)"/><path class="cls-3" d="M865.76,170.32l.66-.79,1.65,1.39-.66.78Z" transform="translate(-16.09 -16.41)"/><path class="cls-3" d="M868.61,174.88l.68-.81-1.83-1.54.36-.7,4.06-.66.69.59-1.93,2.3.51.42-.56.67-.51-.42-.68.81Zm.25-2.32,1,.84,1-1.17Z" transform="translate(-16.09 -16.41)"/><path class="cls-3" d="M873.61,178.23a2.06,2.06,0,0,1-2.41-2,2.77,2.77,0,0,1,.7-1.78,2.7,2.7,0,0,1,1.63-1,2,2,0,0,1,1.68.45,1.94,1.94,0,0,1,.73,1.56,3,3,0,0,1-2.33,2.77Zm-1.35-2a.92.92,0,0,0,.31.84.89.89,0,0,0,.88.16,2.27,2.27,0,0,0,1.43-1.72.9.9,0,0,0-1.18-1,2,2,0,0,0-1,.67A2,2,0,0,0,872.26,176.2Z" transform="translate(-16.09 -16.41)"/></g></g><line id="Line_419" data-name="Line 419" class="cls-4" x1="834.09" y1="176.17" x2="826.38" y2="185.36"/><circle id="Ellipse_171" data-name="Ellipse 171" class="cls-4" cx="842.45" cy="166.21" r="4"/></g><g id="Group_609" data-name="Group 609"><g id="_АМ6" data-name=" АМ6" class="cls-2"><g class="cls-2"><path class="cls-5" d="M947.92,242l5.21-1.29.6.79-2.68,4.65-.68-.9.61-1-1.25-1.66-1.14.31Zm2.8.31.79,1,.87-1.48Z" transform="translate(-16.09 -16.41)"/><path class="cls-5" d="M951.4,246.58l3.91-3,.7.93-.88,2.28,2.43-.22.7.92-3.91,3-.65-.85,2.56-1.93-2.5.16,0,0,.83-2.34L952,247.42Z" transform="translate(-16.09 -16.41)"/><path class="cls-5" d="M956,252.77a1.9,1.9,0,0,1-.43-1.45,2.53,2.53,0,0,1,1.14-1.59,3.24,3.24,0,0,1,1.87-.72,1.88,1.88,0,0,1,1.56.83,2.39,2.39,0,0,1,.49,1.55l-1,.05a2.42,2.42,0,0,0-.05-.57,1.4,1.4,0,0,0-.24-.47.79.79,0,0,0-.66-.35,1.52,1.52,0,0,0-.84.25,1.84,1.84,0,0,1,.87.62,1.82,1.82,0,0,1,.41,1.24,1.44,1.44,0,0,1-.63,1.08,1.58,1.58,0,0,1-1.3.31A1.91,1.91,0,0,1,956,252.77Zm.5-1.21a.88.88,0,0,0,.21.62.91.91,0,0,0,.53.37.73.73,0,0,0,.84-.64,1.1,1.1,0,0,0-.75-1,.66.66,0,0,0-.55.14A.68.68,0,0,0,956.46,251.56Z" transform="translate(-16.09 -16.41)"/></g></g><g id="_АМУ6" data-name=" АМУ6" class="cls-2"><g class="cls-2"><path class="cls-3" d="M937.65,246.61l5.2-1.29.6.79-2.67,4.65-.68-.9.61-1-1.25-1.65-1.15.3Zm2.8.31.78,1,.88-1.48Z" transform="translate(-16.09 -16.41)"/><path class="cls-3" d="M941.12,251.22l3.92-2.95.7.93-.88,2.28,2.43-.22.7.93-3.92,2.95-.64-.86,2.55-1.92-2.5.15v0l.83-2.33-2.54,1.91Z" transform="translate(-16.09 -16.41)"/><path class="cls-3" d="M947.77,256.2l2.78-.61.7.93-4.16.78a2.53,2.53,0,0,1-1.14,0,1.5,1.5,0,0,1-.77-.56,2.11,2.11,0,0,1-.41-1l.89-.15a1.09,1.09,0,0,0,.22.57.73.73,0,0,0,.68.25l1.75-3.77.73,1Z" transform="translate(-16.09 -16.41)"/><path class="cls-3" d="M948.67,261.38a1.91,1.91,0,0,1-.43-1.45,2.57,2.57,0,0,1,1.14-1.59,3.21,3.21,0,0,1,1.87-.73,1.89,1.89,0,0,1,1.56.84,2.37,2.37,0,0,1,.49,1.55l-1,.05a2.26,2.26,0,0,0-.06-.57A1.46,1.46,0,0,0,952,259a.86.86,0,0,0-.66-.36,1.58,1.58,0,0,0-.84.26,1.75,1.75,0,0,1,.86.62,1.87,1.87,0,0,1,.42,1.23,1.45,1.45,0,0,1-.64,1.09,1.57,1.57,0,0,1-1.29.31A1.91,1.91,0,0,1,948.67,261.38Zm.5-1.22a1,1,0,0,0,.21.63.9.9,0,0,0,.54.37.7.7,0,0,0,.56-.15.68.68,0,0,0,.27-.49.94.94,0,0,0-.22-.62.86.86,0,0,0-.53-.37.63.63,0,0,0-.55.14A.66.66,0,0,0,949.17,260.16Z" transform="translate(-16.09 -16.41)"/></g></g><line id="Line_420" data-name="Line 420" class="cls-4" x1="906.88" y1="252.86" x2="897.29" y2="260.09"/><circle id="Ellipse_172" data-name="Ellipse 172" class="cls-4" cx="917.26" cy="245.04" r="4"/></g><g id="Group_610" data-name="Group 610"><g id="_АТ1" data-name=" АТ1" class="cls-2"><g class="cls-2"><path class="cls-5" d="M964.11,264.84l5.27-1,.56.82L967,269.15l-.63-.94.66-1-1.16-1.71-1.16.24Zm2.78.45.73,1.08,1-1.43Z" transform="translate(-16.09 -16.41)"/><path class="cls-5" d="M967.63,270.05l3.24-2.18-.84-1.24.83-.56,2.27,3.37-.83.55-.83-1.23-3.24,2.18Z" transform="translate(-16.09 -16.41)"/><path class="cls-5" d="M969.8,273.26l3.18-2.14-.65-.59.61-.68,1.13.93.41.61-4.09,2.76Z" transform="translate(-16.09 -16.41)"/></g></g><g id="_АТ3" data-name=" АТ3" class="cls-2"><g class="cls-2"><path class="cls-3" d="M954.92,270.1l5.27-1,.55.83-2.91,4.5-.63-.94.66-1-1.16-1.72-1.16.24Zm2.78.46.73,1.08,1-1.43Z" transform="translate(-16.09 -16.41)"/><path class="cls-3" d="M958.44,275.31l3.24-2.18-.84-1.24.83-.55,2.27,3.36-.83.56-.83-1.24L959,276.21Z" transform="translate(-16.09 -16.41)"/><path class="cls-3" d="M961.06,279.35a2.37,2.37,0,0,1-.37-2.06l1,.22a1.54,1.54,0,0,0,.18,1.31.7.7,0,0,0,.41.32.53.53,0,0,0,.48-.09.52.52,0,0,0,.24-.47,1.27,1.27,0,0,0-.26-.67l-.25-.37L963,277l1.63.32-1.08-1.6.77-.52,1.85,2.75-.67.45-1.67-.36a1.33,1.33,0,0,1-.42,1.86,1.47,1.47,0,0,1-1.22.25A1.82,1.82,0,0,1,961.06,279.35Z" transform="translate(-16.09 -16.41)"/></g></g><line id="Line_421" data-name="Line 421" class="cls-4" x1="921.07" y1="272.77" x2="911.12" y2="279.48"/><circle id="Ellipse_173" data-name="Ellipse 173" class="cls-4" cx="931.85" cy="265.5" r="4"/></g><g id="Group_611" data-name="Group 611"><g id="АМ44_АМ33_" data-name="АМ44 АМ33 " class="cls-2"><g class="cls-2"><path class="cls-5" d="M441.9,47.31,443,42.06l1-.19,3,4.45-1.11.21-.65-1-2,.4L443,47.1Zm1.5-2.38,1.28-.25-.94-1.44Z" transform="translate(-16.09 -16.41)"/><path class="cls-5" d="M447.57,46.21l-.94-4.81,1.14-.22L449.43,43l.87-2.28,1.14-.22.94,4.81-1.05.21-.61-3.14-1,2.31h0L448,42.89l.61,3.12Z" transform="translate(-16.09 -16.41)"/><path class="cls-5" d="M455.52,44.66l-.2-1-2.35.46-.32-.71,2-3.57.9-.18.57,3,.65-.13.16.86-.64.13.2,1ZM453.87,43l1.28-.24-.29-1.5Z" transform="translate(-16.09 -16.41)"/><path class="cls-5" d="M460.08,43.77l-.2-1-2.35.45-.32-.71,2-3.57.9-.18.57,3,.65-.12.17.86-.65.12.2,1Zm-1.65-1.64,1.28-.25-.29-1.5Z" transform="translate(-16.09 -16.41)"/></g><g class="cls-2"><path class="cls-5" d="M444.39,57.83l1.12-5.25,1-.19,3,4.45-1.11.21-.65-1-2,.39-.23,1.17Zm1.51-2.38,1.28-.25-.95-1.44Z" transform="translate(-16.09 -16.41)"/><path class="cls-5" d="M450.06,56.72l-.93-4.81,1.14-.22,1.66,1.79.87-2.28,1.14-.22.93,4.81-1.05.2-.61-3.14-.95,2.32h0l-1.74-1.78.61,3.12Z" transform="translate(-16.09 -16.41)"/><path class="cls-5" d="M457.43,55.38a2.37,2.37,0,0,1-2-.47l.59-.83a1.62,1.62,0,0,0,1.28.35.78.78,0,0,0,.46-.26.55.55,0,0,0,.1-.47.54.54,0,0,0-.33-.41,1.35,1.35,0,0,0-.73,0l-.44.08-.29-.64.92-1.37-1.89.36-.18-.91,3.25-.63.16.8-1,1.4a1.33,1.33,0,0,1,1.55,1.11,1.48,1.48,0,0,1-.25,1.22A1.74,1.74,0,0,1,457.43,55.38Z" transform="translate(-16.09 -16.41)"/><path class="cls-5" d="M461.52,54.58a2.37,2.37,0,0,1-2-.46l.59-.84a1.52,1.52,0,0,0,1.27.35.68.68,0,0,0,.46-.26.55.55,0,0,0,.11-.47.5.5,0,0,0-.34-.4,1.21,1.21,0,0,0-.72,0l-.44.09-.3-.64.93-1.38-1.89.37L459,50l3.25-.63.15.79-1,1.4A1.34,1.34,0,0,1,463,52.67a1.51,1.51,0,0,1-.25,1.23A1.82,1.82,0,0,1,461.52,54.58Z" transform="translate(-16.09 -16.41)"/></g></g><g id="АМУ5" class="cls-2"><g class="cls-2"><path class="cls-3" d="M446,68.44l1.12-5.25,1-.19,3,4.45-1.1.21-.65-1-2,.39-.23,1.17Zm1.51-2.38,1.28-.25-.95-1.44Z" transform="translate(-16.09 -16.41)"/><path class="cls-3" d="M451.7,67.33l-.93-4.81,1.14-.22,1.66,1.79.87-2.28,1.14-.22.93,4.81-1.05.2-.61-3.14-1,2.32h0L452.13,64l.61,3.12Z" transform="translate(-16.09 -16.41)"/><path class="cls-3" d="M459.09,63.55l.67-2.77,1.14-.23-1.12,4.08a2.6,2.6,0,0,1-.51,1,1.57,1.57,0,0,1-.84.45,2.14,2.14,0,0,1-1.09-.08l.26-.86a1.11,1.11,0,0,0,.6,0,.73.73,0,0,0,.53-.51l-2.62-3.22,1.18-.23Z" transform="translate(-16.09 -16.41)"/><path class="cls-3" d="M463.9,65.05a2.61,2.61,0,0,1-1.94-.37l.49-.89a1.8,1.8,0,0,0,1.25.3,1,1,0,0,0,.56-.29.65.65,0,0,0,.11-.55.6.6,0,0,0-.32-.43,1,1,0,0,0-.66,0,2.21,2.21,0,0,0-.77.33l-.69-.29-.32-2.39,2.95-.58.19.93-2.05.4.11.84a2.45,2.45,0,0,1,.61-.21,2,2,0,0,1,1.29.15,1.47,1.47,0,0,1,.7,1.08,1.56,1.56,0,0,1-.27,1.31A1.9,1.9,0,0,1,463.9,65.05Z" transform="translate(-16.09 -16.41)"/></g></g><line id="Line_422" data-name="Line 422" class="cls-4" x1="444.8" y1="75.49" x2="447.09" y2="87.27"/><circle id="Ellipse_174" data-name="Ellipse 174" class="cls-4" cx="442.32" cy="62.73" r="4"/></g><g id="Group_612" data-name="Group 612"><g id="АМ8" class="cls-2"><g class="cls-2"><path class="cls-5" d="M420.79,63.76l.84-5.29,1-.24,3.24,4.27-1.1.28-.7-1-2,.5-.17,1.18Zm1.38-2.46,1.26-.31-1-1.38Z" transform="translate(-16.09 -16.41)"/><path class="cls-5" d="M426.39,62.36l-1.19-4.75,1.13-.28,1.75,1.7.75-2.32,1.13-.28,1.18,4.75-1,.26-.77-3.11-.83,2.37h0L426.65,59l.77,3.08Z" transform="translate(-16.09 -16.41)"/><path class="cls-5" d="M433.7,60.61a2.16,2.16,0,0,1-1.41,0,1.27,1.27,0,0,1-.29-2.21,1.23,1.23,0,0,1-.87-.91,1.17,1.17,0,0,1,.24-1,1.93,1.93,0,0,1,1.11-.68,1.89,1.89,0,0,1,1.3.08,1.22,1.22,0,0,1,.35,2,1.9,1.9,0,0,1,.7.32,1.2,1.2,0,0,1,.35.63,1.23,1.23,0,0,1-.26,1.15A2.19,2.19,0,0,1,433.7,60.61Zm-1.25-2.92a.73.73,0,0,0,.53,0,.75.75,0,0,0,.45-.28.54.54,0,0,0,.08-.48.5.5,0,0,0-.28-.34.7.7,0,0,0-.54,0,.72.72,0,0,0-.45.28.57.57,0,0,0,.21.82Zm1,2.06a1,1,0,0,0,.56-.32.52.52,0,0,0,.11-.49.49.49,0,0,0-.33-.37,1,1,0,0,0-.63,0,1.08,1.08,0,0,0-.56.31.55.55,0,0,0-.12.49.58.58,0,0,0,.33.37A1,1,0,0,0,433.48,59.75Z" transform="translate(-16.09 -16.41)"/></g></g><g id="АМУ8" class="cls-2"><g class="cls-2"><path class="cls-3" d="M421.05,75l.84-5.29,1-.24,3.23,4.28-1.1.27-.7-1-2,.5-.17,1.18Zm1.38-2.45,1.26-.32-1-1.38Z" transform="translate(-16.09 -16.41)"/><path class="cls-3" d="M426.65,73.64l-1.19-4.76,1.13-.28,1.75,1.7.75-2.32,1.13-.28,1.18,4.75-1,.26-.78-3.1L428.76,72h0l-1.82-1.68.77,3.08Z" transform="translate(-16.09 -16.41)"/><path class="cls-3" d="M433.83,69.47l.52-2.8,1.13-.29-.91,4.13a2.33,2.33,0,0,1-.46,1,1.48,1.48,0,0,1-.81.5,2,2,0,0,1-1.09,0l.21-.87a1.15,1.15,0,0,0,.61,0,.74.74,0,0,0,.5-.53l-2.79-3.08,1.17-.29Z" transform="translate(-16.09 -16.41)"/><path class="cls-3" d="M438.77,70.68a2.16,2.16,0,0,1-1.41-.05,1.24,1.24,0,0,1-.77-.87,1.22,1.22,0,0,1,.49-1.34,1.2,1.2,0,0,1-.87-.9,1.19,1.19,0,0,1,.23-1,2,2,0,0,1,1.11-.68,1.92,1.92,0,0,1,1.31.08,1.23,1.23,0,0,1,.35,2,1.85,1.85,0,0,1,.69.32,1.15,1.15,0,0,1,.36.63A1.23,1.23,0,0,1,440,70,2.25,2.25,0,0,1,438.77,70.68Zm-1.25-2.92a.86.86,0,0,0,1-.24.61.61,0,0,0,.08-.48.54.54,0,0,0-.29-.34.73.73,0,0,0-.53,0,.79.79,0,0,0-.46.28.55.55,0,0,0-.08.45A.55.55,0,0,0,437.52,67.76Zm1,2.06a1,1,0,0,0,.56-.32.55.55,0,0,0,.11-.49.53.53,0,0,0-.33-.37,1.22,1.22,0,0,0-1.19.3.51.51,0,0,0-.12.5.53.53,0,0,0,.33.36A1,1,0,0,0,438.56,69.82Z" transform="translate(-16.09 -16.41)"/></g></g><line id="Line_423" data-name="Line 423" class="cls-4" x1="420.93" y1="80.78" x2="423.84" y2="92.43"/><circle id="Ellipse_175" data-name="Ellipse 175" class="cls-4" cx="417.79" cy="68.17" r="4"/></g><g id="Group_613" data-name="Group 613"><line id="Line_425" data-name="Line 425" class="cls-7" x1="533.91" y1="66.91" x2="533.91" y2="72.91"/><line id="Line_426" data-name="Line 426" class="cls-7" x1="525.76" y1="66.98" x2="525.87" y2="72.98"/><line id="Line_427" data-name="Line 427" class="cls-7" x1="517.61" y1="67.2" x2="517.82" y2="73.19"/><line id="Line_428" data-name="Line 428" class="cls-7" x1="509.47" y1="67.55" x2="509.79" y2="73.54"/><line id="Line_429" data-name="Line 429" class="cls-7" x1="501.34" y1="68.05" x2="501.76" y2="74.04"/><line id="Line_430" data-name="Line 430" class="cls-7" x1="493.21" y1="68.69" x2="493.73" y2="74.67"/><line id="Line_431" data-name="Line 431" class="cls-7" x1="485.1" y1="69.47" x2="485.72" y2="75.44"/><line id="Line_432" data-name="Line 432" class="cls-7" x1="477" y1="70.39" x2="477.73" y2="76.35"/><line id="Line_433" data-name="Line 433" class="cls-7" x1="468.92" y1="71.46" x2="469.75" y2="77.4"/><line id="Line_434" data-name="Line 434" class="cls-7" x1="460.86" y1="72.66" x2="461.8" y2="78.59"/><line id="Line_435" data-name="Line 435" class="cls-7" x1="452.82" y1="74.01" x2="453.86" y2="79.92"/><line id="Line_436" data-name="Line 436" class="cls-7" x1="444.8" y1="75.49" x2="445.95" y2="81.38"/><line id="Line_437" data-name="Line 437" class="cls-7" x1="436.82" y1="77.12" x2="438.06" y2="82.99"/><line id="Line_438" data-name="Line 438" class="cls-7" x1="428.86" y1="78.88" x2="430.21" y2="84.73"/><line id="Line_439" data-name="Line 439" class="cls-7" x1="420.93" y1="80.78" x2="422.39" y2="86.61"/><line id="Line_440" data-name="Line 440" class="cls-7" x1="413.04" y1="82.83" x2="414.6" y2="88.62"/><line id="Line_441" data-name="Line 441" class="cls-7" x1="405.19" y1="85" x2="406.84" y2="90.77"/><line id="Line_442" data-name="Line 442" class="cls-7" x1="397.37" y1="87.32" x2="399.13" y2="93.06"/><line id="Line_443" data-name="Line 443" class="cls-7" x1="389.6" y1="89.77" x2="391.46" y2="95.48"/><line id="Line_444" data-name="Line 444" class="cls-7" x1="381.87" y1="92.36" x2="383.83" y2="98.03"/><line id="Line_445" data-name="Line 445" class="cls-7" x1="374.19" y1="95.08" x2="376.24" y2="100.71"/><line id="Line_446" data-name="Line 446" class="cls-7" x1="366.55" y1="97.93" x2="368.7" y2="103.53"/><line id="Line_447" data-name="Line 447" class="cls-7" x1="358.97" y1="100.92" x2="361.22" y2="106.48"/><line id="Line_448" data-name="Line 448" class="cls-7" x1="351.44" y1="104.04" x2="353.79" y2="109.56"/><line id="Line_449" data-name="Line 449" class="cls-7" x1="343.97" y1="107.29" x2="346.41" y2="112.77"/><line id="Line_450" data-name="Line 450" class="cls-7" x1="336.55" y1="110.67" x2="339.09" y2="116.1"/><line id="Line_451" data-name="Line 451" class="cls-7" x1="329.19" y1="114.18" x2="331.82" y2="119.57"/><line id="Line_452" data-name="Line 452" class="cls-7" x1="321.9" y1="117.81" x2="324.62" y2="123.16"/><line id="Line_453" data-name="Line 453" class="cls-7" x1="314.67" y1="121.58" x2="317.49" y2="126.87"/><line id="Line_454" data-name="Line 454" class="cls-7" x1="307.51" y1="125.47" x2="310.42" y2="130.71"/><line id="Line_455" data-name="Line 455" class="cls-7" x1="300.41" y1="129.48" x2="303.41" y2="134.67"/><line id="Line_456" data-name="Line 456" class="cls-7" x1="293.39" y1="133.62" x2="296.48" y2="138.76"/><line id="Line_457" data-name="Line 457" class="cls-7" x1="286.44" y1="137.87" x2="289.62" y2="142.96"/><line id="Line_458" data-name="Line 458" class="cls-7" x1="279.57" y1="142.25" x2="282.83" y2="147.29"/><line id="Line_459" data-name="Line 459" class="cls-7" x1="272.77" y1="146.75" x2="276.12" y2="151.73"/><line id="Line_460" data-name="Line 460" class="cls-7" x1="266.05" y1="151.37" x2="269.49" y2="156.28"/><line id="Line_461" data-name="Line 461" class="cls-7" x1="259.42" y1="156.1" x2="262.94" y2="160.96"/><line id="Line_462" data-name="Line 462" class="cls-7" x1="252.86" y1="160.95" x2="256.48" y2="165.74"/><line id="Line_463" data-name="Line 463" class="cls-7" x1="246.4" y1="165.91" x2="250.09" y2="170.64"/><line id="Line_464" data-name="Line 464" class="cls-7" x1="240.02" y1="170.99" x2="243.8" y2="175.65"/><line id="Line_465" data-name="Line 465" class="cls-7" x1="233.73" y1="176.17" x2="237.59" y2="180.77"/><line id="Line_466" data-name="Line 466" class="cls-7" x1="227.53" y1="181.46" x2="231.47" y2="185.99"/><line id="Line_467" data-name="Line 467" class="cls-7" x1="221.43" y1="186.86" x2="225.44" y2="191.32"/><line id="Line_468" data-name="Line 468" class="cls-7" x1="215.42" y1="192.37" x2="219.51" y2="196.76"/><line id="Line_469" data-name="Line 469" class="cls-7" x1="209.51" y1="197.98" x2="213.68" y2="202.3"/><line id="Line_470" data-name="Line 470" class="cls-7" x1="203.69" y1="203.69" x2="207.94" y2="207.94"/><line id="Line_471" data-name="Line 471" class="cls-7" x1="197.98" y1="209.51" x2="202.3" y2="213.67"/><line id="Line_472" data-name="Line 472" class="cls-7" x1="192.37" y1="215.42" x2="196.76" y2="219.51"/><line id="Line_473" data-name="Line 473" class="cls-7" x1="186.86" y1="221.43" x2="191.32" y2="225.44"/><line id="Line_474" data-name="Line 474" class="cls-7" x1="181.46" y1="227.53" x2="185.99" y2="231.47"/><line id="Line_475" data-name="Line 475" class="cls-7" x1="176.17" y1="233.73" x2="180.77" y2="237.59"/><line id="Line_476" data-name="Line 476" class="cls-7" x1="170.99" y1="240.02" x2="175.65" y2="243.8"/><line id="Line_477" data-name="Line 477" class="cls-7" x1="165.91" y1="246.4" x2="170.64" y2="250.09"/><line id="Line_478" data-name="Line 478" class="cls-7" x1="160.95" y1="252.86" x2="165.74" y2="256.48"/><line id="Line_479" data-name="Line 479" class="cls-7" x1="156.1" y1="259.42" x2="160.96" y2="262.94"/><line id="Line_480" data-name="Line 480" class="cls-7" x1="151.37" y1="266.05" x2="156.28" y2="269.49"/><line id="Line_481" data-name="Line 481" class="cls-7" x1="146.75" y1="272.77" x2="151.73" y2="276.12"/><line id="Line_482" data-name="Line 482" class="cls-7" x1="142.25" y1="279.57" x2="147.29" y2="282.83"/><line id="Line_483" data-name="Line 483" class="cls-7" x1="137.87" y1="286.44" x2="142.96" y2="289.62"/><line id="Line_484" data-name="Line 484" class="cls-7" x1="133.62" y1="293.39" x2="138.76" y2="296.48"/><line id="Line_485" data-name="Line 485" class="cls-7" x1="129.48" y1="300.41" x2="134.67" y2="303.41"/><line id="Line_486" data-name="Line 486" class="cls-7" x1="125.47" y1="307.51" x2="130.71" y2="310.42"/><line id="Line_487" data-name="Line 487" class="cls-7" x1="121.58" y1="314.67" x2="126.87" y2="317.49"/><line id="Line_488" data-name="Line 488" class="cls-7" x1="117.81" y1="321.9" x2="123.16" y2="324.62"/><line id="Line_489" data-name="Line 489" class="cls-7" x1="114.18" y1="329.19" x2="119.57" y2="331.82"/><line id="Line_490" data-name="Line 490" class="cls-7" x1="110.67" y1="336.55" x2="116.1" y2="339.09"/><line id="Line_491" data-name="Line 491" class="cls-7" x1="107.29" y1="343.97" x2="112.77" y2="346.41"/><line id="Line_492" data-name="Line 492" class="cls-7" x1="104.04" y1="351.44" x2="109.56" y2="353.79"/><line id="Line_493" data-name="Line 493" class="cls-7" x1="100.92" y1="358.97" x2="106.48" y2="361.22"/><line id="Line_494" data-name="Line 494" class="cls-7" x1="97.93" y1="366.55" x2="103.53" y2="368.7"/><line id="Line_495" data-name="Line 495" class="cls-7" x1="95.08" y1="374.19" x2="100.71" y2="376.24"/><line id="Line_496" data-name="Line 496" class="cls-7" x1="92.36" y1="381.87" x2="98.03" y2="383.83"/><line id="Line_497" data-name="Line 497" class="cls-7" x1="89.77" y1="389.6" x2="95.48" y2="391.46"/><line id="Line_498" data-name="Line 498" class="cls-7" x1="87.32" y1="397.37" x2="93.06" y2="399.13"/><line id="Line_499" data-name="Line 499" class="cls-7" x1="85" y1="405.19" x2="90.77" y2="406.84"/><line id="Line_500" data-name="Line 500" class="cls-7" x1="82.83" y1="413.04" x2="88.62" y2="414.6"/><line id="Line_501" data-name="Line 501" class="cls-7" x1="80.78" y1="420.93" x2="86.61" y2="422.39"/><line id="Line_502" data-name="Line 502" class="cls-7" x1="78.88" y1="428.86" x2="84.73" y2="430.21"/><line id="Line_503" data-name="Line 503" class="cls-7" x1="77.12" y1="436.82" x2="82.99" y2="438.06"/><line id="Line_504" data-name="Line 504" class="cls-7" x1="75.49" y1="444.8" x2="81.38" y2="445.95"/><line id="Line_505" data-name="Line 505" class="cls-7" x1="74.01" y1="452.82" x2="79.92" y2="453.86"/><line id="Line_506" data-name="Line 506" class="cls-7" x1="72.66" y1="460.86" x2="78.59" y2="461.8"/><line id="Line_507" data-name="Line 507" class="cls-7" x1="71.46" y1="468.92" x2="77.4" y2="469.75"/><line id="Line_508" data-name="Line 508" class="cls-7" x1="70.39" y1="477" x2="76.35" y2="477.73"/><line id="Line_509" data-name="Line 509" class="cls-7" x1="69.47" y1="485.1" x2="75.44" y2="485.72"/><line id="Line_510" data-name="Line 510" class="cls-7" x1="68.69" y1="493.21" x2="74.67" y2="493.73"/><line id="Line_511" data-name="Line 511" class="cls-7" x1="68.05" y1="501.34" x2="74.04" y2="501.76"/><line id="Line_512" data-name="Line 512" class="cls-7" x1="67.55" y1="509.47" x2="73.54" y2="509.79"/><line id="Line_513" data-name="Line 513" class="cls-7" x1="67.2" y1="517.61" x2="73.19" y2="517.82"/><line id="Line_514" data-name="Line 514" class="cls-7" x1="66.98" y1="525.76" x2="72.98" y2="525.87"/><line id="Line_515" data-name="Line 515" class="cls-7" x1="66.91" y1="533.91" x2="72.91" y2="533.91"/><line id="Line_516" data-name="Line 516" class="cls-7" x1="66.98" y1="542.06" x2="72.98" y2="541.96"/><line id="Line_517" data-name="Line 517" class="cls-7" x1="67.2" y1="550.21" x2="73.19" y2="550"/><line id="Line_518" data-name="Line 518" class="cls-7" x1="67.55" y1="558.35" x2="73.54" y2="558.04"/><line id="Line_519" data-name="Line 519" class="cls-7" x1="68.05" y1="566.49" x2="74.04" y2="566.07"/><line id="Line_520" data-name="Line 520" class="cls-7" x1="68.69" y1="574.61" x2="74.67" y2="574.09"/><line id="Line_521" data-name="Line 521" class="cls-7" x1="69.47" y1="582.73" x2="75.44" y2="582.1"/><line id="Line_522" data-name="Line 522" class="cls-7" x1="70.39" y1="590.83" x2="76.35" y2="590.09"/><line id="Line_523" data-name="Line 523" class="cls-7" x1="71.46" y1="598.91" x2="77.4" y2="598.07"/><line id="Line_524" data-name="Line 524" class="cls-7" x1="72.66" y1="606.97" x2="78.59" y2="606.03"/><line id="Line_525" data-name="Line 525" class="cls-7" x1="74.01" y1="615.01" x2="79.92" y2="613.96"/><line id="Line_526" data-name="Line 526" class="cls-7" x1="75.49" y1="623.02" x2="81.38" y2="621.88"/><line id="Line_527" data-name="Line 527" class="cls-7" x1="77.12" y1="631.01" x2="82.99" y2="629.76"/><line id="Line_528" data-name="Line 528" class="cls-7" x1="78.88" y1="638.96" x2="84.73" y2="637.61"/><line id="Line_529" data-name="Line 529" class="cls-7" x1="80.78" y1="646.89" x2="86.61" y2="645.44"/><line id="Line_530" data-name="Line 530" class="cls-7" x1="82.83" y1="654.78" x2="88.62" y2="653.23"/><line id="Line_531" data-name="Line 531" class="cls-7" x1="85" y1="662.64" x2="90.77" y2="660.98"/><line id="Line_532" data-name="Line 532" class="cls-7" x1="87.32" y1="670.45" x2="93.06" y2="668.7"/><line id="Line_533" data-name="Line 533" class="cls-7" x1="89.77" y1="678.22" x2="95.48" y2="676.37"/><line id="Line_534" data-name="Line 534" class="cls-7" x1="92.36" y1="685.95" x2="98.03" y2="684"/><line id="Line_535" data-name="Line 535" class="cls-7" x1="95.08" y1="693.64" x2="100.71" y2="691.58"/><line id="Line_536" data-name="Line 536" class="cls-7" x1="97.93" y1="701.27" x2="103.53" y2="699.12"/><line id="Line_537" data-name="Line 537" class="cls-7" x1="100.92" y1="708.85" x2="106.48" y2="706.61"/><line id="Line_538" data-name="Line 538" class="cls-7" x1="104.04" y1="716.38" x2="109.56" y2="714.04"/><line id="Line_539" data-name="Line 539" class="cls-7" x1="107.29" y1="723.86" x2="112.77" y2="721.42"/><line id="Line_540" data-name="Line 540" class="cls-7" x1="110.67" y1="731.28" x2="116.1" y2="728.74"/><line id="Line_541" data-name="Line 541" class="cls-7" x1="114.18" y1="738.63" x2="119.57" y2="736"/><line id="Line_542" data-name="Line 542" class="cls-7" x1="117.81" y1="745.93" x2="123.16" y2="743.2"/><line id="Line_543" data-name="Line 543" class="cls-7" x1="121.58" y1="753.16" x2="126.87" y2="750.34"/><line id="Line_544" data-name="Line 544" class="cls-7" x1="125.47" y1="760.32" x2="130.71" y2="757.41"/><line id="Line_545" data-name="Line 545" class="cls-7" x1="129.48" y1="767.41" x2="134.67" y2="764.41"/><line id="Line_546" data-name="Line 546" class="cls-7" x1="133.62" y1="774.43" x2="138.76" y2="771.34"/><line id="Line_547" data-name="Line 547" class="cls-7" x1="137.87" y1="781.39" x2="142.96" y2="778.21"/><line id="Line_548" data-name="Line 548" class="cls-7" x1="142.25" y1="788.26" x2="147.29" y2="784.99"/><line id="Line_549" data-name="Line 549" class="cls-7" x1="146.75" y1="795.06" x2="151.73" y2="791.7"/><line id="Line_550" data-name="Line 550" class="cls-7" x1="151.37" y1="801.77" x2="156.28" y2="798.33"/><line id="Line_551" data-name="Line 551" class="cls-7" x1="156.1" y1="808.41" x2="160.96" y2="804.88"/><line id="Line_552" data-name="Line 552" class="cls-7" x1="160.95" y1="814.96" x2="165.74" y2="811.35"/><line id="Line_553" data-name="Line 553" class="cls-7" x1="165.91" y1="821.43" x2="170.64" y2="817.73"/><line id="Line_554" data-name="Line 554" class="cls-7" x1="170.99" y1="827.81" x2="175.65" y2="824.03"/><line id="Line_555" data-name="Line 555" class="cls-7" x1="176.17" y1="834.09" x2="180.77" y2="830.24"/><line id="Line_556" data-name="Line 556" class="cls-7" x1="181.46" y1="840.29" x2="185.99" y2="836.36"/><line id="Line_557" data-name="Line 557" class="cls-7" x1="186.86" y1="846.4" x2="191.32" y2="842.38"/><line id="Line_558" data-name="Line 558" class="cls-7" x1="192.37" y1="852.41" x2="196.76" y2="848.31"/><line id="Line_559" data-name="Line 559" class="cls-7" x1="197.98" y1="858.32" x2="202.3" y2="854.15"/><line id="Line_560" data-name="Line 560" class="cls-7" x1="203.69" y1="864.13" x2="207.94" y2="859.89"/><line id="Line_561" data-name="Line 561" class="cls-7" x1="209.51" y1="869.84" x2="213.68" y2="865.53"/><line id="Line_562" data-name="Line 562" class="cls-7" x1="215.42" y1="875.45" x2="219.51" y2="871.07"/><line id="Line_563" data-name="Line 563" class="cls-7" x1="221.43" y1="880.96" x2="225.44" y2="876.5"/><line id="Line_564" data-name="Line 564" class="cls-7" x1="227.53" y1="886.36" x2="231.47" y2="881.83"/><line id="Line_565" data-name="Line 565" class="cls-7" x1="233.73" y1="891.65" x2="237.59" y2="887.06"/><line id="Line_566" data-name="Line 566" class="cls-7" x1="240.02" y1="896.84" x2="243.8" y2="892.18"/><line id="Line_567" data-name="Line 567" class="cls-7" x1="246.4" y1="901.91" x2="250.09" y2="897.19"/><line id="Line_568" data-name="Line 568" class="cls-7" x1="252.86" y1="906.88" x2="256.48" y2="902.08"/><line id="Line_569" data-name="Line 569" class="cls-7" x1="259.42" y1="911.72" x2="262.94" y2="906.87"/><line id="Line_570" data-name="Line 570" class="cls-7" x1="266.05" y1="916.46" x2="269.49" y2="911.54"/><line id="Line_571" data-name="Line 571" class="cls-7" x1="272.77" y1="921.07" x2="276.12" y2="916.1"/><line id="Line_572" data-name="Line 572" class="cls-7" x1="279.57" y1="925.57" x2="282.83" y2="920.54"/><line id="Line_573" data-name="Line 573" class="cls-7" x1="286.44" y1="929.95" x2="289.62" y2="924.86"/><line id="Line_574" data-name="Line 574" class="cls-7" x1="293.39" y1="934.21" x2="296.48" y2="929.07"/><line id="Line_575" data-name="Line 575" class="cls-7" x1="300.41" y1="938.35" x2="303.41" y2="933.15"/><line id="Line_576" data-name="Line 576" class="cls-7" x1="307.51" y1="942.36" x2="310.42" y2="937.11"/><line id="Line_577" data-name="Line 577" class="cls-7" x1="314.67" y1="946.25" x2="317.49" y2="940.95"/><line id="Line_578" data-name="Line 578" class="cls-7" x1="321.9" y1="950.01" x2="324.62" y2="944.67"/><line id="Line_579" data-name="Line 579" class="cls-7" x1="329.19" y1="953.65" x2="331.82" y2="948.26"/><line id="Line_580" data-name="Line 580" class="cls-7" x1="336.55" y1="957.16" x2="339.09" y2="951.72"/><line id="Line_581" data-name="Line 581" class="cls-7" x1="343.97" y1="960.54" x2="346.41" y2="955.06"/><line id="Line_582" data-name="Line 582" class="cls-7" x1="351.44" y1="963.79" x2="353.79" y2="958.27"/><line id="Line_583" data-name="Line 583" class="cls-7" x1="358.97" y1="966.91" x2="361.22" y2="961.34"/><line id="Line_584" data-name="Line 584" class="cls-7" x1="366.55" y1="969.89" x2="368.7" y2="964.29"/><line id="Line_585" data-name="Line 585" class="cls-7" x1="374.19" y1="972.75" x2="376.24" y2="967.11"/><line id="Line_586" data-name="Line 586" class="cls-7" x1="381.87" y1="975.47" x2="383.83" y2="969.8"/><line id="Line_587" data-name="Line 587" class="cls-7" x1="389.6" y1="978.06" x2="391.46" y2="972.35"/><line id="Line_588" data-name="Line 588" class="cls-7" x1="397.37" y1="980.51" x2="399.13" y2="974.77"/><line id="Line_589" data-name="Line 589" class="cls-7" x1="405.19" y1="982.82" x2="406.84" y2="977.05"/><line id="Line_590" data-name="Line 590" class="cls-7" x1="413.04" y1="985" x2="414.6" y2="979.2"/><line id="Line_591" data-name="Line 591" class="cls-7" x1="420.93" y1="987.04" x2="422.39" y2="981.22"/><line id="Line_592" data-name="Line 592" class="cls-7" x1="428.86" y1="988.94" x2="430.21" y2="983.1"/><line id="Line_593" data-name="Line 593" class="cls-7" x1="436.82" y1="990.71" x2="438.06" y2="984.84"/><line id="Line_594" data-name="Line 594" class="cls-7" x1="444.8" y1="992.33" x2="445.95" y2="986.44"/><line id="Line_595" data-name="Line 595" class="cls-7" x1="452.82" y1="993.82" x2="453.86" y2="987.91"/><line id="Line_596" data-name="Line 596" class="cls-7" x1="460.86" y1="995.16" x2="461.8" y2="989.24"/><line id="Line_597" data-name="Line 597" class="cls-7" x1="468.92" y1="996.37" x2="469.75" y2="990.43"/><line id="Line_598" data-name="Line 598" class="cls-7" x1="477" y1="997.43" x2="477.73" y2="991.48"/><line id="Line_599" data-name="Line 599" class="cls-7" x1="485.1" y1="998.35" x2="485.72" y2="992.39"/><line id="Line_600" data-name="Line 600" class="cls-7" x1="493.21" y1="999.14" x2="493.73" y2="993.16"/><line id="Line_601" data-name="Line 601" class="cls-7" x1="501.34" y1="999.77" x2="501.76" y2="993.79"/><line id="Line_602" data-name="Line 602" class="cls-7" x1="509.47" y1="1000.27" x2="509.79" y2="994.28"/><line id="Line_603" data-name="Line 603" class="cls-7" x1="517.61" y1="1000.63" x2="517.82" y2="994.63"/><line id="Line_604" data-name="Line 604" class="cls-7" x1="525.76" y1="1000.84" x2="525.87" y2="994.84"/><line id="Line_605" data-name="Line 605" class="cls-7" x1="533.91" y1="1000.91" x2="533.91" y2="994.91"/><line id="Line_606" data-name="Line 606" class="cls-7" x1="542.06" y1="1000.84" x2="541.96" y2="994.84"/><line id="Line_607" data-name="Line 607" class="cls-7" x1="550.21" y1="1000.63" x2="550" y2="994.63"/><line id="Line_608" data-name="Line 608" class="cls-7" x1="558.35" y1="1000.27" x2="558.04" y2="994.28"/><line id="Line_609" data-name="Line 609" class="cls-7" x1="566.49" y1="999.77" x2="566.07" y2="993.79"/><line id="Line_610" data-name="Line 610" class="cls-7" x1="574.61" y1="999.14" x2="574.09" y2="993.16"/><line id="Line_611" data-name="Line 611" class="cls-7" x1="582.73" y1="998.35" x2="582.1" y2="992.39"/><line id="Line_612" data-name="Line 612" class="cls-7" x1="590.83" y1="997.43" x2="590.09" y2="991.48"/><line id="Line_613" data-name="Line 613" class="cls-7" x1="598.91" y1="996.37" x2="598.07" y2="990.43"/><line id="Line_614" data-name="Line 614" class="cls-7" x1="606.97" y1="995.16" x2="606.03" y2="989.24"/><line id="Line_615" data-name="Line 615" class="cls-7" x1="615.01" y1="993.82" x2="613.96" y2="987.91"/><line id="Line_616" data-name="Line 616" class="cls-7" x1="623.02" y1="992.33" x2="621.88" y2="986.44"/><line id="Line_617" data-name="Line 617" class="cls-7" x1="631.01" y1="990.71" x2="629.76" y2="984.84"/><line id="Line_618" data-name="Line 618" class="cls-7" x1="638.96" y1="988.94" x2="637.61" y2="983.1"/><line id="Line_619" data-name="Line 619" class="cls-7" x1="646.89" y1="987.04" x2="645.44" y2="981.22"/><line id="Line_620" data-name="Line 620" class="cls-7" x1="654.78" y1="985" x2="653.23" y2="979.2"/><line id="Line_621" data-name="Line 621" class="cls-7" x1="662.64" y1="982.82" x2="660.98" y2="977.05"/><line id="Line_622" data-name="Line 622" class="cls-7" x1="670.45" y1="980.51" x2="668.7" y2="974.77"/><line id="Line_623" data-name="Line 623" class="cls-7" x1="678.22" y1="978.06" x2="676.37" y2="972.35"/><line id="Line_624" data-name="Line 624" class="cls-7" x1="685.95" y1="975.47" x2="684" y2="969.8"/><line id="Line_625" data-name="Line 625" class="cls-7" x1="693.64" y1="972.75" x2="691.58" y2="967.11"/><line id="Line_626" data-name="Line 626" class="cls-7" x1="701.27" y1="969.89" x2="699.12" y2="964.29"/><line id="Line_627" data-name="Line 627" class="cls-7" x1="708.85" y1="966.91" x2="706.61" y2="961.34"/><line id="Line_628" data-name="Line 628" class="cls-7" x1="716.38" y1="963.79" x2="714.04" y2="958.27"/><line id="Line_629" data-name="Line 629" class="cls-7" x1="723.86" y1="960.54" x2="721.42" y2="955.06"/><line id="Line_630" data-name="Line 630" class="cls-7" x1="731.28" y1="957.16" x2="728.74" y2="951.72"/><line id="Line_631" data-name="Line 631" class="cls-7" x1="738.63" y1="953.65" x2="736" y2="948.26"/><line id="Line_632" data-name="Line 632" class="cls-7" x1="745.93" y1="950.01" x2="743.2" y2="944.67"/><line id="Line_633" data-name="Line 633" class="cls-7" x1="753.16" y1="946.25" x2="750.34" y2="940.95"/><line id="Line_634" data-name="Line 634" class="cls-7" x1="760.32" y1="942.36" x2="757.41" y2="937.11"/><line id="Line_635" data-name="Line 635" class="cls-7" x1="767.41" y1="938.35" x2="764.41" y2="933.15"/><line id="Line_636" data-name="Line 636" class="cls-7" x1="774.43" y1="934.21" x2="771.34" y2="929.07"/><line id="Line_637" data-name="Line 637" class="cls-7" x1="781.39" y1="929.95" x2="778.21" y2="924.86"/><line id="Line_638" data-name="Line 638" class="cls-7" x1="788.26" y1="925.57" x2="784.99" y2="920.54"/><line id="Line_639" data-name="Line 639" class="cls-7" x1="795.06" y1="921.07" x2="791.7" y2="916.1"/><line id="Line_641" data-name="Line 641" class="cls-7" x1="808.41" y1="911.72" x2="804.88" y2="906.87"/><line id="Line_642" data-name="Line 642" class="cls-7" x1="814.96" y1="906.88" x2="811.35" y2="902.08"/><line id="Line_643" data-name="Line 643" class="cls-7" x1="821.43" y1="901.91" x2="817.73" y2="897.19"/><line id="Line_644" data-name="Line 644" class="cls-7" x1="827.81" y1="896.84" x2="824.03" y2="892.18"/><line id="Line_645" data-name="Line 645" class="cls-7" x1="834.09" y1="891.65" x2="830.24" y2="887.06"/><line id="Line_646" data-name="Line 646" class="cls-7" x1="840.29" y1="886.36" x2="836.36" y2="881.83"/><line id="Line_647" data-name="Line 647" class="cls-7" x1="846.4" y1="880.96" x2="842.38" y2="876.5"/><line id="Line_648" data-name="Line 648" class="cls-7" x1="852.41" y1="875.45" x2="848.31" y2="871.07"/><line id="Line_649" data-name="Line 649" class="cls-7" x1="858.32" y1="869.84" x2="854.15" y2="865.53"/><line id="Line_650" data-name="Line 650" class="cls-7" x1="864.13" y1="864.13" x2="859.89" y2="859.89"/><line id="Line_651" data-name="Line 651" class="cls-7" x1="869.84" y1="858.32" x2="865.53" y2="854.15"/><line id="Line_652" data-name="Line 652" class="cls-7" x1="875.45" y1="852.41" x2="871.07" y2="848.31"/><line id="Line_653" data-name="Line 653" class="cls-7" x1="880.96" y1="846.4" x2="876.5" y2="842.38"/><line id="Line_654" data-name="Line 654" class="cls-7" x1="886.36" y1="840.29" x2="881.83" y2="836.36"/><line id="Line_655" data-name="Line 655" class="cls-7" x1="891.65" y1="834.09" x2="887.06" y2="830.24"/><line id="Line_656" data-name="Line 656" class="cls-7" x1="896.84" y1="827.81" x2="892.18" y2="824.03"/><line id="Line_657" data-name="Line 657" class="cls-7" x1="901.91" y1="821.43" x2="897.19" y2="817.73"/><line id="Line_658" data-name="Line 658" class="cls-7" x1="906.88" y1="814.96" x2="902.08" y2="811.35"/><line id="Line_659" data-name="Line 659" class="cls-7" x1="911.72" y1="808.41" x2="906.87" y2="804.88"/><line id="Line_660" data-name="Line 660" class="cls-7" x1="916.46" y1="801.77" x2="911.54" y2="798.33"/><line id="Line_661" data-name="Line 661" class="cls-7" x1="921.07" y1="795.06" x2="916.1" y2="791.7"/><line id="Line_662" data-name="Line 662" class="cls-7" x1="925.57" y1="788.26" x2="920.54" y2="784.99"/><line id="Line_663" data-name="Line 663" class="cls-7" x1="929.95" y1="781.39" x2="924.86" y2="778.21"/><line id="Line_664" data-name="Line 664" class="cls-7" x1="934.21" y1="774.43" x2="929.07" y2="771.34"/><line id="Line_665" data-name="Line 665" class="cls-7" x1="938.35" y1="767.41" x2="933.15" y2="764.41"/><line id="Line_666" data-name="Line 666" class="cls-7" x1="942.36" y1="760.32" x2="937.11" y2="757.41"/><line id="Line_667" data-name="Line 667" class="cls-7" x1="946.25" y1="753.16" x2="940.95" y2="750.34"/><line id="Line_668" data-name="Line 668" class="cls-7" x1="950.01" y1="745.93" x2="944.67" y2="743.2"/><line id="Line_669" data-name="Line 669" class="cls-7" x1="953.65" y1="738.63" x2="948.26" y2="736"/><line id="Line_670" data-name="Line 670" class="cls-7" x1="957.16" y1="731.28" x2="951.72" y2="728.74"/><line id="Line_671" data-name="Line 671" class="cls-7" x1="960.54" y1="723.86" x2="955.06" y2="721.42"/><line id="Line_672" data-name="Line 672" class="cls-7" x1="963.79" y1="716.38" x2="958.27" y2="714.04"/><line id="Line_673" data-name="Line 673" class="cls-7" x1="966.91" y1="708.85" x2="961.34" y2="706.61"/><line id="Line_674" data-name="Line 674" class="cls-7" x1="969.89" y1="701.27" x2="964.29" y2="699.12"/><line id="Line_675" data-name="Line 675" class="cls-7" x1="972.75" y1="693.64" x2="967.11" y2="691.58"/><line id="Line_676" data-name="Line 676" class="cls-7" x1="975.47" y1="685.95" x2="969.8" y2="684"/><line id="Line_677" data-name="Line 677" class="cls-7" x1="978.06" y1="678.22" x2="972.35" y2="676.37"/><line id="Line_678" data-name="Line 678" class="cls-7" x1="980.51" y1="670.45" x2="974.77" y2="668.7"/><line id="Line_679" data-name="Line 679" class="cls-7" x1="982.82" y1="662.64" x2="977.05" y2="660.98"/><line id="Line_680" data-name="Line 680" class="cls-7" x1="985" y1="654.78" x2="979.2" y2="653.23"/><line id="Line_681" data-name="Line 681" class="cls-7" x1="987.04" y1="646.89" x2="981.22" y2="645.44"/><line id="Line_682" data-name="Line 682" class="cls-7" x1="988.94" y1="638.96" x2="983.1" y2="637.61"/><line id="Line_683" data-name="Line 683" class="cls-7" x1="990.71" y1="631.01" x2="984.84" y2="629.76"/><line id="Line_684" data-name="Line 684" class="cls-7" x1="992.33" y1="623.02" x2="986.44" y2="621.88"/><line id="Line_685" data-name="Line 685" class="cls-7" x1="993.82" y1="615.01" x2="987.91" y2="613.96"/><line id="Line_686" data-name="Line 686" class="cls-7" x1="995.16" y1="606.97" x2="989.24" y2="606.03"/><line id="Line_687" data-name="Line 687" class="cls-7" x1="996.37" y1="598.91" x2="990.43" y2="598.07"/><line id="Line_688" data-name="Line 688" class="cls-7" x1="997.43" y1="590.83" x2="991.48" y2="590.09"/><line id="Line_689" data-name="Line 689" class="cls-7" x1="998.35" y1="582.73" x2="992.39" y2="582.1"/><line id="Line_690" data-name="Line 690" class="cls-7" x1="999.14" y1="574.61" x2="993.16" y2="574.09"/><line id="Line_691" data-name="Line 691" class="cls-7" x1="999.77" y1="566.49" x2="993.79" y2="566.07"/><line id="Line_692" data-name="Line 692" class="cls-7" x1="1000.27" y1="558.35" x2="994.28" y2="558.04"/><line id="Line_693" data-name="Line 693" class="cls-7" x1="1000.63" y1="550.21" x2="994.63" y2="550"/><line id="Line_694" data-name="Line 694" class="cls-7" x1="1000.84" y1="542.06" x2="994.84" y2="541.96"/><line id="Line_695" data-name="Line 695" class="cls-7" x1="1000.91" y1="533.91" x2="994.91" y2="533.91"/><line id="Line_696" data-name="Line 696" class="cls-7" x1="1000.84" y1="525.76" x2="994.84" y2="525.87"/><line id="Line_697" data-name="Line 697" class="cls-7" x1="1000.63" y1="517.61" x2="994.63" y2="517.82"/><line id="Line_698" data-name="Line 698" class="cls-7" x1="1000.27" y1="509.47" x2="994.28" y2="509.79"/><line id="Line_699" data-name="Line 699" class="cls-7" x1="999.77" y1="501.34" x2="993.79" y2="501.76"/><line id="Line_700" data-name="Line 700" class="cls-7" x1="999.14" y1="493.21" x2="993.16" y2="493.73"/><line id="Line_701" data-name="Line 701" class="cls-7" x1="998.35" y1="485.1" x2="992.39" y2="485.72"/><line id="Line_702" data-name="Line 702" class="cls-7" x1="997.43" y1="477" x2="991.48" y2="477.73"/><line id="Line_703" data-name="Line 703" class="cls-7" x1="996.37" y1="468.92" x2="990.43" y2="469.75"/><line id="Line_704" data-name="Line 704" class="cls-7" x1="995.16" y1="460.86" x2="989.24" y2="461.8"/><line id="Line_705" data-name="Line 705" class="cls-7" x1="993.82" y1="452.82" x2="987.91" y2="453.86"/><line id="Line_706" data-name="Line 706" class="cls-7" x1="992.33" y1="444.8" x2="986.44" y2="445.95"/><line id="Line_707" data-name="Line 707" class="cls-7" x1="990.71" y1="436.82" x2="984.84" y2="438.06"/><line id="Line_708" data-name="Line 708" class="cls-7" x1="988.94" y1="428.86" x2="983.1" y2="430.21"/><line id="Line_709" data-name="Line 709" class="cls-7" x1="987.04" y1="420.93" x2="981.22" y2="422.39"/><line id="Line_710" data-name="Line 710" class="cls-7" x1="985" y1="413.04" x2="979.2" y2="414.6"/><line id="Line_711" data-name="Line 711" class="cls-7" x1="982.82" y1="405.19" x2="977.05" y2="406.84"/><line id="Line_712" data-name="Line 712" class="cls-7" x1="980.51" y1="397.37" x2="974.77" y2="399.13"/><line id="Line_713" data-name="Line 713" class="cls-7" x1="978.06" y1="389.6" x2="972.35" y2="391.46"/><line id="Line_714" data-name="Line 714" class="cls-7" x1="975.47" y1="381.87" x2="969.8" y2="383.83"/><line id="Line_715" data-name="Line 715" class="cls-7" x1="972.75" y1="374.19" x2="967.11" y2="376.24"/><line id="Line_716" data-name="Line 716" class="cls-7" x1="969.89" y1="366.55" x2="964.29" y2="368.7"/><line id="Line_717" data-name="Line 717" class="cls-7" x1="966.91" y1="358.97" x2="961.34" y2="361.22"/><line id="Line_718" data-name="Line 718" class="cls-7" x1="963.79" y1="351.44" x2="958.27" y2="353.79"/><line id="Line_719" data-name="Line 719" class="cls-7" x1="960.54" y1="343.97" x2="955.06" y2="346.41"/><line id="Line_720" data-name="Line 720" class="cls-7" x1="957.16" y1="336.55" x2="951.72" y2="339.09"/><line id="Line_721" data-name="Line 721" class="cls-7" x1="953.65" y1="329.19" x2="948.26" y2="331.82"/><line id="Line_722" data-name="Line 722" class="cls-7" x1="950.01" y1="321.9" x2="944.67" y2="324.62"/><line id="Line_723" data-name="Line 723" class="cls-7" x1="946.25" y1="314.67" x2="940.95" y2="317.49"/><line id="Line_724" data-name="Line 724" class="cls-7" x1="942.36" y1="307.51" x2="937.11" y2="310.42"/><line id="Line_725" data-name="Line 725" class="cls-7" x1="938.35" y1="300.41" x2="933.15" y2="303.41"/><line id="Line_726" data-name="Line 726" class="cls-7" x1="934.21" y1="293.39" x2="929.07" y2="296.48"/><line id="Line_727" data-name="Line 727" class="cls-7" x1="929.95" y1="286.44" x2="924.86" y2="289.62"/><line id="Line_728" data-name="Line 728" class="cls-7" x1="925.57" y1="279.57" x2="920.54" y2="282.83"/><line id="Line_729" data-name="Line 729" class="cls-7" x1="921.07" y1="272.77" x2="916.1" y2="276.12"/><line id="Line_730" data-name="Line 730" class="cls-7" x1="916.46" y1="266.05" x2="911.54" y2="269.49"/><line id="Line_731" data-name="Line 731" class="cls-7" x1="911.72" y1="259.42" x2="906.87" y2="262.94"/><line id="Line_732" data-name="Line 732" class="cls-7" x1="906.88" y1="252.86" x2="902.08" y2="256.48"/><line id="Line_733" data-name="Line 733" class="cls-7" x1="901.91" y1="246.4" x2="897.19" y2="250.09"/><line id="Line_734" data-name="Line 734" class="cls-7" x1="896.84" y1="240.02" x2="892.18" y2="243.8"/><line id="Line_735" data-name="Line 735" class="cls-7" x1="891.65" y1="233.73" x2="887.06" y2="237.59"/><line id="Line_736" data-name="Line 736" class="cls-7" x1="886.36" y1="227.53" x2="881.83" y2="231.47"/><line id="Line_737" data-name="Line 737" class="cls-7" x1="880.96" y1="221.43" x2="876.5" y2="225.44"/><line id="Line_738" data-name="Line 738" class="cls-7" x1="875.45" y1="215.42" x2="871.07" y2="219.51"/><line id="Line_739" data-name="Line 739" class="cls-7" x1="869.84" y1="209.51" x2="865.53" y2="213.67"/><line id="Line_740" data-name="Line 740" class="cls-7" x1="864.13" y1="203.69" x2="859.89" y2="207.94"/><line id="Line_741" data-name="Line 741" class="cls-7" x1="858.32" y1="197.98" x2="854.15" y2="202.3"/><line id="Line_742" data-name="Line 742" class="cls-7" x1="852.41" y1="192.37" x2="848.31" y2="196.76"/><line id="Line_743" data-name="Line 743" class="cls-7" x1="846.4" y1="186.86" x2="842.38" y2="191.32"/><line id="Line_744" data-name="Line 744" class="cls-7" x1="840.29" y1="181.46" x2="836.36" y2="185.99"/><line id="Line_745" data-name="Line 745" class="cls-7" x1="834.09" y1="176.17" x2="830.24" y2="180.77"/><line id="Line_746" data-name="Line 746" class="cls-7" x1="827.81" y1="170.99" x2="824.03" y2="175.65"/><line id="Line_747" data-name="Line 747" class="cls-7" x1="821.43" y1="165.91" x2="817.73" y2="170.64"/><line id="Line_748" data-name="Line 748" class="cls-7" x1="814.96" y1="160.95" x2="811.35" y2="165.74"/><line id="Line_749" data-name="Line 749" class="cls-7" x1="808.41" y1="156.1" x2="804.88" y2="160.96"/><line id="Line_750" data-name="Line 750" class="cls-7" x1="801.77" y1="151.37" x2="798.33" y2="156.28"/><line id="Line_751" data-name="Line 751" class="cls-7" x1="795.06" y1="146.75" x2="791.7" y2="151.73"/><line id="Line_752" data-name="Line 752" class="cls-7" x1="788.26" y1="142.25" x2="784.99" y2="147.29"/><line id="Line_753" data-name="Line 753" class="cls-7" x1="781.39" y1="137.87" x2="778.21" y2="142.96"/><line id="Line_754" data-name="Line 754" class="cls-7" x1="774.43" y1="133.62" x2="771.34" y2="138.76"/><line id="Line_755" data-name="Line 755" class="cls-7" x1="767.41" y1="129.48" x2="764.41" y2="134.67"/><line id="Line_756" data-name="Line 756" class="cls-7" x1="760.32" y1="125.47" x2="757.41" y2="130.71"/><line id="Line_757" data-name="Line 757" class="cls-7" x1="753.16" y1="121.58" x2="750.34" y2="126.87"/><line id="Line_758" data-name="Line 758" class="cls-7" x1="745.93" y1="117.81" x2="743.2" y2="123.16"/><line id="Line_759" data-name="Line 759" class="cls-7" x1="738.63" y1="114.18" x2="736" y2="119.57"/><line id="Line_760" data-name="Line 760" class="cls-7" x1="731.28" y1="110.67" x2="728.74" y2="116.1"/><line id="Line_761" data-name="Line 761" class="cls-7" x1="723.86" y1="107.29" x2="721.42" y2="112.77"/><line id="Line_762" data-name="Line 762" class="cls-7" x1="716.38" y1="104.04" x2="714.04" y2="109.56"/><line id="Line_763" data-name="Line 763" class="cls-7" x1="708.85" y1="100.92" x2="706.61" y2="106.48"/><line id="Line_764" data-name="Line 764" class="cls-7" x1="701.27" y1="97.93" x2="699.12" y2="103.53"/><line id="Line_765" data-name="Line 765" class="cls-7" x1="693.64" y1="95.08" x2="691.58" y2="100.71"/><line id="Line_766" data-name="Line 766" class="cls-7" x1="685.95" y1="92.36" x2="684" y2="98.03"/><line id="Line_767" data-name="Line 767" class="cls-7" x1="678.22" y1="89.77" x2="676.37" y2="95.48"/><line id="Line_768" data-name="Line 768" class="cls-7" x1="670.45" y1="87.32" x2="668.7" y2="93.06"/><line id="Line_769" data-name="Line 769" class="cls-7" x1="662.64" y1="85" x2="660.98" y2="90.77"/><line id="Line_770" data-name="Line 770" class="cls-7" x1="654.78" y1="82.83" x2="653.23" y2="88.62"/><line id="Line_771" data-name="Line 771" class="cls-7" x1="646.89" y1="80.78" x2="645.44" y2="86.61"/><line id="Line_772" data-name="Line 772" class="cls-7" x1="638.96" y1="78.88" x2="637.61" y2="84.73"/><line id="Line_773" data-name="Line 773" class="cls-7" x1="631.01" y1="77.12" x2="629.76" y2="82.99"/><line id="Line_774" data-name="Line 774" class="cls-7" x1="623.02" y1="75.49" x2="621.88" y2="81.38"/><line id="Line_775" data-name="Line 775" class="cls-7" x1="615.01" y1="74.01" x2="613.96" y2="79.92"/><line id="Line_776" data-name="Line 776" class="cls-7" x1="606.97" y1="72.66" x2="606.03" y2="78.59"/><line id="Line_777" data-name="Line 777" class="cls-7" x1="598.91" y1="71.46" x2="598.07" y2="77.4"/><line id="Line_778" data-name="Line 778" class="cls-7" x1="590.83" y1="70.39" x2="590.09" y2="76.35"/><line id="Line_779" data-name="Line 779" class="cls-7" x1="582.73" y1="69.47" x2="582.1" y2="75.44"/><line id="Line_780" data-name="Line 780" class="cls-7" x1="574.61" y1="68.69" x2="574.09" y2="74.67"/><line id="Line_781" data-name="Line 781" class="cls-7" x1="566.49" y1="68.05" x2="566.07" y2="74.04"/><line id="Line_782" data-name="Line 782" class="cls-7" x1="558.35" y1="67.55" x2="558.04" y2="73.54"/><line id="Line_783" data-name="Line 783" class="cls-7" x1="550.21" y1="67.2" x2="550" y2="73.19"/><line id="Line_784" data-name="Line 784" class="cls-7" x1="542.06" y1="66.98" x2="541.96" y2="72.98"/></g><circle id="Ellipse_176" data-name="Ellipse 176" class="cls-8" cx="533.91" cy="533.91" r="510"/></g><circle id="Ellipse_176-2" data-name="Ellipse 176-2" class="cls-8" cx="533.91" cy="533.91" r="533.91"/></g></svg>