<svg xmlns="http://www.w3.org/2000/svg" width="200" height="199.434" viewBox="0 0 200 199.434">
  <g id="Group_694" data-name="Group 694" transform="translate(16834.854 948.949)">
    <g id="orbit" transform="translate(-16834.854 -948.949)">
      <g id="orbit-2" data-name="orbit" transform="translate(0 0)">
        <g id="o">
          <path id="Контур_69" data-name="Контур 69" d="M21.971,18.366H23.5a2.674,2.674,0,0,0,1.834-3.438,2.75,2.75,0,0,0-3.438-1.834H20.9a2.739,2.739,0,0,0,1.07,5.271Z" transform="translate(36.477 -5.149)" fill="#003472"/>
          <path id="Контур_70" data-name="Контур 70" d="M26.6,36.216h-.458a2.674,2.674,0,0,0-2.979,2.521,2.827,2.827,0,0,0,2.521,3.056h.764a2.674,2.674,0,0,0,2.674-2.827,2.9,2.9,0,0,0-2.521-2.75Z" transform="translate(62.64 149.048)" fill="#003472"/>
          <path id="Контур_71" data-name="Контур 71" d="M32.87,39.777a2.445,2.445,0,0,0,1.452,0H34.7a2.786,2.786,0,1,0-2.674-4.889h-.382a2.827,2.827,0,0,0-.917,3.82,2.75,2.75,0,0,0,2.368,1.3Z" transform="translate(110.38 138.076)" fill="#003472"/>
          <path id="Контур_72" data-name="Контур 72" d="M24.671,17.69h.993a2.764,2.764,0,0,0-1.07-5.424H24.06a2.767,2.767,0,0,0,.611,5.5Z" transform="translate(52.342 -10.203)" fill="#003472"/>
          <path id="Контур_73" data-name="Контур 73" d="M14.721,28.858h0a2.827,2.827,0,0,0,2.75-2.368v-.458a2.827,2.827,0,1,0-5.5-1.07h0v.458a2.9,2.9,0,0,0,2.445,3.132Z" transform="translate(-11.66 56.784)" fill="#003472"/>
          <path id="Контур_74" data-name="Контур 74" d="M24.481,35.967h0a2.75,2.75,0,0,0-3.591,1.6,2.827,2.827,0,0,0,1.681,3.591H22.8a2.75,2.75,0,0,0,3.591-1.6,2.827,2.827,0,0,0-1.681-3.591h-.229Z" transform="translate(46.573 146.24)" fill="#003472"/>
          <path id="Контур_75" data-name="Контур 75" d="M17.955,18.121a2.827,2.827,0,0,0-3.82.917v.382a2.9,2.9,0,0,0,.764,3.9,2.827,2.827,0,0,0,3.9-.84h0a2.75,2.75,0,0,0-.917-3.82Z" transform="translate(-0.149 26.419)" fill="#003472"/>
          <path id="Контур_76" data-name="Контур 76" d="M17.876,23.791a2.774,2.774,0,1,0-5.119-2.139h0v.458a2.827,2.827,0,0,0,1.834,3.514,2.75,2.75,0,0,0,3.438-1.6Z" transform="translate(-7.176 41.147)" fill="#003472"/>
          <path id="Контур_77" data-name="Контур 77" d="M18.334,30.8a2.827,2.827,0,0,0-4.966,2.521v.458a2.827,2.827,0,0,0,3.743,1.3,2.674,2.674,0,0,0,1.91-3.667h0Z" transform="translate(-3.126 105.717)" fill="#003472"/>
          <path id="Контур_78" data-name="Контур 78" d="M19.614,32.787a2.9,2.9,0,0,0-3.973-.535,2.827,2.827,0,0,0-.458,3.973h0v.382a2.781,2.781,0,0,0,4.431-3.361h0Z" transform="translate(5.679 119.168)" fill="#003472"/>
          <path id="Контур_79" data-name="Контур 79" d="M21.011,34.3h0a2.827,2.827,0,0,0-3.973,0,2.827,2.827,0,0,0,.382,3.973H17.8a2.674,2.674,0,0,0,3.9,0,2.827,2.827,0,0,0,0-3.973Z" transform="translate(17.803 131.025)" fill="#003472"/>
          <path id="Контур_80" data-name="Контур 80" d="M23.041,35.3h-.382a2.75,2.75,0,0,0-3.82.84,2.827,2.827,0,0,0,.84,3.9h.458a2.8,2.8,0,0,0,2.6-4.966Z" transform="translate(31.053 140.181)" fill="#003472"/>
          <path id="Контур_81" data-name="Контур 81" d="M15.969,16.3v.382a2.783,2.783,0,1,0,4.049,3.82h0a2.827,2.827,0,0,0-.382-3.973,2.674,2.674,0,0,0-3.667,0Z" transform="translate(9.934 13.645)" fill="#003472"/>
          <path id="Контур_82" data-name="Контур 82" d="M17.5,27.983v-.458a2.9,2.9,0,0,0-2.979-2.674,2.827,2.827,0,0,0-2.6,2.979v.535a2.75,2.75,0,0,0,2.75,2.6h0a2.827,2.827,0,0,0,2.6-2.979Z" transform="translate(-11.919 73.701)" fill="#003472"/>
          <path id="Контур_83" data-name="Контур 83" d="M26.745,17.527H27.2a2.75,2.75,0,0,0,3.132-2.445,2.9,2.9,0,0,0-2.445-3.132H26.745a2.9,2.9,0,0,0-2.674,2.979A2.674,2.674,0,0,0,26.745,17.527Z" transform="translate(68.756 -11.95)" fill="#003472"/>
          <path id="Контур_84" data-name="Контур 84" d="M27.967,36.24h0a2.827,2.827,0,0,0-2.216,3.285,2.75,2.75,0,0,0,2.979,2.216h.458a2.827,2.827,0,0,0,2.368-3.209,2.75,2.75,0,0,0-3.591-2.292Z" transform="translate(79.605 148.413)" fill="#003472"/>
          <path id="Контур_85" data-name="Контур 85" d="M17.733,29.358a2.771,2.771,0,1,0-5.348,1.452v.458a2.827,2.827,0,0,0,5.5-1.146V29.74Z" transform="translate(-9.477 90.051)" fill="#003472"/>
          <path id="Контур_86" data-name="Контур 86" d="M30.585,18.313h.458a2.827,2.827,0,0,0,2.292-5.119h-.458a2.9,2.9,0,0,0-3.743,1.375,2.827,2.827,0,0,0,1.452,3.743Z" transform="translate(100.747 -5.249)" fill="#003472"/>
          <path id="Контур_87" data-name="Контур 87" d="M28.686,17.719h.458a2.75,2.75,0,0,0,3.361-1.986A2.827,2.827,0,0,0,30.52,12.3h-.458a2.827,2.827,0,0,0-3.438,2.063,2.75,2.75,0,0,0,2.063,3.361Z" transform="translate(85.15 -10.232)" fill="#003472"/>
          <path id="Контур_88" data-name="Контур 88" d="M30.5,35.668h-.458a2.827,2.827,0,0,0-1.91,3.438,2.674,2.674,0,0,0,3.438,1.91h.458a2.9,2.9,0,0,0,1.91-3.514,2.827,2.827,0,0,0-3.514-1.834Z" transform="translate(95.099 144.706)" fill="#003472"/>
          <path id="Контур_89" data-name="Контур 89" d="M21.462,19.254h.382a2.9,2.9,0,0,0,.688-3.9,2.827,2.827,0,0,0-3.9-.688h-.382a2.75,2.75,0,0,0-.688,3.9,2.9,2.9,0,0,0,3.9.688Z" transform="translate(22.089 2.825)" fill="#003472"/>
        </g>
        <path id="p" d="M70.988,124.4A53.478,53.478,0,1,0,17.51,70.918h0A53.478,53.478,0,0,0,70.988,124.4Zm34.761-21.009h0a48.054,48.054,0,0,1-46.3,14.134v-.993a11.23,11.23,0,0,0-6.723-9.855h-.764a3.9,3.9,0,0,1-2.445-3.591V98.115h1.834a11.459,11.459,0,0,0,8.4-5.195H61.82a1.3,1.3,0,0,1,.993.535l7.64,8.938a11.612,11.612,0,0,0,11.994,3.438A11.765,11.765,0,0,0,90.7,96.053v-.917a1.6,1.6,0,0,1,.382-.917l2.979,1.757a62.189,62.189,0,0,1,10.619,7.64h0Zm6.876-56.228-3.9,5.2-1.146,1.757a13.6,13.6,0,0,1-3.9,4.2L98.72,61.75a2.674,2.674,0,0,1-3.056,0L93.6,59.917a.84.84,0,0,1,0-.84V57.243a9.168,9.168,0,0,0-4.584-9.168.993.993,0,0,1-.382-.993l.535-4.125a9.473,9.473,0,0,0-4.125-9.091,8.633,8.633,0,0,0-9.626,0L70.912,37a8.4,8.4,0,0,0-2.9,11l1.528,2.827a2.521,2.521,0,0,1,0,2.445l-3.209,5.348a4.584,4.584,0,0,0-.611,2.216,4.813,4.813,0,0,1-2.139,3.973L59.91,67.48l-.993.764-3.209,2.674-3.438-4.431a11,11,0,0,0-5.577-3.82L41.117,60.91h0l-2.063-1.681a10.772,10.772,0,0,0-2.674-1.757l4.431-.764a10.39,10.39,0,0,0,4.507-1.91l7.64-5.883a3.9,3.9,0,0,1,1.375-.688l6.952-1.91a10.39,10.39,0,0,0,7.029-7.1h0a4.05,4.05,0,0,1,.611-1.146l3.438-3.591a3.667,3.667,0,0,1,1.222-.917,10.925,10.925,0,0,0,5.348-9.015,48.13,48.13,0,0,1,34,22.614ZM23.011,70.918a47.977,47.977,0,0,1,47.977-47.9h2.139a5.348,5.348,0,0,1-2.6,4.813,10.008,10.008,0,0,0-2.445,1.91l-3.361,3.667a8.175,8.175,0,0,0-1.986,3.438V37a4.507,4.507,0,0,1-3.209,3.209l-6.952,1.91a11.46,11.46,0,0,0-3.209,1.6L41.728,49.6a5.042,5.042,0,0,1-2.063.917l-9.7,1.757a4.126,4.126,0,0,0-3.438,4.66,3.82,3.82,0,0,0,0,.993,5.348,5.348,0,0,0,4.507,3.285,7.64,7.64,0,0,1,3.82,1.6l2.063,1.757a5.806,5.806,0,0,0,2.139,1.146l5.653,1.757a5.806,5.806,0,0,1,2.827,1.986l3.973,5.2a4.966,4.966,0,0,0,2.979,1.757,4.431,4.431,0,0,0,3.591-1.07L62.2,71.911l.535-.458,3.667-2.6A10.543,10.543,0,0,0,70.912,60.6l2.979-5.042a8.022,8.022,0,0,0,0-7.64L72.363,45.1a2.9,2.9,0,0,1,.917-3.743l4.431-2.75a3.285,3.285,0,0,1,3.514,0,4.125,4.125,0,0,1,1.757,3.82l-.535,4.125a6.417,6.417,0,0,0,3.132,6.494,3.82,3.82,0,0,1,1.834,3.743v1.757A6.341,6.341,0,0,0,89.858,64.5l2.063,1.6a8.251,8.251,0,0,0,9.7,0l4.889-3.438a18.641,18.641,0,0,0,5.5-5.959l.84-1.222,2.216-2.9a47.9,47.9,0,0,1-5.806,46.6L108.8,98.8a71.279,71.279,0,0,0-11.154-8.327l-3.209-1.91a5.424,5.424,0,0,0-6.112.611,7.64,7.64,0,0,0-2.368,4.584v.917a6.112,6.112,0,0,1-10.619,3.361L67.7,89.024a6.952,6.952,0,0,0-5.119-2.445H60.216a6.035,6.035,0,0,0-4.889,2.75A6.035,6.035,0,0,1,51.048,92H48.909a5.119,5.119,0,0,0-4.737,5.119v5.271A9.626,9.626,0,0,0,49.9,111.1h.764a5.883,5.883,0,0,1,3.361,3.973A47.978,47.978,0,0,1,23.011,70.918Z" transform="translate(25.201 24.502)" fill="#003472"/>
        <g id="s" transform="translate(145.02 144.251)">
          <g id="Сгруппировать_104" data-name="Сгруппировать 104">
            <path id="Контур_62" data-name="Контур 62" d="M42.654,85.6,54.572,73.678a2.521,2.521,0,0,0,0-3.361l-2.063-2.063,2.216-2.216L56.787,68.1a2.521,2.521,0,0,0,3.591,0l7.64-7.64a2.521,2.521,0,0,0,0-3.591l-2.063-2.063,2.139-2.216,2.063,2.063a2.521,2.521,0,0,0,3.591,0L85.131,42.813a2.521,2.521,0,0,0,0-3.591l-7.64-7.64a2.521,2.521,0,0,0-3.591,0L62.212,43.042a2.521,2.521,0,0,0,0,3.591L64.274,48.7l-2.139,2.216-2.063-2.063a2.521,2.521,0,0,0-3.591,0l-2.063,2.063-4.125-4.125,2.063-2.063a2.6,2.6,0,0,0,0-3.591,2.521,2.521,0,0,0-3.438,0l-3.82,3.82h0l-3.82,3.82a2.544,2.544,0,1,0,3.361,3.82h0L46.7,50.529l4.049,4.125-2.063,2.063a2.521,2.521,0,0,0,0,3.591l2.063,2.063L48.613,64.51l-2.139-1.834a2.521,2.521,0,0,0-3.591,0l-11.23,11.23a2.521,2.521,0,0,0,0,3.591l7.64,7.64A2.6,2.6,0,0,0,42.654,85.6ZM67.559,45.258l7.64-8.022,4.125,4.125L71.685,49ZM54.037,58.7l4.125-4.049L62.288,58.7l-4.125,4.125ZM36.695,76.122l7.64-8.022,4.125,4.125-7.64,7.64Z" transform="translate(-30.902 -30.832)" fill="#003472"/>
          </g>
        </g>
      </g>
    </g>
  </g>
</svg>
