<svg xmlns="http://www.w3.org/2000/svg" width="28" height="11" viewBox="0 0 28 11">
  <g id="Group_697" data-name="Group 697" transform="translate(9323 -581)">
    <rect id="Rectangle_779" data-name="Rectangle 779" width="28" height="11" transform="translate(-9323 581)" fill="none"/>
    <path id="Path_328" data-name="Path 328" d="M-12.009,0V-8.4h5.654v1.348h-4.2V0Zm6.756-4.2a4.464,4.464,0,0,1,.322-1.689,4.306,4.306,0,0,1,.885-1.384A4.068,4.068,0,0,1-2.669-8.2,4.452,4.452,0,0,1-.923-8.543a4.631,4.631,0,0,1,1.854.335,4.93,4.93,0,0,1,1.433.966L1.421-6.149A4.629,4.629,0,0,0,.308-6.925,2.83,2.83,0,0,0-.935-7.2a2.63,2.63,0,0,0-1.424.4,2.739,2.739,0,0,0-.993,1.084A3.241,3.241,0,0,0-3.706-4.2a3.05,3.05,0,0,0,.791,2.124A2.561,2.561,0,0,0-.935-1.2,2.847,2.847,0,0,0,.34-1.471a4.867,4.867,0,0,0,1.14-.823l.949.964A5.857,5.857,0,0,1,1.5-.54a4.023,4.023,0,0,1-1.09.5A4.83,4.83,0,0,1-.981.146,4.244,4.244,0,0,1-3.164-.427,4.087,4.087,0,0,1-4.7-2,4.452,4.452,0,0,1-5.253-4.2ZM3.6-4.2a4.342,4.342,0,0,1,.328-1.674,4.327,4.327,0,0,1,.9-1.384,4.219,4.219,0,0,1,1.4-.938A4.5,4.5,0,0,1,8-8.543a4.54,4.54,0,0,1,1.77.343,4.151,4.151,0,0,1,1.392.929,4.27,4.27,0,0,1,.9,1.384A4.428,4.428,0,0,1,12.384-4.2a4.353,4.353,0,0,1-.328,1.675,4.312,4.312,0,0,1-.9,1.385A4.213,4.213,0,0,1,9.75-.2,4.528,4.528,0,0,1,7.978.146,4.413,4.413,0,0,1,5.71-.442,4.128,4.128,0,0,1,4.151-2.02,4.4,4.4,0,0,1,3.6-4.2Zm1.547,0a3.174,3.174,0,0,0,.36,1.5,2.775,2.775,0,0,0,1.02,1.09A2.756,2.756,0,0,0,8-1.2a2.741,2.741,0,0,0,1.468-.4,2.752,2.752,0,0,0,1.011-1.084,3.2,3.2,0,0,0,.357-1.51,3.153,3.153,0,0,0-.363-1.5A2.8,2.8,0,0,0,9.451-6.79,2.756,2.756,0,0,0,7.978-7.2a2.741,2.741,0,0,0-1.468.4A2.731,2.731,0,0,0,5.5-5.709,3.224,3.224,0,0,0,5.147-4.2Z" transform="translate(-9308.991 590.543)" fill="#003472"/>
  </g>
</svg>
