<svg id="Layer_2" data-name="Layer 2" xmlns="http://www.w3.org/2000/svg" width="229.93" height="29.5" viewBox="0 0 229.93 29.5"><defs><style>.cls-1{fill:#003472;}</style></defs><path class="cls-1" d="M29.34,15H24.39c-3,0-4.06.64-4.06,1.37,0,1,1.5,1.32,3.55,2,.88.3,1.42.45,1.42.72s-.17.33-1.1.33H20.07v1.28H25c.88,0,4.49,0,4.49-1.44,0-1-1.67-1.4-3.31-1.91-1.09-.34-1.66-.5-1.66-.77s.67-.32,1.08-.32h3.75ZM7.71,15v5.72H11.4V16.23H13c1,0,2.58.07,2.58.89s-2,1.05-3.46.84v1.48a39.44,39.44,0,0,0,7,1.36V19.39a17.29,17.29,0,0,1-3.38-.51c1.52-.11,3.65-.6,3.65-1.89,0-2-4.4-2-6.43-2Zm31.93,0a23.11,23.11,0,0,0-2.43-.13c-4.41,0-7.13,1.19-7.13,3,0,1.49,1.82,3,6.75,3a24.91,24.91,0,0,0,2.81-.13V19.39a14.68,14.68,0,0,1-2,.15c-1.6,0-3.75-.35-3.75-1.75,0-1,1.51-1.71,4-1.71.24,0,.91,0,1.73.11Zm10.52,0a22.9,22.9,0,0,0-2.42-.13c-4.4,0-7.13,1.19-7.13,3,0,1.49,1.83,3,6.75,3a24.72,24.72,0,0,0,2.8-.13V19.39a14.65,14.65,0,0,1-2,.15c-1.6,0-3.75-.35-3.75-1.75,0-1,1.51-1.71,4-1.71.24,0,.92,0,1.73.11Z" transform="translate(-0.55 -0.75)"/><path class="cls-1" d="M29.33,30.25C13.46,30.25.55,24.67.55,17.8S13.46,5.36,29.33,5.36h.18v6.51h-.18C14,11.87,1,14.59,1,17.8s13,5.94,28.34,5.94S57.76,21,57.76,17.8h.36C58.12,24.67,45.21,30.25,29.33,30.25ZM1,18.87c.57,2.79,3.43,5.4,8.17,7.44,5.4,2.31,12.55,3.58,20.14,3.58s14.75-1.27,20.14-3.58c4.67-2,7.51-4.56,8.15-7.31-1.4,1.65-5.44,2.74-8,3.3a102.36,102.36,0,0,1-20.25,1.79A102,102,0,0,1,9.12,22.3C6.47,21.73,2.3,20.59,1,18.87ZM29.16,5.72c-7.53,0-14.62,1.29-20,3.58C4.45,11.34,1.59,14,1,16.74,2.3,15,6.47,13.88,9.12,13.31a100.93,100.93,0,0,1,20-1.8ZM39.78,12.1H34.07L36.69,8Zm-5.05-.36h4.33L36.71,8.66Zm7.19-2.18a7.26,7.26,0,0,1-5.06-2.09h0a6.48,6.48,0,0,1-2-6.43l.08-.29,2.41,2.43h2l-.58-.59.37-.38L42,5.11l-.38.37-.58-.58v2l2.45,2.47-.34.06A7.85,7.85,0,0,1,41.92,9.56ZM37.1,7.21a6.92,6.92,0,0,0,5.67,1.94L40.71,7.07V6.9l-.12,0L39,5.37h0L37.3,3.65l.05-.12h-.16L35.1,1.44a6.21,6.21,0,0,0,2,5.77Zm2.29-2,1.14,1.15v-2l-.13-.14ZM37.86,3.7,39,4.86l1-1-.14-.14Z" transform="translate(-0.55 -0.75)"/><path class="cls-1" d="M223.89,18.64h2.6a2.11,2.11,0,0,1,1.47.45,1.62,1.62,0,0,1,.54,1.35,1.7,1.7,0,0,1-.45,1.27,2,2,0,0,1-1.5.51h-2.66Zm0-1.5V13.29H222V23.74h4.47a4.37,4.37,0,0,0,3-1,3.13,3.13,0,0,0,1-2.34,3.1,3.1,0,0,0-1.07-2.38,5.18,5.18,0,0,0-3.31-.92Zm-8.87,2h1.31a2.65,2.65,0,0,1,1.63.37,1.29,1.29,0,0,1,.59,1.14A1.66,1.66,0,0,1,218,21.9a3,3,0,0,1-1.87.54,6.57,6.57,0,0,1-2-.35A6.45,6.45,0,0,1,213,21.6l-.69,1.33a5.57,5.57,0,0,0,1.33.58,7,7,0,0,0,2.53.44,4.68,4.68,0,0,0,3.39-1.09,2.87,2.87,0,0,0,1-2.12,2.37,2.37,0,0,0-2-2.4v-.07a2.49,2.49,0,0,0,1.5-2.42A2.54,2.54,0,0,0,219,13.72a4.82,4.82,0,0,0-2.68-.64,5.83,5.83,0,0,0-2.79.64,1.88,1.88,0,0,0-.8,2.13l1.66.08a1.17,1.17,0,0,1,.56-1.2,2.37,2.37,0,0,1,1.26-.28,2.1,2.1,0,0,1,1.38.37,1.72,1.72,0,0,1,.26,2.29,2.33,2.33,0,0,1-1.79.58h-1Zm-5.73-4.36v3H207c-1.2,0-2.11-.45-2.11-1.48a1.36,1.36,0,0,1,.54-1.2,2.35,2.35,0,0,1,1.44-.33Zm1.89-1.5h-4.87a4.5,4.5,0,0,0-2.17.54,2.64,2.64,0,0,0-1.22,2.25,2.75,2.75,0,0,0,.66,1.78,2.8,2.8,0,0,0,1.7.88v.07a2.46,2.46,0,0,0-.75.43,2.57,2.57,0,0,0-.67,1l-1.67,3.53h2.14l1.31-2.93a3,3,0,0,1,.8-1.17,1.74,1.74,0,0,1,1.18-.34h1.67v4.44h1.89Zm-16.1,5.78h2.69a2.08,2.08,0,0,1,1.31.38,1.52,1.52,0,0,1,.53,1.29,1.54,1.54,0,0,1-.49,1.18,2.27,2.27,0,0,1-1.46.43h-2.58Zm0-4.4h2.52a2,2,0,0,1,1.24.34,1.33,1.33,0,0,1,.54,1.16,1.4,1.4,0,0,1-.47,1.14,2.1,2.1,0,0,1-1.42.38h-2.41Zm-1.88,9.07h4.72a4.07,4.07,0,0,0,2.77-.9,2.8,2.8,0,0,0,.92-2.12,2.47,2.47,0,0,0-.58-1.65,2.89,2.89,0,0,0-1.37-.82v-.06a1.82,1.82,0,0,0,1.13-.82,2.7,2.7,0,0,0,.48-1.52,2.37,2.37,0,0,0-.78-1.79,3.79,3.79,0,0,0-2.48-.77H193.2Zm-1.86-2.06a7.24,7.24,0,0,1-1.2.5,5.44,5.44,0,0,1-1.63.26,3.28,3.28,0,0,1-2.11-.71,3.31,3.31,0,0,1-.81-2.6v-1.4c0-.79-.07-2.12,1-2.87a2.66,2.66,0,0,1,1.5-.41,2.15,2.15,0,0,1,1.57.52,1.91,1.91,0,0,1,.36,1.65l1.74-.15a2.36,2.36,0,0,0-1.16-2.83,5.26,5.26,0,0,0-2.34-.56,5.18,5.18,0,0,0-3,.88c-1.55,1.16-1.79,3.2-1.79,4.61a5.75,5.75,0,0,0,1.66,4.34,4.57,4.57,0,0,0,3.09,1,6.38,6.38,0,0,0,2.45-.44,12.55,12.55,0,0,0,1.26-.6Zm-15.13-6.89v3h-2.3c-1.2,0-2.1-.45-2.1-1.48a1.35,1.35,0,0,1,.53-1.2,2.42,2.42,0,0,1,1.44-.33Zm1.89-1.5h-4.88a4.55,4.55,0,0,0-2.16.54,2.63,2.63,0,0,0-1.23,2.25,2.7,2.7,0,0,0,.67,1.78,2.77,2.77,0,0,0,1.69.88v.07a2.46,2.46,0,0,0-.75.43,2.69,2.69,0,0,0-.67,1l-1.67,3.53h2.15l1.31-2.93a3,3,0,0,1,.79-1.17,1.81,1.81,0,0,1,1.18-.34h1.68v4.44h1.89Zm-11.73,7.82a2.82,2.82,0,0,1-.94.94,2.48,2.48,0,0,1-1.55.47,2,2,0,0,1-1.43-.45,1.48,1.48,0,0,1-.54-1.24,1.79,1.79,0,0,1,.58-1.42,3.2,3.2,0,0,1,2.16-.54h1.72Zm.17,2.63h1.72V17a3.77,3.77,0,0,0-.81-2.93,4.71,4.71,0,0,0-3.09-1,6.3,6.3,0,0,0-3.14.68A1.9,1.9,0,0,0,160.4,16l1.72.09a1.33,1.33,0,0,1,.58-1.25,3.19,3.19,0,0,1,1.55-.34,2.66,2.66,0,0,1,1.67.47,1.6,1.6,0,0,1,.45,1.31v1.36h-1.63c-2.32,0-3.31.55-3.74.88a3,3,0,0,0-1.11,2.42,2.94,2.94,0,0,0,1,2.26,3.48,3.48,0,0,0,2.49.8,3.69,3.69,0,0,0,2-.44,3,3,0,0,0,1.16-1.07h.08Zm-14-10.45h-1.89V23.74h1.89v-4.8h1.53a1.7,1.7,0,0,1,1.11.32,2.5,2.5,0,0,1,.75,1.18l1.48,3.3h2.11l-1.72-3.86a3.92,3.92,0,0,0-.75-1.12,2.05,2.05,0,0,0-1.16-.57v-.07a2.11,2.11,0,0,0,.94-.53,2.82,2.82,0,0,0,.65-1.19l.34-1a1.76,1.76,0,0,1,.37-.67.55.55,0,0,1,.43-.15,1,1,0,0,1,.55.15l.28-1.42a3.15,3.15,0,0,0-1.2-.23,2,2,0,0,0-.79.15c-.48.19-.86.49-1.25,1.65l-.41,1.2a2.6,2.6,0,0,1-.56,1,1.76,1.76,0,0,1-1.24.37h-1.46Zm-3.74,8.39a7.62,7.62,0,0,1-1.2.5,5.56,5.56,0,0,1-1.64.26,3.27,3.27,0,0,1-2.1-.71,3.32,3.32,0,0,1-.82-2.6v-1.4a3.19,3.19,0,0,1,1-2.87,2.68,2.68,0,0,1,1.5-.41,2.15,2.15,0,0,1,1.57.52,2,2,0,0,1,.37,1.65l1.74-.15a2.37,2.37,0,0,0-1.16-2.83,5.3,5.3,0,0,0-2.34-.56,5.22,5.22,0,0,0-3,.88c-1.54,1.16-1.78,3.2-1.78,4.61a5.77,5.77,0,0,0,1.65,4.34,4.58,4.58,0,0,0,3.1,1,6.33,6.33,0,0,0,2.44-.44,11.81,11.81,0,0,0,1.27-.6Zm-15.23-4.09v-.24a3.14,3.14,0,0,1,.69-2.21,2,2,0,0,1,1.57-.69,2,2,0,0,1,1.48.52,2.71,2.71,0,0,1,.69,2.19v.43Zm0,1.37H140v-.47c0-1.68-.06-3.06-1.09-4.17a4.12,4.12,0,0,0-3.07-1.24,4.2,4.2,0,0,0-3.18,1.37,5.72,5.72,0,0,0-1.2,3.89,6.15,6.15,0,0,0,1.25,4.1A4.81,4.81,0,0,0,136.41,24a6.68,6.68,0,0,0,2.44-.44,11.81,11.81,0,0,0,1.27-.6l-.6-1.23a7.62,7.62,0,0,1-1.2.5,5.11,5.11,0,0,1-1.64.26,3.28,3.28,0,0,1-2.36-.86,3.38,3.38,0,0,1-.73-2.34ZM130,13.29h-1.89v4.83a5.58,5.58,0,0,1-2,.35,2.71,2.71,0,0,1-1.7-.43,1.54,1.54,0,0,1-.47-1.21V13.29H122.1v3.29a3.06,3.06,0,0,0,.88,2.49,4.4,4.4,0,0,0,2.77.77,9.07,9.07,0,0,0,2.38-.34v4.24H130Zm-9.28,0h-2l-5.19,8.05v-8h-1.89V23.74h2l5.2-8.06v8.06h1.89ZM99.49,23.74h1.71V15.83l3,5.45h.64l3-5.45v7.91h1.9V13.29h-2.13l-2.88,5.35-3-5.35H99.49Zm-1.86-2.06a7.24,7.24,0,0,1-1.2.5,5.44,5.44,0,0,1-1.63.26,3.28,3.28,0,0,1-2.11-.71,3.31,3.31,0,0,1-.81-2.6v-1.4c0-.79-.06-2.12,1-2.87a2.71,2.71,0,0,1,1.51-.41A2.16,2.16,0,0,1,96,15a1.91,1.91,0,0,1,.36,1.65l1.74-.15a2.37,2.37,0,0,0-1.16-2.83,5.26,5.26,0,0,0-2.34-.56,5.18,5.18,0,0,0-3,.88c-1.55,1.16-1.79,3.2-1.79,4.61a5.75,5.75,0,0,0,1.66,4.34,4.56,4.56,0,0,0,3.09,1A6.25,6.25,0,0,0,97,23.51a11,11,0,0,0,1.27-.6ZM86.69,19a4,4,0,0,1-.76,2.88,2.64,2.64,0,0,1-3.6,0A4,4,0,0,1,81.58,19V18a4,4,0,0,1,.75-2.88,2.64,2.64,0,0,1,3.6,0A4,4,0,0,1,86.69,18Zm-2.56-5.9a4.53,4.53,0,0,0-3.37,1.35,6,6,0,0,0-1.28,4.08,6,6,0,0,0,1.28,4.08,4.86,4.86,0,0,0,6.74,0,6,6,0,0,0,1.29-4.08,5.93,5.93,0,0,0-1.29-4.08,4.53,4.53,0,0,0-3.37-1.35M70.42,8.7h-2.1v15h2.1v-7.1h2a2.94,2.94,0,0,1,1.85.58,4.53,4.53,0,0,1,.9,1.59l2.08,4.93h2.36L77.21,18a3.35,3.35,0,0,0-2.41-2.3v-.11a2.77,2.77,0,0,0,1.91-2.12l.54-1.59c.17-.47.33-1.27.77-1.59a1.07,1.07,0,0,1,.61-.17,1.28,1.28,0,0,1,.62.13l.26-1.68a6,6,0,0,0-1.21-.17,3,3,0,0,0-1.22.24,3,3,0,0,0-1.44,2l-.77,2.35a2.19,2.19,0,0,1-2.36,1.86H70.42Z" transform="translate(-0.55 -0.75)"/></svg>