# WaveFront *.obj file (generated by Cinema 4D)

mtllib ./cone.mtl

v 0.96498090028763 -5.56376171112061 -0.18983370065689
v 0.93278086185455 -5.56376171112061 -0.43443369865417
v 0.83838087320328 -5.56376171112061 -0.66233372688293
v 0.6882808804512 -5.56376171112061 -0.85803371667862
v 0.49258089065552 -5.56376171112061 -1.00813364982605
v 0.26468086242676 -5.56376171112061 -1.10253369808197
v 0.02008087746799 -5.56376171112061 -1.1347336769104
v -0.22451911866665 -5.56376171112061 -1.10253369808197
v -0.45241913199425 -5.56376171112061 -1.00813364982605
v -0.64811915159225 -5.56376171112061 -0.85803371667862
v -0.79821914434433 -5.56376171112061 -0.66233372688293
v -0.89261913299561 -5.56376171112061 -0.43443369865417
v -0.92481911182404 -5.56376171112061 -0.18983370065689
v -0.89261913299561 -5.56376171112061 0.05476630106568
v -0.79821914434433 -5.56376171112061 0.28266629576683
v -0.64811915159225 -5.56376171112061 0.47836631536484
v -0.45241913199425 -5.56376171112061 0.62846630811691
v -0.22451911866665 -5.56376171112061 0.72286629676819
v 0.02008087746799 -5.56376171112061 0.75506627559662
v 0.26468086242676 -5.56376171112061 0.72286629676819
v 0.49258089065552 -5.56376171112061 0.62846630811691
v 0.6882808804512 -5.56376171112061 0.47836631536484
v 0.83838087320328 -5.56376171112061 0.28266629576683
v 0.93278086185455 -5.56376171112061 0.05476630106568
v 0.77598088979721 -4.55766153335571 -0.18983370065689
v 0.75028085708618 -4.55766153335571 -0.38553369045258
v 0.67478090524673 -4.55766153335571 -0.56783372163773
v 0.5545808672905 -4.55766153335571 -0.72433370351791
v 0.39808088541031 -4.55766153335571 -0.84453368186951
v 0.21578088402748 -4.55766153335571 -0.9200336933136
v 0.02008087746799 -4.55766153335571 -0.94573372602463
v -0.17561912536621 -4.55766153335571 -0.9200336933136
v -0.35791912674904 -4.55766153335571 -0.84453368186951
v -0.51441913843155 -4.55766153335571 -0.72433370351791
v -0.63461911678314 -4.55766153335571 -0.56783372163773
v -0.71011912822723 -4.55766153335571 -0.38553369045258
v -0.73581910133362 -4.55766153335571 -0.18983370065689
v -0.71011912822723 -4.55766153335571 0.00586630264297
v -0.63461911678314 -4.55766153335571 0.18816630542278
v -0.51441913843155 -4.55766153335571 0.34466630220413
v -0.35791912674904 -4.55766153335571 0.46486631035805
v -0.17561912536621 -4.55766153335571 0.54036629199982
v 0.02008087746799 -4.55766153335571 0.56606632471085
v 0.21578088402748 -4.55766153335571 0.54036629199982
v 0.39808088541031 -4.55766153335571 0.46486631035805
v 0.5545808672905 -4.55766153335571 0.34466630220413
v 0.67478090524673 -4.55766153335571 0.18816630542278
v 0.75028085708618 -4.55766153335571 0.00586630264297
v 0.58708089590073 -3.5515615940094 -0.18983370065689
v 0.56768089532852 -3.5515615940094 -0.33653369545937
v 0.51108086109161 -3.5515615940094 -0.47333368659019
v 0.42098087072372 -3.5515615940094 -0.59073370695114
v 0.3035808801651 -3.5515615940094 -0.68083369731903
v 0.16678087413311 -3.5515615940094 -0.73743367195129
v 0.02008087746799 -3.5515615940094 -0.7568336725235
v -0.126619130373 -3.5515615940094 -0.73743367195129
v -0.26341912150383 -3.5515615940094 -0.68083369731903
v -0.38081911206245 -3.5515615940094 -0.59073370695114
v -0.47091913223267 -3.5515615940094 -0.47333368659019
v -0.52751910686493 -3.5515615940094 -0.33653369545937
v -0.54691910743713 -3.5515615940094 -0.18983370065689
v -0.52751910686493 -3.5515615940094 -0.04313369840384
v -0.47091913223267 -3.5515615940094 0.09366630017757
v -0.38081911206245 -3.5515615940094 0.21106630563736
v -0.26341912150383 -3.5515615940094 0.30116629600525
v -0.126619130373 -3.5515615940094 0.35776630043983
v 0.02008087746799 -3.5515615940094 0.37716630101204
v 0.16678087413311 -3.5515615940094 0.35776630043983
v 0.3035808801651 -3.5515615940094 0.30116629600525
v 0.42098087072372 -3.5515615940094 0.21106630563736
v 0.51108086109161 -3.5515615940094 0.09366630017757
v 0.56768089532852 -3.5515615940094 -0.04313369840384
v 0.39808088541031 -2.54556179046631 -0.18983370065689
v 0.38518089056015 -2.54556179046631 -0.28763368725777
v 0.34738087654114 -2.54556179046631 -0.37883371114731
v 0.28738087415695 -2.54556179046631 -0.45713371038437
v 0.20908087491989 -2.54556179046631 -0.51713371276855
v 0.11788087338209 -2.54556179046631 -0.55493372678757
v 0.02008087746799 -2.54556179046631 -0.56783372163773
v -0.0777191221714 -2.54556179046631 -0.55493372678757
v -0.16891911625862 -2.54556179046631 -0.51713371276855
v -0.24721913039684 -2.54556179046631 -0.45713371038437
v -0.30721911787987 -2.54556179046631 -0.37883371114731
v -0.34501913189888 -2.54556179046631 -0.28763368725777
v -0.35791912674904 -2.54556179046631 -0.18983370065689
v -0.34501913189888 -2.54556179046631 -0.09203369915485
v -0.30721911787987 -2.54556179046631 -0.00083369738422
v -0.24721913039684 -2.54556179046631 0.07746630162001
v -0.16891911625862 -2.54556179046631 0.13746629655361
v -0.0777191221714 -2.54556179046631 0.17526629567146
v 0.02008087746799 -2.54556179046631 0.18816630542278
v 0.11788087338209 -2.54556179046631 0.17526629567146
v 0.20908087491989 -2.54556179046631 0.13746629655361
v 0.28738087415695 -2.54556179046631 0.07746630162001
v 0.34738087654114 -2.54556179046631 -0.00083369738422
v 0.38518089056015 -2.54556179046631 -0.09203369915485
v 0.20908087491989 -1.53946173191071 -0.18983370065689
v 0.20258088409901 -1.53946173191071 -0.23873369395733
v 0.18378087878227 -1.53946173191071 -0.2843337059021
v 0.15368087589741 -1.53946173191071 -0.32343369722366
v 0.11458087712526 -1.53946173191071 -0.35353368520737
v 0.06898088008165 -1.53946173191071 -0.37233370542526
v 0.02008087746799 -1.53946173191071 -0.37883371114731
v -0.02881912328303 -1.53946173191071 -0.37233370542526
v -0.07441912591457 -1.53946173191071 -0.35353368520737
v -0.11351912468672 -1.53946173191071 -0.32343369722366
v -0.143619120121 -1.53946173191071 -0.2843337059021
v -0.16241912543774 -1.53946173191071 -0.23873369395733
v -0.16891911625862 -1.53946173191071 -0.18983370065689
v -0.16241912543774 -1.53946173191071 -0.14093369245529
v -0.143619120121 -1.53946173191071 -0.09533369541168
v -0.11351912468672 -1.53946173191071 -0.05623369663954
v -0.07441912591457 -1.53946173191071 -0.02613369747996
v -0.02881912328303 -1.53946173191071 -0.0073336972855
v 0.02008087746799 -1.53946173191071 -0.00083369738422
v 0.06898088008165 -1.53946173191071 -0.0073336972855
v 0.11458087712526 -1.53946173191071 -0.02613369747996
v 0.15368087589741 -1.53946173191071 -0.05623369663954
v 0.18378087878227 -1.53946173191071 -0.09533369541168
v 0.20258088409901 -1.53946173191071 -0.14093369245529
v 0.02008087746799 -0.5333616733551 -0.18983370065689
# 121 vertices

vn 0.982814848423 0.18459418416023 0
vn 0.94932401180267 0.18459598720074 -0.25437811017036
vn 0.85113829374313 0.18459664285183 -0.4914139509201
vn 0.69495850801468 0.18456807732582 -0.69495850801468
vn 0.4914139509201 0.18459664285183 -0.85113829374313
vn 0.25437811017036 0.18459598720074 -0.94932401180267
vn 0 0.18459418416023 -0.982814848423
vn -0.25437811017036 0.18459598720074 -0.94932401180267
vn -0.4914139509201 0.18459664285183 -0.85113829374313
vn -0.69495850801468 0.18456807732582 -0.69495850801468
vn -0.85113829374313 0.18459664285183 -0.4914139509201
vn -0.94932401180267 0.18459598720074 -0.25437811017036
vn -0.982814848423 0.18459418416023 0
vn -0.94932401180267 0.18459598720074 0.25437811017036
vn -0.85113829374313 0.18459664285183 0.4914139509201
vn -0.69495850801468 0.18456807732582 0.69495850801468
vn -0.4914139509201 0.18459664285183 0.85113829374313
vn -0.25437811017036 0.18459598720074 0.94932401180267
vn 0 0.18459418416023 0.982814848423
vn 0.25437811017036 0.18459598720074 0.94932401180267
vn 0.4914139509201 0.18459664285183 0.85113829374313
vn 0.69495850801468 0.18456807732582 0.69495850801468
vn 0.85113829374313 0.18459664285183 0.4914139509201
vn 0.94932401180267 0.18459598720074 0.25437811017036
vn 1 0 0
# 25 normals

vt 0.75 0.20070004463196 0
vt 0.79170000553131 0.20070004463196 0
vt 0.79170000553131 0.00120007991791 0
vt 0.75 0.00120007991791 0
vt 0.83329999446869 0.20070004463196 0
vt 0.83329999446869 0.00120007991791 0
vt 0.875 0.20070004463196 0
vt 0.875 0.00120007991791 0
vt 0.91670000553131 0.20070004463196 0
vt 0.91670000553131 0.00120007991791 0
vt 0.95829999446869 0.20070004463196 0
vt 0.95829999446869 0.00120007991791 0
vt 1 0.20070004463196 0
vt 1 0.00120007991791 0
vt 0 0.20070004463196 0
vt 0.04170000180602 0.20070004463196 0
vt 0.04170000180602 0.00120007991791 0
vt 0 0.00120007991791 0
vt 0.08330000191927 0.20070004463196 0
vt 0.08330000191927 0.00120007991791 0
vt 0.125 0.20070004463196 0
vt 0.125 0.00120007991791 0
vt 0.16670000553131 0.20070004463196 0
vt 0.16670000553131 0.00120007991791 0
vt 0.20829999446869 0.20070004463196 0
vt 0.20829999446869 0.00120007991791 0
vt 0.25 0.20070004463196 0
vt 0.25 0.00120007991791 0
vt 0.29170000553131 0.20070004463196 0
vt 0.29170000553131 0.00120007991791 0
vt 0.33329999446869 0.20070004463196 0
vt 0.33329999446869 0.00120007991791 0
vt 0.375 0.20070004463196 0
vt 0.375 0.00120007991791 0
vt 0.41670000553131 0.20070004463196 0
vt 0.41670000553131 0.00120007991791 0
vt 0.45829999446869 0.20070004463196 0
vt 0.45829999446869 0.00120007991791 0
vt 0.5 0.20070004463196 0
vt 0.5 0.00120007991791 0
vt 0.54170000553131 0.20070004463196 0
vt 0.54170000553131 0.00120007991791 0
vt 0.58329999446869 0.20070004463196 0
vt 0.58329999446869 0.00120007991791 0
vt 0.625 0.20070004463196 0
vt 0.625 0.00120007991791 0
vt 0.66670000553131 0.20070004463196 0
vt 0.66670000553131 0.00120007991791 0
vt 0.70829999446869 0.20070004463196 0
vt 0.70829999446869 0.00120007991791 0
vt 0.75 0.40020000934601 0
vt 0.79170000553131 0.40020000934601 0
vt 0.83329999446869 0.40020000934601 0
vt 0.875 0.40020000934601 0
vt 0.91670000553131 0.40020000934601 0
vt 0.95829999446869 0.40020000934601 0
vt 1 0.40020000934601 0
vt 0 0.40020000934601 0
vt 0.04170000180602 0.40020000934601 0
vt 0.08330000191927 0.40020000934601 0
vt 0.125 0.40020000934601 0
vt 0.16670000553131 0.40020000934601 0
vt 0.20829999446869 0.40020000934601 0
vt 0.25 0.40020000934601 0
vt 0.29170000553131 0.40020000934601 0
vt 0.33329999446869 0.40020000934601 0
vt 0.375 0.40020000934601 0
vt 0.41670000553131 0.40020000934601 0
vt 0.45829999446869 0.40020000934601 0
vt 0.5 0.40020000934601 0
vt 0.54170000553131 0.40020000934601 0
vt 0.58329999446869 0.40020000934601 0
vt 0.625 0.40020000934601 0
vt 0.66670000553131 0.40020000934601 0
vt 0.70829999446869 0.40020000934601 0
vt 0.75 0.59979999065399 0
vt 0.79170000553131 0.59979999065399 0
vt 0.83329999446869 0.59979999065399 0
vt 0.875 0.59979999065399 0
vt 0.91670000553131 0.59979999065399 0
vt 0.95829999446869 0.59979999065399 0
vt 1 0.59979999065399 0
vt 0 0.59979999065399 0
vt 0.04170000180602 0.59979999065399 0
vt 0.08330000191927 0.59979999065399 0
vt 0.125 0.59979999065399 0
vt 0.16670000553131 0.59979999065399 0
vt 0.20829999446869 0.59979999065399 0
vt 0.25 0.59979999065399 0
vt 0.29170000553131 0.59979999065399 0
vt 0.33329999446869 0.59979999065399 0
vt 0.375 0.59979999065399 0
vt 0.41670000553131 0.59979999065399 0
vt 0.45829999446869 0.59979999065399 0
vt 0.5 0.59979999065399 0
vt 0.54170000553131 0.59979999065399 0
vt 0.58329999446869 0.59979999065399 0
vt 0.625 0.59979999065399 0
vt 0.66670000553131 0.59979999065399 0
vt 0.70829999446869 0.59979999065399 0
vt 0.75 0.79930001497269 0
vt 0.79170000553131 0.79930001497269 0
vt 0.83329999446869 0.79930001497269 0
vt 0.875 0.79930001497269 0
vt 0.91670000553131 0.79930001497269 0
vt 0.95829999446869 0.79930001497269 0
vt 1 0.79930001497269 0
vt 0 0.79930001497269 0
vt 0.04170000180602 0.79930001497269 0
vt 0.08330000191927 0.79930001497269 0
vt 0.125 0.79930001497269 0
vt 0.16670000553131 0.79930001497269 0
vt 0.20829999446869 0.79930001497269 0
vt 0.25 0.79930001497269 0
vt 0.29170000553131 0.79930001497269 0
vt 0.33329999446869 0.79930001497269 0
vt 0.375 0.79930001497269 0
vt 0.41670000553131 0.79930001497269 0
vt 0.45829999446869 0.79930001497269 0
vt 0.5 0.79930001497269 0
vt 0.54170000553131 0.79930001497269 0
vt 0.58329999446869 0.79930001497269 0
vt 0.625 0.79930001497269 0
vt 0.66670000553131 0.79930001497269 0
vt 0.70829999446869 0.79930001497269 0
vt 0.5 0.99879997968674 0
# 126 texture coordinates

o Cone001_1
usemtl Default
f 1/4/1 2/3/2 26/2/2 25/1/1
f 2/3/2 3/6/3 27/5/3 26/2/2
f 3/6/3 4/8/4 28/7/4 27/5/3
f 4/8/4 5/10/5 29/9/5 28/7/4
f 5/10/5 6/12/6 30/11/6 29/9/5
f 6/12/6 7/14/7 31/13/7 30/11/6
f 7/18/7 8/17/8 32/16/8 31/15/7
f 8/17/8 9/20/9 33/19/9 32/16/8
f 9/20/9 10/22/10 34/21/10 33/19/9
f 10/22/10 11/24/11 35/23/11 34/21/10
f 11/24/11 12/26/12 36/25/12 35/23/11
f 12/26/12 13/28/13 37/27/13 36/25/12
f 13/28/13 14/30/14 38/29/14 37/27/13
f 14/30/14 15/32/15 39/31/15 38/29/14
f 15/32/15 16/34/16 40/33/16 39/31/15
f 16/34/16 17/36/17 41/35/17 40/33/16
f 17/36/17 18/38/18 42/37/18 41/35/17
f 18/38/18 19/40/19 43/39/19 42/37/18
f 19/40/19 20/42/20 44/41/20 43/39/19
f 20/42/20 21/44/21 45/43/21 44/41/20
f 21/44/21 22/46/22 46/45/22 45/43/21
f 22/46/22 23/48/23 47/47/23 46/45/22
f 23/48/23 24/50/24 48/49/24 47/47/23
f 24/50/24 1/4/1 25/1/1 48/49/24
f 25/1/1 26/2/2 50/52/2 49/51/1
f 26/2/2 27/5/3 51/53/3 50/52/2
f 27/5/3 28/7/4 52/54/4 51/53/3
f 28/7/4 29/9/5 53/55/5 52/54/4
f 29/9/5 30/11/6 54/56/6 53/55/5
f 30/11/6 31/13/7 55/57/7 54/56/6
f 31/15/7 32/16/8 56/59/8 55/58/7
f 32/16/8 33/19/9 57/60/9 56/59/8
f 33/19/9 34/21/10 58/61/10 57/60/9
f 34/21/10 35/23/11 59/62/11 58/61/10
f 35/23/11 36/25/12 60/63/12 59/62/11
f 36/25/12 37/27/13 61/64/13 60/63/12
f 37/27/13 38/29/14 62/65/14 61/64/13
f 38/29/14 39/31/15 63/66/15 62/65/14
f 39/31/15 40/33/16 64/67/16 63/66/15
f 40/33/16 41/35/17 65/68/17 64/67/16
f 41/35/17 42/37/18 66/69/18 65/68/17
f 42/37/18 43/39/19 67/70/19 66/69/18
f 43/39/19 44/41/20 68/71/20 67/70/19
f 44/41/20 45/43/21 69/72/21 68/71/20
f 45/43/21 46/45/22 70/73/22 69/72/21
f 46/45/22 47/47/23 71/74/23 70/73/22
f 47/47/23 48/49/24 72/75/24 71/74/23
f 48/49/24 25/1/1 49/51/1 72/75/24
f 49/51/1 50/52/2 74/77/2 73/76/1
f 50/52/2 51/53/3 75/78/3 74/77/2
f 51/53/3 52/54/4 76/79/4 75/78/3
f 52/54/4 53/55/5 77/80/5 76/79/4
f 53/55/5 54/56/6 78/81/6 77/80/5
f 54/56/6 55/57/7 79/82/7 78/81/6
f 55/58/7 56/59/8 80/84/8 79/83/7
f 56/59/8 57/60/9 81/85/9 80/84/8
f 57/60/9 58/61/10 82/86/10 81/85/9
f 58/61/10 59/62/11 83/87/11 82/86/10
f 59/62/11 60/63/12 84/88/12 83/87/11
f 60/63/12 61/64/13 85/89/13 84/88/12
f 61/64/13 62/65/14 86/90/14 85/89/13
f 62/65/14 63/66/15 87/91/15 86/90/14
f 63/66/15 64/67/16 88/92/16 87/91/15
f 64/67/16 65/68/17 89/93/17 88/92/16
f 65/68/17 66/69/18 90/94/18 89/93/17
f 66/69/18 67/70/19 91/95/19 90/94/18
f 67/70/19 68/71/20 92/96/20 91/95/19
f 68/71/20 69/72/21 93/97/21 92/96/20
f 69/72/21 70/73/22 94/98/22 93/97/21
f 70/73/22 71/74/23 95/99/23 94/98/22
f 71/74/23 72/75/24 96/100/24 95/99/23
f 72/75/24 49/51/1 73/76/1 96/100/24
f 73/76/1 74/77/2 98/102/2 97/101/1
f 74/77/2 75/78/3 99/103/3 98/102/2
f 75/78/3 76/79/4 100/104/4 99/103/3
f 76/79/4 77/80/5 101/105/5 100/104/4
f 77/80/5 78/81/6 102/106/6 101/105/5
f 78/81/6 79/82/7 103/107/7 102/106/6
f 79/83/7 80/84/8 104/109/8 103/108/7
f 80/84/8 81/85/9 105/110/9 104/109/8
f 81/85/9 82/86/10 106/111/10 105/110/9
f 82/86/10 83/87/11 107/112/11 106/111/10
f 83/87/11 84/88/12 108/113/12 107/112/11
f 84/88/12 85/89/13 109/114/13 108/113/12
f 85/89/13 86/90/14 110/115/14 109/114/13
f 86/90/14 87/91/15 111/116/15 110/115/14
f 87/91/15 88/92/16 112/117/16 111/116/15
f 88/92/16 89/93/17 113/118/17 112/117/16
f 89/93/17 90/94/18 114/119/18 113/118/17
f 90/94/18 91/95/19 115/120/19 114/119/18
f 91/95/19 92/96/20 116/121/20 115/120/19
f 92/96/20 93/97/21 117/122/21 116/121/20
f 93/97/21 94/98/22 118/123/22 117/122/21
f 94/98/22 95/99/23 119/124/23 118/123/22
f 95/99/23 96/100/24 120/125/24 119/124/23
f 96/100/24 73/76/1 97/101/1 120/125/24
f 97/102/2 98/126/25 121/126/25
f 98/103/3 99/126/25 121/126/25
f 99/104/4 100/126/25 121/126/25
f 100/105/5 101/126/25 121/126/25
f 101/106/6 102/126/25 121/126/25
f 102/107/7 103/126/25 121/126/25
f 103/109/8 104/126/25 121/126/25
f 104/110/9 105/126/25 121/126/25
f 105/111/10 106/126/25 121/126/25
f 106/112/11 107/126/25 121/126/25
f 107/113/12 108/126/25 121/126/25
f 108/114/13 109/126/25 121/126/25
f 109/115/14 110/126/25 121/126/25
f 110/116/15 111/126/25 121/126/25
f 111/117/16 112/126/25 121/126/25
f 112/118/17 113/126/25 121/126/25
f 113/119/18 114/126/25 121/126/25
f 114/120/19 115/126/25 121/126/25
f 115/121/20 116/126/25 121/126/25
f 116/122/21 117/126/25 121/126/25
f 117/123/22 118/126/25 121/126/25
f 118/124/23 119/126/25 121/126/25
f 119/125/24 120/126/25 121/126/25
f 120/101/1 97/126/25 121/126/25
f 121/126/25 121/126/25 121/126/25 121/126/25 121/126/25 121/126/25 121/126/25 121/126/25 121/126/25 121/126/25 121/126/25 121/126/25 121/126/25 121/126/25 121/126/25 121/126/25 121/126/25 121/126/25 121/126/25 121/126/25 121/126/25 121/126/25 121/126/25

