<svg xmlns="http://www.w3.org/2000/svg" width="180" height="179.464" viewBox="0 0 180 179.464">
  <g id="Group_695" data-name="Group 695" transform="translate(15061.258 850.813)">
    <g id="Satellite" transform="translate(-15061.259 -850.813)">
      <g id="Satellite-2" data-name="Satellite" transform="translate(0 0)">
        <g id="s" transform="translate(47.6 47.16)">
          <path id="Path_327" data-name="Path 327" d="M122.8,33.04,92.225,63.617,86.11,57.583a2.854,2.854,0,0,0-4.077,0h0L71.84,67.776,59.609,55.463l2.038-2.038a14.432,14.432,0,0,0,0-20.385l-8.154-8.154a2.854,2.854,0,0,0-4.077,0h0L39.224,35.078,24.955,20.809a2.935,2.935,0,0,0-4.077-.408,2.854,2.854,0,0,0-.408,4.077l.408.408L35.148,39.155,24.955,49.348a2.854,2.854,0,0,0,0,4.077l8.154,8.154a14.432,14.432,0,0,0,20.385,0l2.038-2.038L67.763,71.771,57.571,81.964a2.935,2.935,0,0,0,0,4.158h0l6.115,6.115L33.109,122.815a2.854,2.854,0,0,0,0,4l24.462,24.462a3.017,3.017,0,0,0,4.077,0h0l30.577-30.659,6.115,6.2a3.017,3.017,0,0,0,4.077,0h0l24.462-24.462a2.854,2.854,0,0,0,0-4.077h0l-6.115-6.115,30.577-30.577a2.854,2.854,0,0,0,0-4.077L126.879,33.04A3.017,3.017,0,0,0,122.8,33.04ZM71.84,133.007,59.609,145.238l-8.154-8.154,12.231-12.231ZM59.609,120.776,47.378,133.007l-8.154-8.154,12.231-12.231ZM88.148,116.7,75.917,128.93l-8.154-8.154,12.231-12.231ZM75.917,104.468,63.686,116.7l-8.154-8.154L67.763,96.314ZM49.417,57.5a8.562,8.562,0,0,1-12.231,0l-6.115-6.115L51.455,31l6.115,6.115a8.725,8.725,0,0,1,0,12.231Zm40.77,12.231,30.577,30.577-20.385,20.385L63.686,84.084,84.071,63.617Zm38.731,6.115L116.687,88.079l-8.154-8.154,12.231-12.231ZM116.687,63.617,104.456,75.848,96.3,67.694l12.231-12.231Zm28.539-4.077L132.995,71.771l-8.154-8.154,12.231-12.231ZM132.995,47.309,120.764,59.54l-8.154-8.154,12.231-12.231Z" transform="translate(-19.797 -19.762)" fill="#fff"/>
        </g>
        <g id="_2" data-name="2" transform="translate(119.576)">
          <path id="Path_328" data-name="Path 328" d="M31.685,75.884a3.017,3.017,0,0,1-1.386-.408,2.935,2.935,0,0,1-1.3-4.077c1.223-2.365,2.283-4.811,3.343-7.257a3.1,3.1,0,0,1,5.708,2.365c-1.142,2.609-2.283,5.137-3.588,7.665a3.18,3.18,0,0,1-2.772,1.712ZM40.328,52.89h-.489a3.1,3.1,0,0,1-2.283-3.751,72.554,72.554,0,0,0,1.549-8.154,3.1,3.1,0,0,1,6.115.978c-.489,2.854-1.06,5.545-1.712,8.154a3.017,3.017,0,0,1-3.262,2.772Zm2.935-24.462a2.935,2.935,0,0,1-3.1-2.935V17.339A3.18,3.18,0,0,1,43.019,14a3.017,3.017,0,0,1,3.343,2.854V25a3.1,3.1,0,0,1-3.18,3.343Z" transform="translate(-28.625 -13.978)" fill="#fff"/>
        </g>
        <g id="_1" data-name="1" transform="translate(0 117.842)">
          <path id="Path_329" data-name="Path 329" d="M19.18,46.124H17.06a3.1,3.1,0,0,1-3.1-3.1,2.935,2.935,0,0,1,3.18-3.017h7.991a3.1,3.1,0,1,1,0,6.2Zm22.342-1.957a3.079,3.079,0,0,1-.489-6.115c2.609-.489,5.219-.978,8.154-1.631a3.1,3.1,0,0,1,1.468,5.952c-2.772.652-5.463,1.223-8.154,1.712Zm23.728-6.523a3.1,3.1,0,0,1-2.935-1.957,3.18,3.18,0,0,1,1.794-4c2.528-.9,4.974-1.957,7.42-3.1a3.1,3.1,0,0,1,2.528,5.626l-7.746,3.262Z" transform="translate(-13.96 -28.43)" fill="#fff"/>
        </g>
      </g>
    </g>
  </g>
</svg>
