<svg xmlns="http://www.w3.org/2000/svg" width="28" height="11" viewBox="0 0 28 11">
  <g id="Group_696" data-name="Group 696" transform="translate(9265 -582)">
    <rect id="Rectangle_776" data-name="Rectangle 776" width="28" height="11" transform="translate(-9265 582)" fill="none"/>
    <path id="Path_327" data-name="Path 327" d="M-12.753,0V-8.4h3.771a2.991,2.991,0,0,1,2.2.741A1.91,1.91,0,0,1-6.22-6.248a2,2,0,0,1-1.2,1.876,2.806,2.806,0,0,1,1.233.756A1.908,1.908,0,0,1-5.757-2.3,1.969,1.969,0,0,1-6.595-.6,3.835,3.835,0,0,1-8.862,0ZM-11.3-1.307h2.449a2.034,2.034,0,0,0,1.192-.3,1.008,1.008,0,0,0,.425-.876.946.946,0,0,0-.434-.832,2.327,2.327,0,0,0-1.295-.293H-11.3Zm0-3.562h2.016a2.01,2.01,0,0,0,1.163-.3A.989.989,0,0,0-7.7-6.032a.914.914,0,0,0-.387-.78A1.817,1.817,0,0,0-9.173-7.1H-11.3Zm6.516,3.591.943-.98a4.985,4.985,0,0,0,1.16.826,2.935,2.935,0,0,0,1.3.271A2.591,2.591,0,0,0,.431-1.845,2.945,2.945,0,0,0,1.356-3.6H-2.411v-1.26H1.345A2.877,2.877,0,0,0,.4-6.538,2.614,2.614,0,0,0-1.38-7.2a3.074,3.074,0,0,0-1.266.256,4.472,4.472,0,0,0-1.119.733l-.844-1A5.323,5.323,0,0,1-3.187-8.2a4.234,4.234,0,0,1,1.8-.347A4.38,4.38,0,0,1,.349-8.2a4.117,4.117,0,0,1,1.371.932A4.3,4.3,0,0,1,2.6-5.883,4.443,4.443,0,0,1,2.927-4.2,4.5,4.5,0,0,1,2.6-2.5a4.283,4.283,0,0,1-.885,1.383,4.093,4.093,0,0,1-1.354.92,4.265,4.265,0,0,1-1.7.34A4.866,4.866,0,0,1-3.29-.21,4.627,4.627,0,0,1-4.784-1.278ZM4.345-4.2a4.342,4.342,0,0,1,.328-1.674,4.327,4.327,0,0,1,.9-1.384,4.219,4.219,0,0,1,1.4-.938,4.5,4.5,0,0,1,1.77-.349,4.54,4.54,0,0,1,1.77.343,4.151,4.151,0,0,1,1.392.929,4.27,4.27,0,0,1,.9,1.384A4.428,4.428,0,0,1,13.128-4.2,4.353,4.353,0,0,1,12.8-2.524a4.312,4.312,0,0,1-.9,1.385,4.213,4.213,0,0,1-1.4.937A4.528,4.528,0,0,1,8.722.146,4.413,4.413,0,0,1,6.454-.442,4.128,4.128,0,0,1,4.9-2.02,4.4,4.4,0,0,1,4.345-4.2Zm1.547,0a3.174,3.174,0,0,0,.36,1.5,2.775,2.775,0,0,0,1.02,1.09A2.756,2.756,0,0,0,8.745-1.2a2.741,2.741,0,0,0,1.468-.4,2.752,2.752,0,0,0,1.011-1.084,3.2,3.2,0,0,0,.357-1.51,3.153,3.153,0,0,0-.363-1.5A2.8,2.8,0,0,0,10.2-6.79,2.756,2.756,0,0,0,8.722-7.2a2.741,2.741,0,0,0-1.468.4A2.731,2.731,0,0,0,6.246-5.709,3.224,3.224,0,0,0,5.892-4.2Z" transform="translate(-9251.247 591.543)" fill="#003472"/>
  </g>
</svg>
