<svg xmlns="http://www.w3.org/2000/svg" width="180" height="180" viewBox="0 0 180 180">
  <g id="planet" transform="translate(-14.89 -14.88)">
    <path id="planet-2" data-name="planet" d="M104.8,14.88a90,90,0,1,0,90.089,90A90,90,0,0,0,104.8,14.88ZM73.319,167.133H72.163a8.093,8.093,0,0,1-4.8-7.559V150.68a.711.711,0,0,1,.711-.889h3.557a17.787,17.787,0,0,0,13.162-8c0-.534.978-.978,1.512-.8h3.646a3.913,3.913,0,0,1,2.757,1.156l13.518,15.3a18.409,18.409,0,0,0,19.032,5.336,18.676,18.676,0,0,0,13.073-15.563V145.7a4.18,4.18,0,0,1,1.423-2.757.978.978,0,0,1,1.067,0l5.514,3.2a104.761,104.761,0,0,1,18.32,13.518l2.223,1.69c-.978,1.156-2.045,2.223-3.2,3.379A83.152,83.152,0,0,1,104.8,188.477h0A83.863,83.863,0,0,1,84.258,185.9v-2.846a17.787,17.787,0,0,0-10.939-15.919Zm62.253-29.97a10.761,10.761,0,0,0-3.557,6.848v1.512a12.273,12.273,0,0,1-8.893,10.138,12.006,12.006,0,0,1-12.273-3.557L97.331,136.9a10.138,10.138,0,0,0-7.559-3.379H85.947a8.182,8.182,0,0,0-6.848,3.735,11.294,11.294,0,0,1-8.449,5.158H67.182A7.293,7.293,0,0,0,60.6,149.7V158.6a14.585,14.585,0,0,0,8.894,13.429l1.156.534a11.383,11.383,0,0,1,6.848,9.96v.534a82.885,82.885,0,0,1-31.838-19.921l-.711-.711h0A83.6,83.6,0,0,1,104.8,21.283h5.069A10.494,10.494,0,0,1,104.8,32.4a15.919,15.919,0,0,0-3.824,3.113l-5.87,6.136A13.34,13.34,0,0,0,92.173,46.9v.711A8.893,8.893,0,0,1,85.68,54.1L73.764,57.479a14.229,14.229,0,0,0-5.069,2.49L55.621,70.018a10.316,10.316,0,0,1-4.18,1.779L35.078,74.465a5.514,5.514,0,0,0-4.624,6.314,3.735,3.735,0,0,0,0,1.334,7.648,7.648,0,0,0,6.492,4.8,13.162,13.162,0,0,1,7.292,3.113l3.468,2.935a8.893,8.893,0,0,0,3.2,1.69L60.6,97.676a11.3,11.3,0,0,1,5.6,3.913l6.848,8.893a6.225,6.225,0,0,0,4,2.49,5.87,5.87,0,0,0,5.069-1.423l6.937-5.87,1.067-.889,6.314-4.447a16.364,16.364,0,0,0,7.2-13.251L109.07,78.2a12.1,12.1,0,0,0,0-12.006L106.491,61.3a6.4,6.4,0,0,1,2.223-8.271l7.47-4.713a7.026,7.026,0,0,1,7.648,0,8.893,8.893,0,0,1,3.646,8l-.889,7.115a9.427,9.427,0,0,0,4.891,9.338A7.915,7.915,0,0,1,135.3,80.69V83.8a9.694,9.694,0,0,0,3.646,8.893l3.557,2.668a12.451,12.451,0,0,0,14.763,0l8.449-5.87a31.216,31.216,0,0,0,8.893-9.694,16.366,16.366,0,0,1,1.334-1.6l5.247-7.026a83.152,83.152,0,0,1-9.872,84.753l-2.045-1.512a112.055,112.055,0,0,0-19.387-14.229l-5.514-3.2a7.381,7.381,0,0,0-8.715.534Zm35.039-63.587a27.125,27.125,0,0,0-1.957,2.846,24.1,24.1,0,0,1-7.026,7.648l-8.449,5.87a5.958,5.958,0,0,1-7.115,0l-3.557-2.757a2.757,2.757,0,0,1-1.156-2.757V81.313a14.5,14.5,0,0,0-7.026-14.318,3.113,3.113,0,0,1-1.512-3.113l.889-7.115a14.585,14.585,0,0,0-6.4-14.229,13.34,13.34,0,0,0-14.763,0l-7.47,4.713a12.9,12.9,0,0,0-4.447,16.808l2.579,4.891a5.692,5.692,0,0,1,0,5.6l-5.514,8.893a4.447,4.447,0,0,0-.8,2.935,9.516,9.516,0,0,1-4.358,8.093L86.214,99.01,84.7,100.167l-6.67,5.959-6.848-8.893a16.986,16.986,0,0,0-8.893-6.047L52.6,88.161a2.134,2.134,0,0,1-.978-.534l-3.468-2.935a19.921,19.921,0,0,0-10.494-4.536L52.242,78.2a16.631,16.631,0,0,0,7.026-3.024L72.518,65.127A6.581,6.581,0,0,1,75.364,63.7l11.65-3.291A16.186,16.186,0,0,0,98.042,49.386v-.8a5.87,5.87,0,0,1,1.423-2.49l5.781-6.225a12.362,12.362,0,0,1,2.4-1.868A16.9,16.9,0,0,0,116.1,22.084,83.6,83.6,0,0,1,163.408,45.74h0a84.22,84.22,0,0,1,13.962,18.5Z" transform="translate(0 0)" fill="#003472"/>
  </g>
</svg>
