<svg xmlns="http://www.w3.org/2000/svg" width="231" height="29.137" viewBox="0 0 231 29.137">
  <g id="Сгруппировать_485" data-name="Сгруппировать 485" transform="translate(-282.822 -540.985)">
    <path id="Контур_293" data-name="Контур 293" d="M309.369,550.552h-4.978c-3,0-4.078.644-4.078,1.379,0,.963,1.507,1.327,3.563,2.032.885.3,1.432.451,1.432.727,0,.146-.175.325-1.113.325h-4.147v1.293h4.944c.886,0,4.518-.019,4.518-1.447,0-.984-1.684-1.41-3.331-1.921-1.1-.342-1.667-.5-1.667-.783,0-.3.676-.32,1.084-.32h3.772Zm-21.745,0v5.756h3.7v-4.47h1.558c1.019,0,2.6.07,2.6.894,0,.952-2,1.06-3.473.85v1.489a39.545,39.545,0,0,0,7.017,1.368v-1.423a17.116,17.116,0,0,1-3.4-.51c1.527-.116,3.666-.6,3.666-1.9,0-2.019-4.419-2.057-6.455-2.057Zm32.1,0a23.247,23.247,0,0,0-2.443-.133c-4.435,0-7.173,1.2-7.173,2.994,0,1.5,1.83,3.025,6.787,3.025a26.922,26.922,0,0,0,2.829-.13v-1.293a14.426,14.426,0,0,1-2.045.151c-1.6,0-3.768-.35-3.768-1.752,0-1.046,1.518-1.722,4.068-1.722a17.023,17.023,0,0,1,1.745.108Zm10.58,0a23.189,23.189,0,0,0-2.44-.133c-4.425,0-7.163,1.2-7.163,2.994,0,1.5,1.833,3.025,6.778,3.025a26.914,26.914,0,0,0,2.825-.13v-1.293a14.339,14.339,0,0,1-2.038.151c-1.6,0-3.764-.35-3.764-1.752,0-1.046,1.513-1.722,4.059-1.722a16.938,16.938,0,0,1,1.742.108Z" transform="translate(2.222 4.366)" fill="#201c5f"/>
    <path id="Контур_294" data-name="Контур 294" d="M340.239,557.757c0,3.357-12.885,6.1-28.679,6.1s-28.6-2.74-28.6-6.1,12.8-6.094,28.6-6.094v-6.139c-15.8,0-28.683,5.5-28.683,12.233s12.885,12.234,28.683,12.234,28.679-5.5,28.679-12.234m-21.293-9.426,2.724,3.557h-5.03Zm.281-1.006a7.117,7.117,0,0,0,6.183,1.925l-2.267-2.269v-2.529l.764.764.127-.121-2.637-2.637-.124.126.765.764h-2.531l-2.256-2.256a6.218,6.218,0,0,0,1.976,6.234m3.742-.521-1.58-1.578,1.261-1.264.319.316Zm-1.707-1.7-1.589-1.587,2.538.009.317.316Z" transform="translate(0.025 0.049)" fill="#201c5f"/>
    <path id="Контур_295" data-name="Контур 295" d="M340.346,557.789c0,3.382-12.923,6.143-28.762,6.143s-28.682-2.762-28.682-6.143,12.841-6.145,28.682-6.145v-6.189c-15.84,0-28.762,5.541-28.762,12.334s12.922,12.332,28.762,12.332S340.346,564.581,340.346,557.789Zm-21.355-9.5,2.732,3.587h-5.047Zm.282-1.015a7.109,7.109,0,0,0,6.2,1.941l-2.276-2.288v-2.548l.767.769.129-.123-2.648-2.658-.124.126.768.771h-2.538l-2.261-2.276A6.3,6.3,0,0,0,319.274,547.27Zm3.752-.524-1.584-1.593,1.264-1.273.32.317Zm-1.713-1.719-1.593-1.6,2.547.01.317.319Z" transform="translate(0)" fill="#201c5f"/>
    <path id="Контур_296" data-name="Контур 296" d="M485.7,556.288h2.614a2.179,2.179,0,0,1,1.485.452,1.656,1.656,0,0,1,.541,1.362,1.69,1.69,0,0,1-.453,1.274,2.013,2.013,0,0,1-1.512.518H485.7Zm0-1.508v-3.865h-1.944v10.5h4.492a4.355,4.355,0,0,0,3.041-.961,3.164,3.164,0,0,0,1.036-2.354,3.093,3.093,0,0,0-1.077-2.4,5.2,5.2,0,0,0-3.325-.926Zm-8.911,2.027H478.1a2.7,2.7,0,0,1,1.641.367,1.3,1.3,0,0,1,.587,1.144,1.657,1.657,0,0,1-.546,1.251,2.956,2.956,0,0,1-1.874.54,6.582,6.582,0,0,1-2.029-.344,6.857,6.857,0,0,1-1.1-.5l-.692,1.341a5.855,5.855,0,0,0,1.338.581,7.076,7.076,0,0,0,2.548.446,4.739,4.739,0,0,0,3.408-1.094,2.937,2.937,0,0,0,.995-2.134,2.391,2.391,0,0,0-1.962-2.416v-.066a2.651,2.651,0,0,0,.364-4.575,4.883,4.883,0,0,0-2.7-.648,5.824,5.824,0,0,0-2.806.648,1.871,1.871,0,0,0-.8,2.136l1.662.085a1.2,1.2,0,0,1,.563-1.207,2.418,2.418,0,0,1,1.274-.282,2.132,2.132,0,0,1,1.382.367,1.645,1.645,0,0,1,.581,1.362,1.664,1.664,0,0,1-.32.951,2.342,2.342,0,0,1-1.795.579h-1.034Zm-5.765-4.382v3.021h-2.308c-1.205,0-2.112-.452-2.112-1.486a1.364,1.364,0,0,1,.538-1.211,2.406,2.406,0,0,1,1.447-.323Zm1.9-1.51h-4.9a4.548,4.548,0,0,0-2.181.54,2.657,2.657,0,0,0-1.232,2.264,2.749,2.749,0,0,0,.67,1.79,2.864,2.864,0,0,0,1.7.886v.066a2.72,2.72,0,0,0-.755.43,2.631,2.631,0,0,0-.669.974l-1.684,3.55h2.156l1.318-2.946a2.89,2.89,0,0,1,.8-1.169,1.768,1.768,0,0,1,1.189-.345h1.679v4.46h1.9Zm-16.185,5.8h2.7a2.1,2.1,0,0,1,1.315.389,1.525,1.525,0,0,1,.537,1.3,1.572,1.572,0,0,1-.493,1.188,2.306,2.306,0,0,1-1.467.43h-2.592Zm0-4.423h2.529a2.056,2.056,0,0,1,1.251.344,1.342,1.342,0,0,1,.54,1.167,1.377,1.377,0,0,1-.477,1.142,2.076,2.076,0,0,1-1.426.388h-2.417Zm-1.9,9.12h4.745a4.117,4.117,0,0,0,2.787-.9,2.83,2.83,0,0,0,.924-2.136,2.512,2.512,0,0,0-.579-1.663,2.946,2.946,0,0,0-1.381-.821v-.063a1.841,1.841,0,0,0,1.142-.822,2.758,2.758,0,0,0,.477-1.531,2.36,2.36,0,0,0-.781-1.792,3.767,3.767,0,0,0-2.5-.775H454.84Zm-1.865-2.064a8.049,8.049,0,0,1-1.208.5,5.376,5.376,0,0,1-1.64.26,3.252,3.252,0,0,1-2.117-.711,3.317,3.317,0,0,1-.821-2.614v-1.4c0-.8-.064-2.136,1.015-2.892a2.693,2.693,0,0,1,1.511-.411,2.177,2.177,0,0,1,1.574.519,1.94,1.94,0,0,1,.367,1.663l1.748-.154a2.38,2.38,0,0,0-1.163-2.848,5.363,5.363,0,0,0-2.354-.56,5.23,5.23,0,0,0-3.023.884c-1.553,1.166-1.79,3.217-1.79,4.641a5.79,5.79,0,0,0,1.662,4.359,4.612,4.612,0,0,0,3.11,1.05,6.361,6.361,0,0,0,2.46-.446,12.388,12.388,0,0,0,1.274-.6Zm-15.219-6.928v3.021H435.45c-1.211,0-2.117-.452-2.117-1.486a1.374,1.374,0,0,1,.538-1.211,2.417,2.417,0,0,1,1.447-.323Zm1.9-1.51h-4.9a4.594,4.594,0,0,0-2.177.54,2.652,2.652,0,0,0-1.232,2.264,2.755,2.755,0,0,0,.669,1.79,2.872,2.872,0,0,0,1.7.886v.066a2.5,2.5,0,0,0-.755.43,2.64,2.64,0,0,0-.67.974l-1.685,3.55h2.159l1.319-2.946a2.922,2.922,0,0,1,.8-1.169,1.78,1.78,0,0,1,1.186-.345h1.685v4.46h1.9Zm-11.787,7.855a2.873,2.873,0,0,1-.952.951,2.473,2.473,0,0,1-1.555.474,2.1,2.1,0,0,1-1.444-.453,1.492,1.492,0,0,1-.541-1.251,1.794,1.794,0,0,1,.582-1.425,3.239,3.239,0,0,1,2.18-.543h1.73Zm.17,2.646h1.726v-6.792a3.792,3.792,0,0,0-.818-2.953,4.752,4.752,0,0,0-3.108-.973,6.34,6.34,0,0,0-3.154.687,1.9,1.9,0,0,0-.821,2.2l1.729.086a1.32,1.32,0,0,1,.582-1.252,3.121,3.121,0,0,1,1.555-.347,2.638,2.638,0,0,1,1.682.475,1.615,1.615,0,0,1,.456,1.318v1.362h-1.643c-2.33,0-3.325.559-3.758.884a3.007,3.007,0,0,0-1.119,2.437,2.953,2.953,0,0,0,.97,2.269,3.5,3.5,0,0,0,2.506.81,3.66,3.66,0,0,0,1.963-.446,3,3,0,0,0,1.164-1.078h.086Zm-14.059-10.5h-1.9v10.5h1.9v-4.826h1.534a1.755,1.755,0,0,1,1.122.323,2.549,2.549,0,0,1,.752,1.188l1.491,3.315H421l-1.727-3.876a3.97,3.97,0,0,0-.753-1.125,2.077,2.077,0,0,0-1.169-.579v-.066a2.1,2.1,0,0,0,.948-.537,2.834,2.834,0,0,0,.651-1.191l.344-1.014a1.785,1.785,0,0,1,.369-.669.553.553,0,0,1,.432-.152,1.023,1.023,0,0,1,.56.152l.282-1.426a3.2,3.2,0,0,0-1.21-.236,2.019,2.019,0,0,0-.8.151c-.477.193-.865.5-1.252,1.663l-.411,1.207a2.544,2.544,0,0,1-.56.995,1.779,1.779,0,0,1-1.254.367h-1.466Zm-3.764,8.437a8.243,8.243,0,0,1-1.208.5,5.408,5.408,0,0,1-1.643.26,3.262,3.262,0,0,1-2.117-.711,3.343,3.343,0,0,1-.819-2.614v-1.4c0-.8-.063-2.136,1.015-2.892a2.7,2.7,0,0,1,1.511-.411,2.172,2.172,0,0,1,1.574.519,1.936,1.936,0,0,1,.369,1.663l1.748-.154a2.378,2.378,0,0,0-1.166-2.848,5.34,5.34,0,0,0-2.354-.56,5.234,5.234,0,0,0-3.021.884c-1.553,1.166-1.793,3.217-1.793,4.641a5.791,5.791,0,0,0,1.666,4.359,4.606,4.606,0,0,0,3.108,1.05,6.356,6.356,0,0,0,2.46-.446,11.806,11.806,0,0,0,1.273-.6Zm-15.308-4.119v-.24a3.192,3.192,0,0,1,.689-2.223,2.046,2.046,0,0,1,1.58-.692,2.069,2.069,0,0,1,1.488.519,2.721,2.721,0,0,1,.692,2.2v.434Zm0,1.379h6.477v-.474c0-1.684-.063-3.07-1.1-4.188A4.126,4.126,0,0,0,397.2,550.7a4.229,4.229,0,0,0-3.2,1.379,5.745,5.745,0,0,0-1.207,3.91,6.192,6.192,0,0,0,1.254,4.12,4.829,4.829,0,0,0,3.691,1.524,6.684,6.684,0,0,0,2.457-.446,11.929,11.929,0,0,0,1.278-.6l-.607-1.23a7.56,7.56,0,0,1-1.208.5,5.165,5.165,0,0,1-1.643.26,3.252,3.252,0,0,1-2.373-.864,3.375,3.375,0,0,1-.734-2.352Zm-3.593-5.7h-1.9v4.855a5.637,5.637,0,0,1-1.983.347,2.7,2.7,0,0,1-1.7-.432,1.533,1.533,0,0,1-.478-1.21v-3.56h-1.9v3.3a3.084,3.084,0,0,0,.882,2.5,4.409,4.409,0,0,0,2.785.778,8.84,8.84,0,0,0,2.4-.345v4.264h1.9Zm-9.331,0h-2.03l-5.223,8.092v-8.092h-1.9v10.5h2.029l5.225-8.105v8.105h1.9Zm-21.369,10.5h1.726v-7.953l3.021,5.481h.647l3.022-5.481v7.953h1.9v-10.5h-2.14l-2.892,5.373-2.977-5.373h-2.308Zm-1.865-2.064a8.024,8.024,0,0,1-1.207.5,5.4,5.4,0,0,1-1.643.26,3.258,3.258,0,0,1-2.115-.711,3.321,3.321,0,0,1-.818-2.614v-1.4c0-.8-.066-2.136,1.009-2.892a2.719,2.719,0,0,1,1.515-.411,2.185,2.185,0,0,1,1.574.519,1.955,1.955,0,0,1,.369,1.663l1.748-.154a2.388,2.388,0,0,0-1.166-2.848,5.363,5.363,0,0,0-2.354-.56,5.213,5.213,0,0,0-3.019.884c-1.558,1.166-1.8,3.217-1.8,4.641a5.785,5.785,0,0,0,1.666,4.359,4.6,4.6,0,0,0,3.105,1.05,6.345,6.345,0,0,0,2.46-.446,12,12,0,0,0,1.276-.6Zm-11.006-2.716a3.967,3.967,0,0,1-.755,2.889,2.658,2.658,0,0,1-3.625,0,3.968,3.968,0,0,1-.756-2.889v-.951a3.981,3.981,0,0,1,.756-2.895,2.662,2.662,0,0,1,3.625,0,3.98,3.98,0,0,1,.755,2.895Zm-2.569-5.937a4.543,4.543,0,0,0-3.388,1.36,7.149,7.149,0,0,0,0,8.2,4.87,4.87,0,0,0,6.777,0,7.143,7.143,0,0,0,0-8.2,4.544,4.544,0,0,0-3.389-1.36M331.4,546.293h-2.117v15.123H331.4v-7.135h2.027a2.986,2.986,0,0,1,1.858.582,4.5,4.5,0,0,1,.907,1.6l2.095,4.954h2.373l-2.44-5.731a3.375,3.375,0,0,0-2.416-2.31v-.108a2.805,2.805,0,0,0,1.919-2.137l.543-1.6c.171-.474.325-1.27.775-1.6a1.047,1.047,0,0,1,.607-.174,1.3,1.3,0,0,1,.625.13l.259-1.682a5.58,5.58,0,0,0-1.21-.173,3.184,3.184,0,0,0-1.23.236,3.005,3.005,0,0,0-1.444,2.049l-.778,2.354a2.2,2.2,0,0,1-2.374,1.878H331.4Z" transform="translate(21.5 2.338)" fill="#201c5f"/>
  </g>
</svg>
